<?xml version="1.0" encoding="utf-8"?>
<!-- Generator: Adobe Illustrator 27.9.0, SVG Export Plug-In . SVG Version: 6.00 Build 0)  -->
<svg version="1.1" id="RedesSociales" xmlns="http://www.w3.org/2000/svg" xmlns:xlink="http://www.w3.org/1999/xlink" x="0px" y="0px"
	 viewBox="0 0 2700 600" style="enable-background:new 0 0 2700 600;" xml:space="preserve">

	<rect x="-1" y="1" class="fnd" width="2700" height="600"/>
	<rect x="199" y="51" class="instaHover" width="500" height="500"/>
	<rect x="1099" y="51" class="faceHover" width="500" height="500"/>
	<rect x="1999" y="51" class="whastHover" width="500" height="500"/>
	<path class="insta" d="M199,177.1v247.7c0,69.6,56.6,126.1,126.1,126.1h247.7c69.6,0,126.1-56.6,126.1-126.1V177.1 C699,107.6,642.4,51,572.9,51H325.1C255.6,51,199,107.6,199,177.1 M374.6,301c0-41,33.4-74.3,74.4-74.3c41,0,74.4,33.4,74.4,74.3c0,41-33.4,74.4-74.4,74.4C408,375.4,374.6,342,374.6,301z M449,172.2c-71,0-128.8,57.8-128.8,128.8c0,71,57.8,128.8,128.8,128.8 c71,0,128.8-57.8,128.8-128.8C577.8,230,520,172.2,449,172.2z M551.4,168.4c0,16.8,13.7,30.5,30.5,30.5c16.8,0,30.5-13.7,30.5-30.5 c0-16.8-13.7-30.5-30.5-30.5C565.1,137.9,551.4,151.6,551.4,168.4z M253.4,424.9V177.1c0-39.5,32.2-71.7,71.7-71.7h247.7 c39.5,0,71.7,32.2,71.7,71.7v247.7c0,39.5-32.2,71.7-71.7,71.7l-247.7,0C285.6,496.6,253.4,464.4,253.4,424.9z"/>
	<path class="face" d="M1530.8,96.5c12.6,0,22.7,10.2,22.7,22.7v363.6c0,12.6-10.2,22.7-22.7,22.7h-113.6V346.5h47.2 c9.8,0,18.5-6.3,21.6-15.5l10.1-30.2c3.7-11-4.5-22.4-16.2-22.4h-62.6v-45.5c0-11.4,11.4-22.7,22.7-22.7h45.5 c12.6,0,22.7-10.2,22.7-22.7v-15.6c0-7.3-4.7-13.9-11.8-15.8c-29.8-7.9-56.4-7.9-56.4-7.9c-56.8,0-90.9,39.2-90.9,73.3v56.8h-45.5 c-12.6,0-22.7,10.2-22.7,22.7v22.7c0,12.6,10.2,22.7,22.7,22.7h45.5v159.1h-181.8c-12.6,0-22.7-10.2-22.7-22.7V119.2 c0-12.6,10.2-22.7,22.7-22.7H1530.8z M1530.8,51c37.7,0,68.2,30.5,68.2,68.2v363.6c0,37.7-30.5,68.2-68.2,68.2h-363.6 c-37.7,0-68.2-30.5-68.2-68.2V119.2c0-37.7,30.5-68.2,68.2-68.2H1530.8z"/>
	<path class="whast" d="M2117.2,438.2l-14-13c-36.7-34.3-51.9-72.6-51.9-132.6c0-109.2,88.5-197.7,197.7-197.7 c109.2,0,197.7,88.5,197.7,197.7s-88.5,197.7-197.7,197.7c-21.6,0-31.8-2-51.9-8.7l-17.3-5.8l-62.6,31.3V438.2z M2117.5,204.9 c2.5-19.8,28.3-46.8,48.8-43.8l0,0c19.9,3.8,35.7,38.1,44.6,53.5c6.3,11.2,2.2,22.5-3.7,27.3c-7.9,6.4-20.3,15.2-17.7,24.1 c4.6,15.7,59.5,70.6,86.5,86.3c10.2,5.9,17.6-9.7,24-17.7c4.6-6.1,15.9-9.8,27.1-3.7c16.7,9.7,32.4,21,46.9,33.7 c7.3,6.1,9,15,3.9,24.5c-8.9,16.7-34.4,38.7-53,34.2c-32.5-7.8-163.7-58.7-205.9-206.1C2116.6,210,2117.2,207.4,2117.5,204.9z M2249,534.2c-26.9,0-41.7-2.9-65.9-11l-46.2,23.1c-29.2,14.6-63.6-6.6-63.6-39.3v-49.7c-47.3-44.1-65.9-94.9-65.9-164.7 C2007.4,159.2,2115.6,51,2249,51s241.6,108.2,241.6,241.6C2490.6,426,2382.4,534.2,2249,534.2z"/>

<style type="text/css">
	.fnd{fill:transparent;}
	/* .insta{fill-rule:evenodd;clip-rule:evenodd;fill:#FF0000;cursor: pointer;}
	.face{fill-rule:evenodd;clip-rule:evenodd;fill:#0000FF;}
	.whatsapp{fill-rule:evenodd;clip-rule:evenodd;fill:#00FF00;}
	.instaHover{fill: rgba(0, 0, 0, 0.1);cursor: pointer;}
	.instaHover:hover ~ .insta{fill: #000;}
	.insta:hover{fill: #000;} */
	.face,.insta,.whast{fill-rule:evenodd;clip-rule:evenodd;fill:#000;transition: 0.5s;cursor: pointer;}
	.faceHover,.instaHover,.whastHover{fill:transparent;cursor: pointer;}
	.face:hover,.insta:hover,.whast:hover{fill: #fff;filter: drop-shadow(0px 0px 10px gainsboro);}

	
	.faceHover:hover ~ .face{
		fill: #fff ;filter: drop-shadow(0px 0px 10px #000);
	}
	.instaHover:hover ~ .insta{
		fill: #fff ;filter: drop-shadow(0px 0px 10px #000);
	}
	.whastHover:hover ~ .whast{
		fill: #fff ;filter: drop-shadow(0px 0px 10px #000);
	}
</style>

	<script>
	const face = document.querySelector(".face")
	const insta = document.querySelector(".insta")
	const whatsapp = document.querySelector(".whast")
	const faceHover = document.querySelector(".faceHover")
	const instaHover = document.querySelector(".instaHover")
	const whastHover = document.querySelector(".whastHover")
	whatsapp.addEventListener("click", ()=>window.open("https://wa.me/595981751986", '_blank'))
	whastHover.addEventListener("click", ()=>window.open("https://wa.me/595994441044", '_blank'))
	insta.addEventListener("click", ()=>window.open("https://www.instagram.com/torreboggiani/?igsh=MXI4eHh2Mng2MXVycw%3D%3D", '_blank'))
	instaHover.addEventListener("click", ()=>window.open("https://www.instagram.com/torreboggiani/?igsh=MXI4eHh2Mng2MXVycw%3D%3D", '_blank'))
	face.addEventListener("click", ()=>window.open("https://www.face.com/profile.php?id=100069916925603", '_blank'))
	faceHover.addEventListener("click", ()=>window.open("https://www.face.com/profile.php?id=100069916925603", '_blank'))
</script>
</svg>
