<?xml version="1.0" encoding="utf-8"?>
<!-- Generator: Adobe Illustrator 27.9.0, SVG Export Plug-In . SVG Version: 6.00 Build 0)  -->
<svg version="1.1" id="Layer_1" xmlns="http://www.w3.org/2000/svg" xmlns:xlink="http://www.w3.org/1999/xlink" x="0px" y="0px"
	 viewBox="0 0 32 32" style="enable-background:new 0 0 32 32;" xml:space="preserve">
<style type="text/css">
	.st0{fill-rule:evenodd;clip-rule:evenodd;fill:#FFFFFF;}
	.st1{fill-rule:evenodd;clip-rule:evenodd;}
	.st2{fill-rule:evenodd;clip-rule:evenodd;fill:#0000FF;}
	.st3{fill-rule:evenodd;clip-rule:evenodd;fill:#FF0000;}
</style>
<path class="st0" d="M25,32H7c-3.9,0-7-3.2-7-7V7c0-3.9,3.2-7,7-7h18c3.9,0,7,3.2,7,7v18C32,28.8,28.8,32,25,32z"/>
<g>
	<polygon points="5.7,10.9 5.7,28.2 26.3,28.2 26.3,10.9 27,10.9 27,12 28,12 28,12.7 27,12.7 27,28.2 28,28.2 28,28.9 27,28.9 
		27,30 26.3,30 26.3,28.9 5.7,28.9 5.7,30 5,30 5,28.9 4,28.9 4,28.2 5,28.2 5,12.7 4,12.7 4,12 5,12 5,10.9 	"/>
	<polygon class="st1" points="6.8,16.2 11.8,16.2 14.4,12 6.8,12 	"/>
	<polygon class="st0" points="7.5,15.5 11.4,15.5 13.2,12.7 7.5,12.7 	"/>
	<polygon class="st1" points="25.2,12 16.5,12 13.8,16.2 25.2,16.2 	"/>
	<polygon class="st2" points="24.5,12.7 16.8,12.7 15.1,15.5 24.5,15.5 	"/>
	<polygon class="st1" points="25.2,17.6 20.2,17.6 17.5,21.8 25.2,21.8 	"/>
	<polygon class="st0" points="24.5,18.3 20.6,18.3 18.8,21.1 24.5,21.1 	"/>
	<polygon class="st1" points="6.8,21.8 15.5,21.8 18.2,17.6 6.8,17.6 	"/>
	<polygon class="st3" points="7.5,21.1 15.1,21.1 16.9,18.3 7.5,18.3 	"/>
	<polygon class="st1" points="6.9,27.2 9.1,27.2 11.8,22.9 6.9,22.9 	"/>
	<polygon class="st3" points="7.5,26.5 8.7,26.5 10.5,23.6 7.5,23.6 	"/>
	<polygon class="st1" points="25.2,22.9 13.8,22.9 11.1,27.2 25.2,27.2 	"/>
	<polygon class="st2" points="24.5,23.6 14.2,23.6 12.4,26.5 24.5,26.5 	"/>
	<polygon class="st1" points="16,2 25.2,10.9 6.8,10.9 	"/>
	<polygon class="st3" points="16,3 8.5,10.2 23.4,10.2 	"/>
</g>
</svg>
