<?xml version="1.0" encoding="utf-8"?>
<!-- Generator: Adobe Illustrator 27.9.0, SVG Export Plug-In . SVG Version: 6.00 Build 0)  -->
<svg version="1.1" id="Layer_1" xmlns="http://www.w3.org/2000/svg" xmlns:xlink="http://www.w3.org/1999/xlink" x="0px" y="0px"
	 viewBox="0 0 500 400" style="enable-background:new 0 0 500 400;" xml:space="preserve">
<style type="text/css">
	.st0{fill:#000;}
	.st1{fill-rule:evenodd;clip-rule:evenodd;fill:#000;}
</style>
<polygon class="st0" points="36,4.8 6,4.8 69.5,60.7 66.9,63.6 2.8,7.1 2.8,38 -1,38 -1,1 36,1 "/>
<polygon class="st0" points="462,5.1 492,5.1 428.5,61 431.1,63.9 495.2,7.4 495.2,38.2 499,38.2 499,1.2 462,1.2 "/>
<polygon class="st0" points="36.3,397.2 6.3,397.2 69.8,341.3 67.3,338.4 3.2,394.9 3.2,364 -0.7,364 -0.7,401 36.3,401 "/>
<polygon class="st0" points="462,397.2 492,397.2 428.5,341.3 431.1,338.4 495.2,394.9 495.2,364 499,364 499,401 462,401 "/>
<path class="st1" d="M196.8,141.3c-6.4,6.4-10.2,14.9-10.7,24c0,0.7-0.1,1.4-0.1,2.1v31.1h-69.8c-2.5,0-4.4-2-4.4-4.5V68.2
	c0-2.5,2-4.5,4.5-4.5h83v16.5c0,6,1.5,11.9,4.3,17.2c0.2,0.3,0.3,0.6,0.5,0.9c7.6,13.5,5.3,30.5-5.7,41.5L196.8,141.3z M199.9,141.4
	c11.8-11.7,14.1-29.8,6.1-44.1c-0.2-0.3-0.4-0.6-0.5-0.9c-2.6-5-4-10.5-4-16.1V62.6c0-0.3-0.1-0.6-0.3-0.8c-0.2-0.2-0.5-0.3-0.8-0.3
	h-84.1c-3.7,0-6.7,3-6.7,6.7V194c0,3.7,3,6.7,6.7,6.7h70.9c0.3,0,0.6-0.1,0.8-0.3c0.2-0.2,0.3-0.5,0.3-0.8v-32.2c0-0.7,0-1.3,0.1-2
	c0.5-8.5,4-16.5,10.1-22.6L199.9,141.4z M386.2,124.4c0,3.1-2.5,5.5-5.6,5.5h-41.9c-3.1,0-5.6-2.5-5.6-5.6v-20.9
	c0-3.1,2.5-5.6,5.6-5.6h41.9c3.1,0,5.6,2.5,5.6,5.6L386.2,124.4z M331,124.4c0,3.1-2.5,5.6-5.6,5.6h-41.9c-3.1,0-5.6-2.5-5.6-5.6
	v-20.9c0-3.1,2.5-5.6,5.6-5.6h41.9c3.1,0,5.6,2.5,5.6,5.6V124.4z M303.4,158.7c0,3.1-2.5,5.6-5.6,5.6H256c-3.1,0-5.6-2.5-5.6-5.6
	v-20.9c0-3.1,2.5-5.6,5.6-5.6h41.9c3.1,0,5.6,2.5,5.6,5.6V158.7z M275.8,192.9c0,1.5-0.6,2.9-1.6,3.9c-1,1-2.4,1.6-3.9,1.6h-35.2
	c-1.5,0-2.9-0.6-3.9-1.6c-1-1-1.6-2.5-1.6-3.9V172c0-3.1,2.5-5.6,5.6-5.6h35.2c3.1,0,5.6,2.5,5.6,5.6V192.9z M256,95.8
	c-3.1,0-5.6-2.5-5.6-5.6V69.3c0-1.5,0.6-2.9,1.6-3.9c1-1,2.5-1.6,3.9-1.6h41.9c1.5,0,2.9,0.6,3.9,1.6c1,1,1.6,2.5,1.6,3.9v20.9
	c0,3.1-2.5,5.6-5.6,5.6H256z M305.7,69.3c0-1.5,0.6-2.9,1.6-3.9c1-1.1,2.5-1.6,3.9-1.6h41.9c1.5,0,2.9,0.6,3.9,1.6
	c1,1,1.6,2.5,1.6,3.9v20.9c0,3.1-2.5,5.6-5.6,5.6h-41.9c-3.1,0-5.6-2.5-5.6-5.6V69.3z M211.9,61.5c0,0.4,0.1,0.7,0.1,1.1v1.1h30.7
	c1.5,0,2.9,0.6,3.9,1.6c1.1,1,1.7,2.5,1.7,3.9v20.9c0,3.1-2.5,5.6-5.6,5.6H217c0.3,0.7,0.6,1.5,0.9,2.2h52.4c3.1,0,5.6,2.5,5.6,5.6
	v20.9c0,3.1-2.5,5.6-5.6,5.6h-51.4c-0.2,0.8-0.5,1.5-0.8,2.2h24.6c3.1,0,5.6,2.5,5.6,5.6v20.9c0,3.1-2.5,5.6-5.6,5.6h-42.6
	c-0.1,0.6-0.1,1.2-0.2,1.7c0,0.2,0,0.3,0,0.5h21.8c3.1,0,5.6,2.5,5.6,5.6v20.9c0,1.5-0.6,2.9-1.6,3.9c-1,1.1-2.5,1.6-3.9,1.6h-21.8
	v1.1c0,0.4,0,0.7-0.1,1.1h21.9c1.8,0,3.6-0.7,5.1-1.9l1.6-1.4l1.6,1.4c1.4,1.2,3.2,1.9,5.1,1.9h35.2c1.9,0,3.6-0.7,5.1-1.9l1.6-1.4
	l1.6,1.4c1.4,1.2,3.2,1.9,5,1.9h23.9c0.2-0.7,0.5-1.5,0.7-2.2h-24.6c-1.5,0-2.9-0.6-3.9-1.6c-1-1-1.6-2.5-1.6-3.9V172
	c0-3.1,2.5-5.6,5.6-5.6h39.8c0.5-0.7,1-1.5,1.5-2.2h-13.7c-3.1,0-5.6-2.5-5.6-5.6v-20.9c0-3.1,2.5-5.6,5.6-5.6h41.9
	c3.1,0,5.6,2.5,5.6,5.6v9.5c0.8,0.8,1.5,1.7,2.2,2.5v-12c0-0.8-0.1-1.6-0.4-2.3l-1-3.3h21.2c4.3,0,7.8-3.5,7.8-7.8v-20.9
	c0-4.3-3.5-7.8-7.8-7.8h-21.2l1-3.3c0.2-0.7,0.4-1.5,0.4-2.3V69.3c0-4.3-3.5-7.8-7.8-7.8h-41.9c-1.8,0-3.6,0.7-5.1,1.9l-1.6,1.4
	l-1.6-1.4c-1.4-1.2-3.2-1.9-5.1-1.9H256c-1.8,0-3.6,0.7-5,1.9l-1.6,1.4l-1.6-1.4c-1.4-1.2-3.2-1.9-5.1-1.9H211.9z M382.9,244.1
	c0,2.5-2.1,4.6-4.6,4.6h-59.8c-2.5,0-4.6-2.1-4.6-4.6v-1.3c0-31.6,11.6-62.1,32.6-85.7l1.9-2.1l1.9,2.1
	c21.1,23.6,32.7,54.1,32.6,85.8L382.9,244.1z M354.6,274.6c2.5,0,4.6,2.1,4.6,4.6v54.5c0,2.5-2.1,4.6-4.6,4.6h-12.4
	c-2.6,0-4.6-2.1-4.6-4.6v-54.5c0-2.5,2.1-4.6,4.6-4.6H354.6z M347.4,152.9c-23,24.3-35.7,56.5-35.7,90v1.3c0,3.8,3.1,6.9,6.9,6.9
	h28.8v21.3h-5.1c-3.8,0-6.9,3.1-6.9,6.8v54.4c0,3.8,3.1,6.9,6.9,6.9h12.4c3.8,0,6.9-3.1,6.9-6.9v-54.4c0-3.8-3.1-6.8-6.9-6.8h-5.1
	l0-21.3h28.7c3.8,0,6.9-3.1,6.9-6.9v-1.3c0-33.5-12.8-65.8-35.9-90.2c-0.2-0.2-0.5-0.3-0.8-0.3c-0.3,0-0.6,0.1-0.8,0.3L347.4,152.9
	L347.4,152.9z"/>
</svg>
