<?xml version="1.0" encoding="utf-8"?>
<!-- Generator: Adobe Illustrator 27.9.0, SVG Export Plug-In . SVG Version: 6.00 Build 0)  -->
<svg version="1.1" id="Layer_1" xmlns="http://www.w3.org/2000/svg" xmlns:xlink="http://www.w3.org/1999/xlink" x="0px" y="0px"
	 viewBox="0 0 500 400" style="enable-background:new 0 0 500 400;" xml:space="preserve">
<style type="text/css">
	.st0{fill:#000;}
</style>
<polygon class="st0" points="36,4.8 6,4.8 69.5,60.7 66.9,63.6 2.8,7.1 2.8,38 -1,38 -1,1 36,1 "/>
<polygon class="st0" points="462,5.1 492,5.1 428.5,61 431.1,63.9 495.2,7.4 495.2,38.2 499,38.2 499,1.2 462,1.2 "/>
<polygon class="st0" points="36.3,397.2 6.3,397.2 69.8,341.3 67.3,338.4 3.2,394.9 3.2,364 -0.7,364 -0.7,401 36.3,401 "/>
<polygon class="st0" points="462,397.2 492,397.2 428.5,341.3 431.1,338.4 495.2,394.9 495.2,364 499,364 499,401 462,401 "/>
<path class="st0" d="M395.6,230.9v-0.6V230c0-0.3-0.3-0.6-0.6-0.9l-0.3-0.3c-0.3-0.3-0.3-0.3-0.6-0.6c0,0-0.3,0-0.3-0.3h-0.3
	l-69.1-26.2l-21-7.4l-17.3-6.5c9.3-9.3,14.8-22.2,14.8-36.4c0-5.5-0.6-10.5-2.2-15.1c0-0.3,0-0.6-0.3-0.9
	c-10.2-28.4-26.2-53.7-47.5-75.3c-1.2-1.2-3.1-1.2-4.3,0c-21.6,21.3-37.7,46.9-47.8,76.2v0.3c-1.2,4.9-1.8,9.9-1.8,15.1
	c0,13.9,5.5,26.9,14.8,36.1l-15.1,5.9c-1.5,0.6-2.5,2.5-1.9,4c0.6,1.2,1.5,1.8,2.8,1.8c0.3,0,0.6,0,1.2-0.3l18.2-6.8
	c9,6.8,20.1,11.1,32.1,11.1c12,0,23.5-4.3,32.4-11.1c0.3,0.3,0.6,0.3,0.9,0.6l19.1,7.1l83.6,31.8L249,300.4l-135.5-68.8l63.9-24.4
	c1.5-0.6,2.5-2.5,1.8-4c-0.9-1.6-2.5-2.2-4.3-1.6l-70.4,26.9h-0.3c0,0-0.3,0-0.3,0.3c-0.3,0-0.3,0.3-0.6,0.6l-0.3,0.3
	c-0.3,0.3-0.3,0.6-0.6,0.9v0.3v0.6v0.3v0.3l3.1,35.5c0,0.9,0.6,1.9,1.5,2.5l140.1,72.5h0.3c0.3,0,0.6,0.3,0.9,0.3
	c0.6,0,0.9,0,1.2-0.3L391,269.5c0.9-0.6,1.5-1.5,1.5-2.5l3.1-35.5L395.6,230.9L395.6,230.9z M249,197.3c-25.3,0-46-20.4-46-45.7
	c0-4.6,0.6-9,1.8-13.3c9.6-27.8,24.1-50.9,44.1-71.6c19.8,20.4,34.3,43.8,43.8,70.4v0.6c1.2,4,1.9,8.6,1.9,13.6
	C295,176.6,274.3,197.3,249,197.3z M245.9,334.3l-134.3-69.5l-2.5-28.4l136.4,69.1l0,28.7H245.9z M228.3,178.5
	c-6.2-4-10.2-9.9-12.7-18.2c-0.6-1.5-2.2-2.5-3.7-2.2c-1.5,0.6-2.5,2.2-2.2,3.7c2.8,9.9,7.7,17,15.1,21.9c0.6,0.3,1.2,0.6,1.5,0.6
	c0.9,0,1.8-0.6,2.5-1.5C230.2,181.2,229.9,179.4,228.3,178.5z M147.5,190.8l0.3,0.3c3.1,2.2,7.4,2.2,12.3,2.5
	c8.6,0.3,19.4,0.9,26.9,11.4c0.6,0.6,1.2,0.9,1.8,1.2h0.6h0.3c0.3,0,0.9,0,1.2-0.3c1.5-0.6,2.5-2.5,1.5-4
	c-9.3-22.5-19.1-42.9-37-41.7c-8,0.3-13.9,4.6-15.4,11.7C138.5,178.8,141.6,187.1,147.5,190.8z M146.2,173.2
	c0.9-4.3,4.3-6.5,9.9-6.8c11.1-0.6,18.8,10.8,25.6,25.6c-7.1-4-15.1-4.3-21.3-4.6c-4-0.3-7.7-0.3-9.3-1.5h-0.3
	C147.2,183.4,145,177.8,146.2,173.2z M307.6,178.8c0,0.3,0.3,0.3,0.3,0.6c0,0.3,0.3,0.3,0.3,0.3l0.3,0.3c0,0,0.3,0,0.3,0.3h0.3
	c0.3,0,0.6,0.3,0.9,0.3c0.3,0,0.9,0,1.2-0.3h0.3c0.3-0.3,0.6-0.6,0.9-0.9c7.4-10.5,18.2-10.8,26.9-11.4c4.6-0.3,8.6-0.6,11.7-2.2
	c0.3,0,0.6-0.3,0.9-0.3c6.2-3.4,9.3-12,7.7-19.1c-1.5-6.8-7.4-11.1-15.4-11.7c-17.9-0.9-27.8,19.1-37,41.7v0.3v0.6v0.6v0.6
	C307.6,178.5,307.6,178.8,307.6,178.8z M344.1,140.8c5.5,0.3,9,2.8,9.9,6.8c0.9,4.3-0.9,9.9-4.3,12c-0.3,0-0.6,0.3-0.9,0.6
	c-1.5,1.2-5.3,1.2-9.3,1.5c-6.2,0.3-13.9,0.6-21,4.6C325.5,151.6,333.3,140.2,344.1,140.8z M279.9,299.7c0.3,0,0.9,0,1.2-0.3
	l0.6-0.3c1.2-0.6,1.9-2.2,1.2-3.4c-0.6-1.2-2.2-1.8-3.4-1.2l-0.9,0.3c-1.2,0.6-1.9,2.2-1.2,3.4C278,299.1,278.9,299.7,279.9,299.7z
	 M365.4,256.8c0.3,0,0.9,0,1.2-0.3l0.6-0.3c1.2-0.6,1.9-2.2,1.2-3.4c-0.6-1.2-2.2-1.9-3.4-1.2l-0.6,0.3c-1.2,0.6-1.8,2.2-1.2,3.4
	C363.5,256.2,364.4,256.8,365.4,256.8z M296.8,291.1c0.3,0,0.9,0,1.2-0.3l0.6-0.3c1.2-0.6,1.9-2.2,1.2-3.4c-0.6-1.2-2.2-1.8-3.4-1.2
	l-0.6,0.3c-1.2,0.6-1.8,2.2-1.2,3.4C295,290.8,295.9,291.1,296.8,291.1z M262.6,308.4c0.3,0,0.9,0,1.2-0.3l0.6-0.3
	c1.2-0.6,1.9-2.2,1.2-3.4c-0.6-1.2-2.2-1.8-3.4-1.2l-0.9,0.3c-1.2,0.6-1.9,2.2-1.2,3.4C260.7,307.8,261.7,308.4,262.6,308.4z
	 M348.1,265.5c0.3,0,0.9,0,1.2-0.3l0.6-0.3c1.2-0.6,1.9-2.2,1.2-3.4c-0.6-1.2-2.2-1.8-3.4-1.2l-0.6,0.3c-1.2,0.6-1.8,2.2-1.2,3.4
	C346.2,264.9,347.1,265.5,348.1,265.5z M382.3,248.2c0.3,0,0.9,0,1.2-0.3l0.6-0.3c1.2-0.6,1.9-2.2,1.2-3.4c-0.6-1.2-2.2-1.8-3.4-1.2
	l-0.6,0.3c-1.2,0.6-1.8,2.2-1.2,3.4C380.5,247.9,381.4,248.2,382.3,248.2z M331.1,274.1c0.3,0,0.9,0,1.2-0.3l0.6-0.3
	c1.2-0.6,1.9-2.2,1.2-3.4c-0.6-1.2-2.2-1.8-3.4-1.2l-0.6,0.3c-1.2,0.6-1.8,2.2-1.2,3.4C329.2,273.5,330.2,274.1,331.1,274.1z
	 M314.1,282.8c0.3,0,0.9,0,1.2-0.3l0.6-0.3c1.2-0.6,1.9-2.2,1.2-3.4c-0.6-1.2-2.2-1.8-3.4-1.2l-0.6,0.3c-1.2,0.6-1.8,2.2-1.2,3.4
	C312,282.2,312.9,282.8,314.1,282.8z M262.6,324.4c0.3,0,0.9,0,1.2-0.3l0.6-0.3c1.2-0.6,1.9-2.2,1.2-3.4c-0.6-1.2-2.2-1.8-3.4-1.2
	l-0.6,0.3c-1.2,0.6-1.8,2.2-1.2,3.4C260.7,323.8,261.7,324.4,262.6,324.4z M279.9,315.8c0.3,0,0.9,0,1.2-0.3l0.6-0.3
	c1.2-0.6,1.9-2.2,1.2-3.4c-0.6-1.2-2.2-1.8-3.4-1.2l-0.9,0.3c-1.2,0.6-1.9,2.2-1.2,3.4C278,315.2,278.9,315.8,279.9,315.8z
	 M382.3,264.3c0.3,0,0.9,0,1.2-0.3l0.6-0.3c1.2-0.6,1.9-2.2,1.2-3.4c-0.6-1.2-2.2-1.8-3.4-1.2l-0.6,0.3c-1.2,0.6-1.8,2.2-1.2,3.4
	C380.5,263.9,381.4,264.3,382.3,264.3z M331.1,290.2c0.3,0,0.9,0,1.2-0.3l0.6-0.3c1.2-0.6,1.9-2.2,1.2-3.4c-0.6-1.2-2.2-1.8-3.4-1.2
	l-0.6,0.3c-1.2,0.6-1.8,2.2-1.2,3.4C329.2,289.6,330.2,290.2,331.1,290.2z M348.1,281.5c0.3,0,0.9,0,1.2-0.3l0.6-0.3
	c1.2-0.6,1.9-2.2,1.2-3.4c-0.6-1.2-2.2-1.8-3.4-1.2l-0.6,0.3c-1.2,0.6-1.8,2.2-1.2,3.4C346.2,280.9,347.1,281.5,348.1,281.5z
	 M365.4,272.9c0.3,0,0.9,0,1.2-0.3l0.6-0.3c1.2-0.6,1.9-2.2,1.2-3.4c-0.6-1.2-2.2-1.8-3.4-1.2l-0.6,0.3c-1.2,0.6-1.8,2.2-1.2,3.4
	C363.5,272.3,364.4,272.9,365.4,272.9z M314.1,298.8c0.3,0,0.9,0,1.2-0.3l0.6-0.3c1.2-0.6,1.9-2.2,1.2-3.4c-0.6-1.2-2.2-1.8-3.4-1.2
	l-0.6,0.3c-1.2,0.6-1.8,2.2-1.2,3.4C312,298.2,312.9,298.8,314.1,298.8z M296.8,307.2c0.3,0,0.9,0,1.2-0.3l0.6-0.3
	c1.2-0.6,1.9-2.2,1.2-3.4c-0.6-1.2-2.2-1.8-3.4-1.2l-0.6,0.3c-1.2,0.6-1.8,2.2-1.2,3.4C295,306.8,295.9,307.2,296.8,307.2z
	 M358,269.2c0.3,0,0.9,0,1.2-0.3l0.6-0.3c1.2-0.6,1.9-2.2,1.2-3.4c-0.6-1.2-2.2-1.8-3.4-1.2l-0.6,0.3c-1.2,0.6-1.8,2.2-1.2,3.4
	C356.1,268.6,357,269.2,358,269.2z M374.9,260.5c0.3,0,0.9,0,1.2-0.3l0.6-0.3c1.2-0.6,1.9-2.2,1.2-3.4c-0.6-1.2-2.2-1.8-3.4-1.2
	l-0.6,0.3c-1.2,0.6-1.8,2.2-1.2,3.4C373.1,260.2,374,260.5,374.9,260.5z M289.4,303.4c0.3,0,0.9,0,1.2-0.3l0.6-0.3
	c1.2-0.6,1.9-2.2,1.2-3.4c-0.6-1.2-2.2-1.8-3.4-1.2l-0.6,0.3c-1.2,0.6-1.8,2.2-1.2,3.4C287.6,303.1,288.5,303.4,289.4,303.4z
	 M306.7,295.1c0.3,0,0.9,0,1.2-0.3l0.6-0.3c1.2-0.6,1.9-2.2,1.2-3.4c-0.6-1.2-2.2-1.8-3.4-1.2l-0.6,0.3c-1.2,0.6-1.8,2.2-1.2,3.4
	C304.6,294.5,305.5,295.1,306.7,295.1z M323.7,286.5c0.3,0,0.9,0,1.2-0.3l0.6-0.3c1.2-0.6,1.9-2.2,1.2-3.4c-0.6-1.2-2.2-1.8-3.4-1.2
	l-0.6,0.3c-1.2,0.6-1.8,2.2-1.2,3.4C321.8,285.9,322.8,286.5,323.7,286.5z M340.7,277.8c0.3,0,0.9,0,1.2-0.3l0.6-0.3
	c1.2-0.6,1.9-2.2,1.2-3.4c-0.6-1.2-2.2-1.8-3.4-1.2l-0.6,0.3c-1.2,0.6-1.8,2.2-1.2,3.4C338.8,277.2,339.7,277.8,340.7,277.8z
	 M272.5,312.1c0.3,0,0.9,0,1.2-0.3l0.6-0.3c1.2-0.6,1.9-2.2,1.2-3.4c-0.6-1.2-2.2-1.8-3.4-1.2l-0.6,0.3c-1.2,0.6-1.8,2.2-1.2,3.4
	C270.6,311.5,271.5,312.1,272.5,312.1z M132.6,257.8l0.6,0.3c0.3,0.3,0.9,0.3,1.2,0.3c0.9,0,1.9-0.6,2.5-1.5c0.6-1.2,0-2.8-1.2-3.4
	l-0.6-0.3c-1.2-0.6-2.8,0-3.4,1.2C130.8,255.6,131.1,257.2,132.6,257.8z M149.6,266.4l0.6,0.3c0.3,0.3,0.9,0.3,1.2,0.3
	c0.9,0,1.9-0.6,2.5-1.5c0.6-1.2,0-2.8-1.2-3.4l-0.6-0.3c-1.2-0.6-2.8,0-3.4,1.2C147.8,264.3,148.4,265.8,149.6,266.4z M166.6,275.1
	l0.6,0.3c0.3,0.3,0.9,0.3,1.2,0.3c0.9,0,1.9-0.6,2.5-1.5c0.6-1.2,0-2.8-1.2-3.4l-0.6-0.3c-1.2-0.6-2.8,0-3.4,1.2
	C165.1,272.9,165.4,274.4,166.6,275.1z M235.1,309.3l0.6,0.3c0.3,0.3,0.9,0.3,1.2,0.3c0.9,0,1.9-0.6,2.5-1.5c0.6-1.2,0-2.8-1.2-3.4
	l-0.6-0.3c-1.2-0.6-2.8,0-3.4,1.2C233.3,307.2,233.9,308.7,235.1,309.3z M115.4,249.4l0.6,0.3c0.3,0.3,0.9,0.3,1.2,0.3
	c0.9,0,1.9-0.6,2.5-1.5c0.6-1.2,0-2.8-1.2-3.4l-0.6-0.3c-1.2-0.6-2.8,0-3.4,1.2C113.5,247,114.1,248.5,115.4,249.4z M183.9,283.7
	l0.6,0.3c0.3,0.3,0.9,0.3,1.2,0.3c0.9,0,1.9-0.6,2.5-1.5c0.6-1.2,0-2.8-1.2-3.4l-0.6-0.3c-1.2-0.6-2.8,0-3.4,1.2
	C182,281.5,182.7,283.1,183.9,283.7z M218.1,300.7l0.6,0.3c0.3,0.3,0.6,0.3,1.2,0.3c0.9,0,1.9-0.6,2.5-1.5c0.6-1.2,0-2.8-1.2-3.4
	l-0.6-0.3c-1.2-0.6-2.8,0-3.4,1.2C216.3,298.5,216.9,300,218.1,300.7z M200.9,292.3l0.6,0.3c0.3,0.3,0.9,0.3,1.2,0.3
	c0.9,0,1.9-0.6,2.5-1.5c0.6-1.2,0-2.8-1.2-3.4l-0.6-0.3c-1.2-0.6-2.8,0-3.4,1.2C199,289.9,199.6,291.4,200.9,292.3z M115.4,265.5
	l0.6,0.3c0.3,0.3,0.9,0.3,1.2,0.3c0.9,0,1.9-0.6,2.5-1.5c0.6-1.2,0-2.8-1.2-3.4l-0.6-0.3c-1.2-0.6-2.8,0-3.4,1.2
	C113.5,263,114.1,264.6,115.4,265.5z M200.9,308.4l0.6,0.3c0.3,0.3,0.9,0.3,1.2,0.3c0.9,0,1.9-0.6,2.5-1.5c0.6-1.2,0-2.8-1.2-3.4
	l-0.6-0.6c-1.2-0.6-2.8,0-3.4,1.2C199,305.9,199.6,307.5,200.9,308.4z M132.6,273.8l0.6,0.3c0.3,0.3,0.9,0.3,1.2,0.3
	c0.9,0,1.9-0.6,2.5-1.5c0.6-1.2,0-2.8-1.2-3.4l-0.6-0.3c-1.2-0.6-2.8,0-3.4,1.2C130.8,271.7,131.1,273.2,132.6,273.8z M218.1,316.7
	l0.6,0.3c0.3,0.3,0.6,0.3,1.2,0.3c0.9,0,1.9-0.6,2.5-1.5c0.6-1.2,0-2.8-1.2-3.4l-0.6-0.3c-1.2-0.6-2.8,0-3.4,1.2
	C216.6,314.6,216.9,316.1,218.1,316.7z M235.1,325.4l0.6,0.3c0.3,0.3,0.9,0.3,1.2,0.3c0.9,0,1.9-0.6,2.5-1.5c0.6-1.2,0-2.8-1.2-3.4
	l-0.6-0.3c-1.2-0.6-2.8,0-3.4,1.2C233.3,323.2,233.9,324.7,235.1,325.4z M183.9,299.7l0.6,0.3c0.3,0.3,0.9,0.3,1.2,0.3
	c0.9,0,1.9-0.6,2.5-1.5c0.6-1.2,0-2.8-1.2-3.4l-0.6-0.3c-1.2-0.6-2.8,0-3.4,1.2C182,297.6,182.7,299.1,183.9,299.7z M166.6,291.1
	l0.6,0.3c0.3,0.3,0.9,0.3,1.2,0.3c0.9,0,1.9-0.6,2.5-1.5c0.6-1.2,0-2.8-1.2-3.4l-0.6-0.3c-1.2-0.6-2.8,0-3.4,1.2
	C165.1,288.9,165.4,290.5,166.6,291.1z M149.6,282.5l0.6,0.3c0.3,0.3,0.9,0.3,1.2,0.3c0.9,0,1.9-0.6,2.5-1.5c0.6-1.2,0-2.8-1.2-3.4
	l-0.6-0.3c-1.2-0.6-2.8,0-3.4,1.2C147.8,280.3,148.4,281.8,149.6,282.5z M208.3,304.7l0.6,0.3c0.3,0.3,0.9,0.3,1.2,0.3
	c0.9,0,1.9-0.6,2.5-1.5c0.6-1.2,0-2.8-1.2-3.4l-0.6-0.6c-1.2-0.6-2.8,0-3.4,1.2C206.4,302.2,207,303.8,208.3,304.7z M225.6,313
	l0.6,0.3c0.3,0.3,0.6,0.3,1.2,0.3c0.9,0,1.9-0.6,2.5-1.5c0.6-1.2,0-2.8-1.2-3.4l-0.6-0.3c-1.2-0.6-2.8,0-3.4,1.2
	C224,310.9,224.3,312.4,225.6,313z M191.3,296l0.6,0.3c0.3,0.3,0.9,0.3,1.2,0.3c0.9,0,1.9-0.6,2.5-1.5c0.6-1.2,0-2.8-1.2-3.4
	l-0.6-0.3c-1.2-0.6-2.8,0-3.4,1.2C189.4,293.9,190.1,295.4,191.3,296z M140.1,270.1l0.6,0.3c0.3,0.3,0.9,0.3,1.2,0.3
	c0.9,0,1.9-0.6,2.5-1.5c0.6-1.2,0-2.8-1.2-3.4l-0.6-0.3c-1.2-0.6-2.8,0-3.4,1.2C138.2,268,138.5,269.5,140.1,270.1z M122.8,261.8
	l0.6,0.3c0.3,0.3,0.9,0.3,1.2,0.3c0.9,0,1.9-0.6,2.5-1.5c0.6-1.2,0-2.8-1.2-3.4l-0.6-0.3c-1.2-0.6-2.8,0-3.4,1.2
	C120.9,259.3,121.6,260.9,122.8,261.8z M157,278.8l0.6,0.3c0.3,0.3,0.9,0.3,1.2,0.3c0.9,0,1.9-0.6,2.5-1.5c0.6-1.2,0-2.8-1.2-3.4
	l-0.6-0.3c-1.2-0.6-2.8,0-3.4,1.2C155.2,276.6,155.8,278.1,157,278.8z M174,287.4l0.6,0.3c0.3,0.3,0.9,0.3,1.2,0.3
	c0.9,0,1.9-0.6,2.5-1.5c0.6-1.2,0-2.8-1.2-3.4l-0.6-0.3c-1.2-0.6-2.8,0-3.4,1.2C172.5,285.2,172.8,286.8,174,287.4z M187.3,222.3
	c-1.2-1.2-3.1-1.2-4.3,0c-1.2,1.2-1.2,3.1,0,4.3l41.7,41c0.6,0.6,1.2,0.9,2.2,0.9c0.9,0,1.5-0.3,2.2-0.9l16.4-17l17.3,17
	c0.6,0.6,1.2,0.9,2.2,0.9c0.9,0,1.5-0.3,2.2-0.9l41-42v6.8c0,1.8,1.2,3.1,3.1,3.1c1.9,0,3.1-1.2,3.1-3.1V218c0-0.3,0-0.9-0.3-1.2
	c-0.3-0.3-0.3-0.6-0.6-0.9c0,0-0.3,0-0.3-0.3c-0.3-0.3-0.3-0.3-0.6-0.3h-0.6H311h-13c-1.8,0-3.1,1.2-3.1,3.1c0,1.9,1.2,3.1,3.1,3.1
	h5.6l-38.9,40.1l-15.1-14.8L270,226l0,6.5c0,1.8,1.2,3.1,3.1,3.1c1.9,0,3.1-1.2,3.1-3.1V218c0-0.3,0-0.9-0.3-1.2
	c-0.3-0.3-0.3-0.6-0.6-0.9c0,0-0.3,0-0.3-0.3c-0.3-0.3-0.3-0.3-0.6-0.3h-0.6h-0.6h-13c-1.8,0-3.1,1.2-3.1,3.1c0,1.9,1.2,3.1,3.1,3.1
	h5.5l-20.4,21l-20.1-19.8c-1.2-1.2-3.1-1.2-4.3,0c-1.2,1.2-1.2,3.1,0,4.3l20.1,19.8l-14.2,14.8L187.3,222.3z M386.7,264.9
	l-134.6,69.5v-28.4l136.7-69.1L386.7,264.9z"/>
</svg>
