<?xml version="1.0" encoding="utf-8"?>
<!-- Generator: Adobe Illustrator 27.9.0, SVG Export Plug-In . SVG Version: 6.00 Build 0)  -->
<svg version="1.1" id="Layer_1" xmlns="http://www.w3.org/2000/svg" xmlns:xlink="http://www.w3.org/1999/xlink" x="0px" y="0px"
	 viewBox="0 0 500 400" style="enable-background:new 0 0 500 400;" xml:space="preserve">
<style type="text/css">
	.st0{fill:#000;}
</style>
<path class="st0" d="M268.6,281.8c-0.9,0-1.6,0-2.5,0.2c-0.9-8-7.6-14.2-16-14.2c-2,0-3.8,0.4-5.6,1.1c-0.5,0.2-0.9,0.9-0.7,1.5
	c0.2,0.5,0.9,0.9,1.5,0.7c1.6-0.5,3.3-0.9,4.9-0.9c7.4,0,13.4,5.8,13.6,13.2c0,0.4,0.2,0.7,0.5,0.9c0.4,0.2,0.7,0.4,1.1,0.2
	c1.1-0.4,2.2-0.5,3.3-0.5c6.2,0,11.1,4.9,11.1,11.1c0,2.9-1.1,5.8-3.3,7.8c-0.5,0.5-0.5,1.3,0,1.6c0.2,0.2,0.5,0.4,0.9,0.4
	c0.4,0,0.5-0.2,0.9-0.4c2.5-2.5,4-5.8,4-9.4C282,287.8,275.8,281.8,268.6,281.8 M326.3,122.4c0.2,0.2,0.2,0.2,0.4,0.2l15.2,8.9
	c0.7,0.5,1.1,1.5,1.1,2.2c0,0.9-0.4,1.6-0.9,2.2l-21.4,13.1c-0.2,0-0.2,0-0.4,0.2c-0.9,0.5-2.2,0.5-3.1-0.2c-0.2,0-0.2-0.2-0.4-0.2
	l-0.2-0.2L302,140h-0.2c0,0,0-0.2-0.2-0.2c-0.7-0.5-1.3-1.5-1.3-2.4c0-0.7,0.4-1.5,0.9-2c0,0,0,0,0-0.2l21.8-13.4
	C324.3,121.5,325.4,121.6,326.3,122.4z M300.3,133.8c-0.2,0-0.2,0.2-0.4,0.4c-0.9,0.9-1.3,2-1.3,3.3c0,1.5,0.7,2.9,2,3.8h0.2
	c0,0.2,0.2,0.2,0.2,0.2l14.7,8.5h0.2l0.2,0.2c0.7,0.5,1.6,0.7,2.7,0.7c0.7,0,1.3-0.2,1.8-0.4c0.2,0,0.4,0,0.5-0.2l21.4-13.2l0.2-0.2
	c0,0,0.2,0,0.2-0.2c1.1-0.9,1.6-2.2,1.6-3.6c0-1.5-0.7-2.7-1.8-3.6c0,0,0,0-0.2,0l-16.3-9.4h-0.2c-1.3-0.5-2.5-0.5-3.8,0h-0.2
	L300.3,133.8z M290.2,99.9c0.2,0.2,0.2,0.2,0.4,0.2l15.2,8.9c0.7,0.5,1.1,1.5,1.1,2.2c0,0.9-0.4,1.6-0.9,2.2l-21,12.9
	c-0.2,0-0.2,0-0.4,0.2c-0.9,0.5-2.2,0.5-3.1-0.2c-0.2,0-0.2-0.2-0.4-0.2l-0.2-0.2l-14.7-8.5H266c0,0,0-0.2-0.2-0.2
	c-0.7-0.5-1.3-1.5-1.3-2.4c0-0.7,0.4-1.5,0.9-2c0,0,0,0,0-0.2l21.8-13.4C288.2,99,289.3,99.1,290.2,99.9z M264.2,111.3
	c-0.2,0-0.2,0.2-0.4,0.4c-0.9,0.9-1.3,2-1.3,3.3c0,1.5,0.7,2.9,2,3.8h0.2c0,0.2,0.2,0.2,0.2,0.2l14.7,8.5h0.2l0.2,0.2
	c0.7,0.5,1.6,0.7,2.7,0.7c0.7,0,1.3-0.2,1.8-0.4c0.2,0,0.4,0,0.5-0.2l21.4-13.2l0.2-0.2c0,0,0.2,0,0.2-0.2c1.1-0.9,1.6-2.2,1.6-3.6
	c0-1.5-0.7-2.7-1.8-3.6c0,0,0,0-0.2,0l-16.3-9.4H290c-1.3-0.5-2.5-0.5-3.8,0H286L264.2,111.3z M253.3,78.8c0.2,0,0.2,0.2,0.4,0.2
	l15.2,8.9c0.7,0.5,1.1,1.5,1.1,2.2c0,0.9-0.4,1.6-0.9,2.2l-21,12.9c-0.2,0-0.2,0-0.4,0.2c-0.9,0.5-2.2,0.5-3.1,0
	c-0.2,0-0.2-0.2-0.4-0.2l-0.2-0.2l-14.7-8.5h-0.2c0,0,0-0.2-0.2-0.2c-0.7-0.5-1.3-1.5-1.3-2.4c0-0.7,0.4-1.5,0.9-2c0,0,0,0,0-0.2
	l21.8-13.4C251.3,78.1,252.6,78.1,253.3,78.8z M225.8,94.1c0,1.5,0.7,2.9,2,3.8h0.2c0,0.2,0.2,0.2,0.2,0.2l14.7,8.5h0.2l0.2,0.2
	c0.7,0.5,1.6,0.7,2.7,0.7c0.7,0,1.3-0.2,1.8-0.4c0.2,0,0.4,0,0.5-0.2l21.4-13.2l0.2-0.2c0,0,0.2,0,0.2-0.2c1.1-0.9,1.6-2.2,1.6-3.6
	c0-1.5-0.7-2.7-1.8-3.6l-16.3-9.4h-0.2c-1.3-0.5-2.7-0.5-3.8,0h-0.2l-22,13.4c-0.2,0-0.2,0.2-0.4,0.4
	C226.3,91.5,225.8,92.8,225.8,94.1z M293.6,222l6.2,3.6c0.2,0.2,0.4,0.2,0.5,0.2c0.4,0,0.7-0.2,1.1-0.5c0.4-0.5,0.2-1.3-0.4-1.6
	l-6.2-3.6c-0.5-0.4-1.3-0.2-1.6,0.4C292.9,220.9,293.1,221.6,293.6,222z M424.6,289.1l-60.4,34.7V261l60.6-34.7v62.8H424.6z
	 M216.5,265.5c-1.6-2.4-2-5.3-1.5-8c0.5-2.5,2.2-4.7,4.5-6.2c2.4-1.5,4.9-1.8,7.6-1.1c4.9,1.1,8,5.8,7.6,10.7
	c-2.7,2.9-4.9,6.2-6.5,10c-2.5-2.5-5.8-4.2-9.4-5.1C218.1,265.7,217.2,265.5,216.5,265.5z M309.8,302.7c-1.5,6.3-5.4,11.6-10.9,14.9
	c-5.4,3.3-12,4.4-18.3,2.9l-45-10.3c-0.7-0.2-1.3,0.2-1.5,0.9c-0.2,0.7,0.2,1.3,0.9,1.5l45,10.3c2,0.5,4,0.7,5.8,0.7l3.4,4.9
	c0.7,1.3,1.1,2.7,1.1,4.2c0,4.5-3.6,8.2-8.2,8.2c-0.4,0-0.9,0-1.3-0.2l-157.7-29.8c-0.2-0.2-0.4-0.2-0.7-0.2c-0.5,0-0.9,0-1.5-0.2
	h-0.4c-3.6-0.9-6.5-4.2-6.5-8c0-2.2,0.9-4.4,2.4-5.8l1.1-0.9c0.2-0.2,0.4-0.4,0.5-0.4c0.2-0.2,0.4-0.2,0.4-0.4l41.2-34.3l19.6,13.4
	c1.6,1.1,3.4,1.6,5.3,1.6c0.5,0,1.1,0,1.6-0.2c2.4-0.4,4.5-1.8,6-3.8c1.5-2,2-4.4,1.6-6.9c-0.4-2.4-1.8-4.5-3.8-6L175,248.3
	l31.9-26.5c1.1-0.9,2.4-1.3,3.8-1.3c1.8,0,3.6,0.7,4.7,2.2l23.9,33.9c-0.7,0.5-1.5,1.3-2.2,1.8c-0.5-5.1-4.2-9.4-9.4-10.7
	c-3.3-0.7-6.5-0.2-9.3,1.5c-2.9,1.6-4.7,4.4-5.6,7.6c-0.7,2.9-0.4,5.8,0.9,8.3c-3.6,0-7.4,1.1-10.7,3.1c-4.7,2.9-8.2,7.4-9.4,12.9
	c-2.7,11.2,4.2,22.5,15.4,25.2l4.4,0.9h0.2c0.5,0,1.1-0.4,1.1-0.9c0.2-0.7-0.2-1.3-0.9-1.5l-4.4-0.9c-10-2.4-16.1-12.5-13.6-22.3
	c1.1-4.9,4.2-8.9,8.3-11.4c4.2-2.5,9.3-3.4,14-2.2c3.6,0.9,6.9,2.9,9.4,5.6c0.4,0.4,0.7,0.5,1.1,0.4c0.4-0.2,0.7-0.4,0.9-0.7
	c5.8-15.8,22.3-24.7,38.6-20.7c10.5,2.5,19.1,10.2,23,20.3c0.2,0.4,0.4,0.5,0.7,0.7C305,276.9,312.8,290,309.8,302.7z M147.7,245.4
	c0-1.5,0.4-2.9,1.3-4.2l11.2-16c0,0,0-0.2,0.2-0.2v-0.2v-0.2v-0.2v-0.2v-0.2l-0.2-0.2l-0.2-0.2l-19.2-13.2c0,0,0,0-0.2,0
	c-1.6-0.7-2.2-4.4-0.4-8.2c1.8-3.8,4.7-5.6,6.4-4.9l24.7,17.4c0,0,0.2,0,0.2,0.2l0.2,0.2c1.8,1.5,3.1,3.6,3.1,6
	c0,1.3-0.4,2.5-1.1,3.8l-11.2,16c0,0.2-0.2,0.2-0.2,0.4c0,0,0,0,0,0.2c0,0.4,0.2,0.9,0.5,1.1l26.1,18.3c0,0,0,0,0.2,0
	c1.5,1.1,2.5,2.5,2.7,4.4c0.4,1.8-0.2,3.6-1.1,5.1c-0.9,1.5-2.5,2.5-4.4,2.7c-1.8,0.4-3.6-0.2-5.1-1.1l-30.1-20.7
	C149,249.9,147.7,247.7,147.7,245.4z M134.1,220.5L134.1,220.5c-5.6-2.7-6.3-12.5-2-22.1c2.2-4.7,5.4-8.7,8.9-11.1
	c3.4-2.4,6.7-2.9,9.3-1.6c4,1.8,5.6,7.6,4.4,14.5l-6.9-4.9c0,0,0,0-0.2,0h-0.2c0,0,0,0-0.2,0c-3.1-1.3-7.1,1.5-9.3,6.2
	c-2.2,4.7-1.6,9.4,1.5,11.1l6.5,4.5C141.9,220.7,137.4,222.1,134.1,220.5z M73.4,181.9c-0.4-4.4,0.5-9.3,2.7-14
	c2.2-4.7,5.4-8.7,8.9-11.1c3.4-2.4,6.7-2.9,9.3-1.6l51.2,27.8c-1.8,0.4-3.6,1.1-5.6,2.4c-4,2.7-7.4,6.9-9.8,12.2
	c-3.4,7.4-4,14.9-1.8,20l-50.3-27.2C75.4,188.9,73.7,186,73.4,181.9z M165,241l10.7-15.1c0.9-1.5,1.5-3.3,1.5-5.1c0-0.2,0-0.2,0-0.4
	l16.1,9.3L173,246.6L165,241z M112.5,118.2l77.7,44.4c0.2,0.4,0.5,0.5,0.9,0.5l44.8,25.8v5.6c0,0.7,0.5,1.1,1.1,1.1
	c0.5,0,1.1-0.5,1.1-1.1v-4.2l46.3,26.3c0.2,0.2,0.4,0.2,0.5,0.2c0.4,0,0.7-0.2,1.1-0.5c0.4-0.5,0.2-1.3-0.4-1.6l-47.4-27.2l-0.2-0.2
	c0,0,0,0-0.2-0.2l-45.4-25.9l0-62.8l123.4,70.8v62.8l-9.4-5.4c-0.5-0.4-1.3-0.2-1.6,0.4c-0.4,0.5-0.2,1.3,0.4,1.6l10.9,6.3l0.2,0.2
	c0,0,0.2,0,0.2,0.2l45.2,25.9l0,62.6l-49.2-28.1c-0.5-11.1-8.2-21-19.2-24.1c-4.2-10.5-13.4-18.5-24.5-21.2c-10-2.4-20-0.4-27.9,4.9
	l-23.9-34.1c-1.6-2-4-3.1-6.5-3.1c-1.8,0-3.4,0.5-4.9,1.6h-0.2l-0.4,0.4c-0.2,0-0.2,0.2-0.4,0.2l-9.8,8L176,217.4
	c-0.7-1.8-1.8-3.3-3.3-4.4h-0.2l-0.2-0.2l-15.8-11.2c1.8-8.5-0.4-15.6-5.4-18.1l-38.6-21V118.2z M190.6,95.3L190.6,95.3
	C190.6,95.5,190.6,95.5,190.6,95.3c-0.2,0.2-0.4,0.2-0.4,0.4c0,0,0,0,0,0.2c0,0.2-0.2,0.2-0.2,0.4c0,0,0,0,0,0.2v63.3L113.8,116
	l60.6-34.7L194.7,93L190.6,95.3z M318.1,169.2l60.6-34.7v62.8l-60.6,34.7V169.2z M254.1,61.8l123.4,70.8l-60.6,34.7L193.5,96.4
	L254.1,61.8z M362.9,259l-43.5-25l60.4-34.7l43.7,24.9L362.9,259z M427,224.1c0-0.2,0-0.2,0-0.4c-0.2-0.2-0.2-0.4-0.4-0.5
	l-45.4-25.9v-64.8v-0.2c0-0.2,0-0.2,0-0.4c0,0,0,0,0-0.2c-0.2-0.2-0.2-0.4-0.4-0.5l-125.7-72c-0.5-0.4-1.1-0.2-1.5,0.2l-56.6,32.3
	L175,79c-0.5-0.4-1.1-0.2-1.5,0.2l-62.8,35.9c-0.2,0.2-0.4,0.2-0.4,0.4c0,0,0,0,0,0.2c0,0.2-0.2,0.2-0.2,0.4c0,0,0,0,0,0.2v45
	L95.3,153c-3.4-1.6-7.4-0.9-11.6,1.8c-4,2.7-7.4,6.9-9.8,12.2c-2.4,5.1-3.4,10.5-2.9,15.2c0.5,4.9,2.5,8.3,6,10l56.2,30.5
	c1.3,0.5,2.5,0.9,3.8,0.9c3.4,0,7.4-1.8,11.1-5.4l9.8,6.7l-10.7,15.1c-1.1,1.6-1.6,3.4-1.6,5.4c0,3.1,1.5,6,4,7.8l8.5,5.8
	l-41.7,34.7c-0.4,0.4-0.7,0.5-1.1,0.9c-2,2-3.1,4.7-3.1,7.6c0,4.9,3.4,9.1,8,10.3h0.2c0.2,0,0.5,0.2,0.7,0.2l159.7,30.1h0.2
	c0.5,0,1.1,0.2,1.5,0.2c5.8,0,10.5-4.7,10.5-10.5c0-1.8-0.5-3.6-1.5-5.4l-2.5-3.6c10.9-1.1,20.5-8.9,23.2-20.1
	c0.4-1.6,0.5-3.3,0.7-4.9l49.7,28.5c0.2,0.2,0.4,0.2,0.5,0.2c0.2,0,0.4,0,0.5-0.2l63-36.1c0.4-0.2,0.5-0.5,0.5-1.1v-65.5
	C427,224.1,427,224.1,427,224.1z M237.2,242.1c0.7,0,1.1-0.5,1.1-1.3v-23.2c0-0.7-0.5-1.3-1.1-1.3c-0.5,0-1.1,0.5-1.1,1.3v23.2
	C235.9,241.6,236.5,242.1,237.2,242.1z M237.2,213.3c0.7,0,1.1-0.5,1.1-1.3v-3.1c0-0.7-0.5-1.3-1.1-1.3c-0.5,0-1.1,0.5-1.1,1.3v3.1
	C235.9,212.7,236.5,213.3,237.2,213.3z M250.4,99.9c0,0.7,0.5,1.1,1.1,1.1c0.7,0,1.3-0.5,1.3-1.1V83.7c0-0.7-0.5-1.1-1.3-1.1
	c-0.7,0-1.1,0.5-1.1,1.1V99.9z M288.7,121.6c0.7,0,1.3-0.5,1.3-1.1v-18.9c0-0.7-0.5-1.1-1.3-1.1c-0.7,0-1.3,0.5-1.3,1.1v18.7
	C287.6,121.1,288.2,121.6,288.7,121.6z M324.8,144.5c0.7,0,1.3-0.5,1.3-1.1v-18.9c0-0.7-0.5-1.1-1.3-1.1c-0.7,0-1.3,0.5-1.3,1.1
	v18.7C323.7,144,324.3,144.5,324.8,144.5z M227.8,308.3l-2-0.4c-0.5-0.2-1.3,0.2-1.5,0.9c-0.2,0.7,0.2,1.3,0.9,1.5l2,0.4h0.2
	c0.5,0,1.1-0.4,1.1-0.9C228.8,309.2,228.3,308.5,227.8,308.3z"/>
<polygon class="st0" points="36,4.8 6,4.8 69.5,60.7 66.9,63.6 2.8,7.1 2.8,38 -1,38 -1,1 36,1 "/>
<polygon class="st0" points="462,5.1 492,5.1 428.5,61 431.1,63.9 495.2,7.4 495.2,38.2 499,38.2 499,1.2 462,1.2 "/>
<polygon class="st0" points="36.3,397.2 6.3,397.2 69.8,341.3 67.3,338.4 3.2,394.9 3.2,364 -0.7,364 -0.7,401 36.3,401 "/>
<polygon class="st0" points="462,397.2 492,397.2 428.5,341.3 431.1,338.4 495.2,394.9 495.2,364 499,364 499,401 462,401 "/>
</svg>
