<?xml version="1.0" encoding="utf-8"?>
<!-- Generator: Adobe Illustrator 27.9.0, SVG Export Plug-In . SVG Version: 6.00 Build 0)  -->
<svg version="1.1" id="Layer_1" xmlns="http://www.w3.org/2000/svg" xmlns:xlink="http://www.w3.org/1999/xlink" x="0px" y="0px"
	 viewBox="0 0 500 400" style="enable-background:new 0 0 500 400;" xml:space="preserve">
<style type="text/css">
	.st0{fill:#000;}
</style>
<path class="st0" d="M308.5,228.5l-9.3,4.5v-22.9l9.3-4.5L308.5,228.5z M308.5,257.7l-6.9,3.3l-2.4-14.8v-7l9.3-4.5L308.5,257.7z
	 M308.5,269.3l-3.3-1.6l0,0c-0.6-0.3-1.1-0.8-1.6-1.4l4.9-2.4L308.5,269.3z M257.7,307.2V253l0,0c0.9-0.7,1.9-1.3,2.8-1.7
	c1.2-0.6,2.3,0.6,2.4,2.9c0.2,1.4,0.3,2.9,0.5,4.4l0,0c0.4,5.1,1.6,9.5,3.5,12.5c1.9,3.1,4.3,4.7,7,4.8c0.7,0.1,1.4,0.1,2.2,0.1
	c0.7,0,1.5,0,2.2,0.2v0c0.7,0.1,1.3,0.4,1.9,0.8c0.6,0.2,1,1.3,0.9,2.6c-0.1,1.3-0.1,2.6-0.1,3.9l0,2v0c-0.3,4.9,1.1,8.8,3.4,9.6
	c2,0.6,4.1,0.9,6.2,0.8c1.4,0,2.9-0.1,4.3-0.3c1.4-0.1,2.9-0.3,4.3-0.3v0c1,0.1,2,0.5,2.9,1.1c0.6,0.4,1.1,1.1,1.4,2.1l-38.7,18.7
	C260.9,319.1,257.7,314.6,257.7,307.2L257.7,307.2z M283.6,217.6v13.7c-1-1.3-1.7-3.2-2-5.5l-0.9-6.7L283.6,217.6z M296,211.6v22.9
	l-1.2,0.6c-0.8-0.7-1.7-1.1-2.7-1.3l-5.4-0.7v-17.1L296,211.6z M157.3,273.4l-33.1-21.8l0.2-25.2l32.9,21.7L157.3,273.4z
	 M161.4,241.4l-33.4-22l61.3-33.7l0.1-0.1l7-3.9l36.3,21.4L161.4,241.4z M165.1,273.7v-25.4l71.7-38.4V234L165.1,273.7z
	 M249.2,321.8l-57.8-28.2V268l51.1-28.3c0.1-0.1,0.2-0.1,0.3-0.2c1-0.6,1.6-1.7,1.7-2.8c0-0.2,0-0.3,0-0.5v-32.9v-0.2
	c0-0.9-0.4-1.7-0.9-2.4c-0.1-0.2-0.3-0.3-0.5-0.5c-0.2-0.2-0.4-0.3-0.6-0.4l-44.1-26c-1.2-0.7-2.7-0.7-3.9-0.1l-3.3,1.8v-27.7
	l57.8,28.2L249.2,321.8z M314.4,283.3v2.3c-0.3,4.4-2.2,8.7-4.5,9.8l-3,1.5c-0.4-3.3-1.6-5.7-3.2-6.6c-1.1-0.8-2.4-1.3-3.7-1.4
	c-1.5,0-3,0.1-4.5,0.3c-1.4,0.1-2.8,0.3-4.2,0.3c-1.9,0.1-3.8-0.1-5.6-0.7c-1.1-0.4-1.7-2.3-1.5-4.6l0-2.1c0-1.2,0-2.3,0.1-3.5l0,0
	c0.2-3.7-0.8-6.8-2.4-7.7c-0.8-0.6-1.7-1-2.6-1.1c-0.8-0.1-1.6-0.1-2.4-0.2c-0.7,0-1.4,0-2-0.1l0,0c-2.1,0-4.1-1.2-5.6-3.7
	c-1.5-2.4-2.5-5.9-2.8-9.9c-0.1-1.5-0.3-3.1-0.5-4.6c-0.4-4.8-2.7-7.5-5.4-6.3c-1,0.4-2,1-3,1.8v-26c0-5.1,2.2-10.3,4.8-11.6
	l8.5-4.1c2.2-1.1,4.1,0.9,4.7,4.7l2.6,18.9c0.8,6.2,3.4,10.2,6.8,10.6l6.1,0.8c2.2,0.3,3.9,2.9,4.6,6.9l0.3,2c0,0.2,0,0.3,0.1,0.5
	l2.3,14.7c0.8,4.9,2.7,8.4,5.2,9.6l8.2,3.9C313.3,278.4,314.2,280.5,314.4,283.3z M362.3,164.2l-40,22.2v-24.8l40-21.5V164.2z
	 M159.1,157.5c-1-1.9-0.4-4.3,1.5-5.3c0,0,0,0,0,0l6.8-3.8c1.9-1,4.3-0.3,5.3,1.6c1,1.9,0.3,4.2-1.5,5.2l-6.8,3.8
	C162.5,160,160.1,159.4,159.1,157.5C159.1,157.5,159.1,157.5,159.1,157.5z M131.8,172.7c-1-1.9-0.4-4.3,1.5-5.3l6.8-3.8
	c1.9-0.9,4.3-0.1,5.2,1.8c0.9,1.8,0.2,3.9-1.4,5l-6.8,3.8C135.2,175.2,132.8,174.6,131.8,172.7L131.8,172.7z M317.4,68.7
	c-1.1-1.9-0.4-4.3,1.5-5.3l6.8-3.9c1.9-1.1,4.3-0.4,5.3,1.5c1.1,1.9,0.4,4.3-1.5,5.3l-6.8,3.9C320.9,71.3,318.5,70.6,317.4,68.7
	L317.4,68.7L317.4,68.7z M107.8,189.9c-2.2,0-3.9-1.7-3.9-3.9c0-1.4,0.8-2.7,2-3.4l6.8-3.8c1.9-1,4.3-0.3,5.3,1.6
	c1,1.9,0.3,4.2-1.5,5.2l-6.8,3.8C109.2,189.7,108.5,189.9,107.8,189.9z M290.3,84.2c-1.1-1.9-0.4-4.3,1.5-5.3l6.8-3.9
	c1.9-1,4.3-0.3,5.3,1.6c1,1.8,0.4,4.2-1.4,5.2l-6.8,3.9C293.7,86.7,291.3,86.1,290.3,84.2C290.3,84.2,290.3,84.2,290.3,84.2
	L290.3,84.2z M263.1,99.7c-1.1-1.9-0.4-4.3,1.5-5.3l6.8-3.9c1.9-1.1,4.3-0.5,5.4,1.4c1.1,1.9,0.5,4.3-1.4,5.4c0,0-0.1,0-0.1,0.1
	l-6.8,3.9C266.5,102.2,264.2,101.5,263.1,99.7C263.1,99.7,263.1,99.7,263.1,99.7L263.1,99.7z M366.2,197.1c1.1,1.9,0.4,4.3-1.5,5.3
	l-6.8,3.8c-1.9,1.1-4.3,0.4-5.3-1.5c-1.1-1.9-0.4-4.3,1.5-5.3c0,0,0,0,0,0l6.8-3.8C362.7,194.6,365.1,195.2,366.2,197.1
	C366.2,197.1,366.2,197.1,366.2,197.1z M338.8,212.4c1.1,1.9,0.4,4.3-1.5,5.3l-5.4,3c-1.9,1.1-4.3,0.4-5.3-1.5
	c-1.1-1.9-0.4-4.3,1.5-5.3l5.4-3C335.4,209.8,337.8,210.5,338.8,212.4z M391.9,187.2l-6.8,3.8c-1.9,1.1-4.3,0.4-5.3-1.5
	c-1.1-1.9-0.4-4.3,1.5-5.3l6.8-3.8c1.9-1.1,4.3-0.5,5.4,1.4c1.1,1.9,0.5,4.3-1.4,5.4C392.1,187.1,392,187.2,391.9,187.2L391.9,187.2
	z M120.3,333.4c1,1.9,0.3,4.3-1.5,5.3l-6.9,3.8c-1.9,1-4.3,0.3-5.3-1.5c-1-1.9-0.3-4.3,1.5-5.3l6.9-3.8
	C116.9,330.8,119.3,331.5,120.3,333.4z M175.2,303.3c1,1.9,0.3,4.3-1.5,5.3l-6.9,3.8c-1.9,1.1-4.3,0.4-5.3-1.5
	c-1.1-1.9-0.4-4.3,1.5-5.3c0,0,0.1,0,0.1-0.1l6.9-3.8C171.7,300.7,174.1,301.4,175.2,303.3z M314.4,225.7l-2.7,1.3V204l2.7-1.3
	V225.7z M314.4,254.8l-2.7,1.3v-23l2.7-1.3V254.8z M314.4,272.3c-0.3-0.3-0.7-0.5-1-0.7l-1.7-0.8v-8.5l2.7-1.3V272.3z M257.1,320.5
	c0.1,0.2,0.3,0.5,0.5,0.7c0,0.1,0.1,0.1,0.1,0.2l-0.6,0.3V320.5z M283.6,162.9v48.5l-3.8,1.8l-0.9-6.4v0c-0.9-6.4-4.1-9.7-7.8-7.9
	l-8.5,4.1c-2.1,1-4.1,3.6-5.5,6.9v-34.1L283.6,162.9z M283.6,129v25.2l-30.6,14.9l-56.5-27.5l56.5-27.5L283.6,129z M296,156.8v48.6
	l-9.3,4.5v-48.6L296,156.8z M296,135.1v13l-9.3,4.5v-22.1L296,135.1z M296,126.2v0.2l-0.2-0.1L296,126.2z M308.5,150.8v48.6
	l-9.3,4.5v-48.6L308.5,150.8z M308.5,141.2v0.9l-9.3,4.5v-9.9L308.5,141.2z M308.5,119.4v13.1l-9.3-4.5v-3.5L308.5,119.4z
	 M311.7,108.7V87.5c0-1.7-0.7-2.7-1.6-2.3c-0.9,0.4-1.6,2.2-1.6,3.9v21.4l-9.3,5.1v-22c0-1.7-0.7-2.7-1.6-2.3
	c-0.9,0.4-1.6,2.2-1.6,3.9v22.2l-8.8,4.8l-0.5-0.2V99.5c0-1.7-0.7-2.7-1.6-2.3c-0.9,0.4-1.6,2.2-1.6,3.9v19.3l-28.9-14.1
	c-1.1-0.5-2.3-0.5-3.4,0l-65.3,31.8c-0.3,0.1-0.6,0.3-0.8,0.5c-0.2,0.2-0.4,0.3-0.5,0.5c-0.6,0.7-0.9,1.6-0.9,2.5v38.3l-64.9,35.7
	c-0.4,0.2-0.8,0.5-1.2,0.9c-0.6,0.7-0.9,1.5-0.9,2.4v0.1l-0.2,34.5v0.4c0,0.5,0.2,1,0.4,1.5c0.3,0.6,0.7,1,1.2,1.4
	c0.1,0,0.1,0.1,0.2,0.1l40.7,26.8c0.7,0.4,1.5,0.7,2.3,0.6c1,0,2-0.4,2.8-1.1l19.7-10.9v23.7c0,0.2,0,0.4,0,0.6
	c0.1,0.6,0.3,1.1,0.6,1.6c0.3,0.5,0.7,0.9,1.2,1.2c0.2,0.1,0.3,0.2,0.5,0.3l65.3,31.8c0.6,0.3,1.2,0.4,1.8,0.4h0.1
	c0.9,0,1.7-0.3,2.4-0.9l64.4-31.4c0.2-0.1,0.4-0.2,0.5-0.3c1.1-0.7,1.8-2,1.8-3.3V195.3l45.8-25.4c0.1-0.1,0.3-0.2,0.4-0.3
	c0.9-0.6,1.5-1.7,1.6-2.8c0-0.2,0-0.3,0-0.5v-32.9c0-0.9-0.3-1.8-0.9-2.5c-0.1-0.2-0.3-0.3-0.4-0.4c-0.2-0.2-0.4-0.3-0.6-0.4
	l-44.1-26c-1.2-0.7-2.7-0.7-3.9-0.1L311.7,108.7z M311.7,134.1v-16.5L322,112l36.3,21.4l-36,19.3v-11.1v0v0c0-0.9-0.3-1.8-0.9-2.5
	c-0.2-0.2-0.3-0.4-0.5-0.5c-0.2-0.2-0.5-0.4-0.8-0.5L311.7,134.1z M314.4,196.5l-2.7,1.3v-48.7l2.7-1.3v11.2V196.5z M147.8,318.4
	c1,1.9,0.3,4.3-1.5,5.3l-6.9,3.8c-1.9,1-4.3,0.3-5.3-1.6c-1-1.9-0.3-4.2,1.5-5.2l6.9-3.8C144.3,315.8,146.7,316.5,147.8,318.4
	L147.8,318.4z"/>
<polygon class="st0" points="36,4.8 6,4.8 69.5,60.7 66.9,63.6 2.8,7.1 2.8,38 -1,38 -1,1 36,1 "/>
<polygon class="st0" points="462,5.1 492,5.1 428.5,61 431.1,63.9 495.2,7.4 495.2,38.2 499,38.2 499,1.2 462,1.2 "/>
<polygon class="st0" points="36.3,397.2 6.3,397.2 69.8,341.3 67.3,338.4 3.2,394.9 3.2,364 -0.7,364 -0.7,401 36.3,401 "/>
<polygon class="st0" points="462,397.2 492,397.2 428.5,341.3 431.1,338.4 495.2,394.9 495.2,364 499,364 499,401 462,401 "/>
</svg>
