<?xml version="1.0" encoding="utf-8"?>
<!-- Generator: Adobe Illustrator 27.9.0, SVG Export Plug-In . SVG Version: 6.00 Build 0)  -->
<svg version="1.1" id="Layer_1" xmlns="http://www.w3.org/2000/svg" xmlns:xlink="http://www.w3.org/1999/xlink" x="0px" y="0px"
	 viewBox="0 0 5600 4200" style="enable-background:new 0 0 5600 4200;" xml:space="preserve">
<style type="text/css">
	.st0{fill:rgba(130,130,130,0.2);}
	/* .st1{fill:rgba(217,217,217,0.5);} */
	.st1{fill:rgba(255,255,255,0.5);}
</style>
	<defs>
    <filter id="displacementFilter">
      <feTurbulence baseFrequency="0.0005" numOctaves="1" />
      <feDisplacementMap in="SourceGraphic" scale="50" />
    </filter>
    <filter id="displacementFilter2">
      <feTurbulence baseFrequency="0.05" numOctaves="1" />
      <feDisplacementMap in="SourceGraphic" scale="50" />
    </filter>
  </defs>

<path filter="url(#displacementFilter5)" class="st0" d="M5252.7,3854.7v166.7h166.7v-166.7H5252.7z M5077.7,3854.7v166.7h166.7v-166.7H5077.7z M4902.7,3854.7v166.7
	h166.7v-166.7H4902.7z M4727.7,3854.7v166.7h166.7v-166.7H4727.7z M4552.7,3854.7v166.7h166.7v-166.7H4552.7z M4377.7,3854.7v166.7
	h166.7v-166.7H4377.7z M4202.7,3854.7v166.7h166.7v-166.7H4202.7z M4027.7,3854.7v166.7h166.7v-166.7H4027.7z M3852.7,3854.7v166.7
	h166.7v-166.7H3852.7z M3677.7,3854.7v166.7h166.7v-166.7H3677.7z M3502.7,3854.7v166.7h166.7v-166.7H3502.7z M3327.7,3854.7v166.7
	h166.7v-166.7H3327.7z M3152.7,3854.7v166.7h166.7v-166.7H3152.7z M2977.7,3854.7v166.7h166.7v-166.7H2977.7z M2802.7,3854.7v166.7
	h166.7v-166.7H2802.7z M2627.7,3854.7v166.7h166.7v-166.7H2627.7z M2452.7,3854.7v166.7h166.7v-166.7H2452.7z M2277.7,3854.7v166.7
	h166.7v-166.7H2277.7z M2102.7,3854.7v166.7h166.7v-166.7H2102.7z M1927.7,3854.7v166.7h166.7v-166.7H1927.7z M1752.7,3854.7v166.7
	h166.7v-166.7H1752.7z M1577.7,3854.7v166.7h166.7v-166.7H1577.7z M1402.7,3854.7v166.7h166.7v-166.7H1402.7z M1227.7,3854.7v166.7
	h166.7v-166.7H1227.7z M1052.7,3854.7v166.7h166.7v-166.7H1052.7z M877.7,3854.7v166.7h166.7v-166.7H877.7z M702.7,3854.7v166.7
	h166.7v-166.7H702.7z M527.7,3854.7v166.7h166.7v-166.7H527.7z M352.7,3854.7v166.7h166.7v-166.7H352.7z M177.7,3854.7v166.7h166.7
	v-166.7H177.7z M5252.7,3679.7v166.7h166.7v-166.7H5252.7z M5077.7,3679.7v166.7h166.7v-166.7H5077.7z M4902.7,3679.7v166.7h166.7
	v-166.7H4902.7z M4727.7,3679.7v166.7h166.7v-166.7H4727.7z M4552.7,3679.7v166.7h166.7v-166.7H4552.7z M4377.7,3679.7v166.7h166.7
	v-166.7H4377.7z M4202.7,3679.7v166.7h166.7v-166.7H4202.7z M4027.7,3679.7v166.7h166.7v-166.7H4027.7z M3852.7,3679.7v166.7h166.7
	v-166.7H3852.7z M3677.7,3679.7v166.7h166.7v-166.7H3677.7z M3502.7,3679.7v166.7h166.7v-166.7H3502.7z M3327.7,3679.7v166.7h166.7
	v-166.7H3327.7z M3152.7,3679.7v166.7h166.7v-166.7H3152.7z M2977.7,3679.7v166.7h166.7v-166.7H2977.7z M2802.7,3679.7v166.7h166.7
	v-166.7H2802.7z M2627.7,3679.7v166.7h166.7v-166.7H2627.7z M2452.7,3679.7v166.7h166.7v-166.7H2452.7z M2277.7,3679.7v166.7h166.7
	v-166.7H2277.7z M2102.7,3679.7v166.7h166.7v-166.7H2102.7z M1927.7,3679.7v166.7h166.7v-166.7H1927.7z M1752.7,3679.7v166.7h166.7
	v-166.7H1752.7z M1577.7,3679.7v166.7h166.7v-166.7H1577.7z M1402.7,3679.7v166.7h166.7v-166.7H1402.7z M1227.7,3679.7v166.7h166.7
	v-166.7H1227.7z M1052.7,3679.7v166.7h166.7v-166.7H1052.7z M877.7,3679.7v166.7h166.7v-166.7H877.7z M702.7,3679.7v166.7h166.7
	v-166.7H702.7z M527.7,3679.7v166.7h166.7v-166.7H527.7z M352.7,3679.7v166.7h166.7v-166.7H352.7z M177.7,3679.7v166.7h166.7v-166.7
	H177.7z M5252.7,3504.7v166.7h166.7v-166.7H5252.7z M5077.7,3504.7v166.7h166.7v-166.7H5077.7z M4902.7,3504.7v166.7h166.7v-166.7
	H4902.7z M4727.7,3504.7v166.7h166.7v-166.7H4727.7z M4552.7,3504.7v166.7h166.7v-166.7H4552.7z M4377.7,3504.7v166.7h166.7v-166.7
	H4377.7z M4202.7,3504.7v166.7h166.7v-166.7H4202.7z M4027.7,3504.7v166.7h166.7v-166.7H4027.7z M3852.7,3504.7v166.7h166.7v-166.7
	H3852.7z M3677.7,3504.7v166.7h166.7v-166.7H3677.7z M3502.7,3504.7v166.7h166.7v-166.7H3502.7z M3327.7,3504.7v166.7h166.7v-166.7
	H3327.7z M3152.7,3504.7v166.7h166.7v-166.7H3152.7z M2977.7,3504.7v166.7h166.7v-166.7H2977.7z M2802.7,3504.7v166.7h166.7v-166.7
	H2802.7z M2627.7,3504.7v166.7h166.7v-166.7H2627.7z M2452.7,3504.7v166.7h166.7v-166.7H2452.7z M2277.7,3504.7v166.7h166.7v-166.7
	H2277.7z M2102.7,3504.7v166.7h166.7v-166.7H2102.7z M1927.7,3504.7v166.7h166.7v-166.7H1927.7z M1752.7,3504.7v166.7h166.7v-166.7
	H1752.7z M1577.7,3504.7v166.7h166.7v-166.7H1577.7z M1402.7,3504.7v166.7h166.7v-166.7H1402.7z M1227.7,3504.7v166.7h166.7v-166.7
	H1227.7z M1052.7,3504.7v166.7h166.7v-166.7H1052.7z M877.7,3504.7v166.7h166.7v-166.7H877.7z M702.7,3504.7v166.7h166.7v-166.7
	H702.7z M527.7,3504.7v166.7h166.7v-166.7H527.7z M352.7,3504.7v166.7h166.7v-166.7H352.7z M177.7,3504.7v166.7h166.7v-166.7H177.7z
	 M5252.7,3329.7v166.7h166.7v-166.7H5252.7z M5077.7,3329.7v166.7h166.7v-166.7H5077.7z M4902.7,3329.7v166.7h166.7v-166.7H4902.7z
	 M4727.7,3329.7v166.7h166.7v-166.7H4727.7z M4552.7,3329.7v166.7h166.7v-166.7H4552.7z M4377.7,3329.7v166.7h166.7v-166.7H4377.7z
	 M4202.7,3329.7v166.7h166.7v-166.7H4202.7z M4027.7,3329.7v166.7h166.7v-166.7H4027.7z M3852.7,3329.7v166.7h166.7v-166.7H3852.7z
	 M3677.7,3329.7v166.7h166.7v-166.7H3677.7z M3502.7,3329.7v166.7h166.7v-166.7H3502.7z M3327.7,3329.7v166.7h166.7v-166.7H3327.7z
	 M3152.7,3329.7v166.7h166.7v-166.7H3152.7z M2977.7,3329.7v166.7h166.7v-166.7H2977.7z M2802.7,3329.7v166.7h166.7v-166.7H2802.7z
	 M2627.7,3329.7v166.7h166.7v-166.7H2627.7z M2452.7,3329.7v166.7h166.7v-166.7H2452.7z M2277.7,3329.7v166.7h166.7v-166.7H2277.7z
	 M2102.7,3329.7v166.7h166.7v-166.7H2102.7z M1927.7,3329.7v166.7h166.7v-166.7H1927.7z M1752.7,3329.7v166.7h166.7v-166.7H1752.7z
	 M1577.7,3329.7v166.7h166.7v-166.7H1577.7z M1402.7,3329.7v166.7h166.7v-166.7H1402.7z M1227.7,3329.7v166.7h166.7v-166.7H1227.7z
	 M1052.7,3329.7v166.7h166.7v-166.7H1052.7z M877.7,3329.7v166.7h166.7v-166.7H877.7z M702.7,3329.7v166.7h166.7v-166.7H702.7z
	 M527.7,3329.7v166.7h166.7v-166.7H527.7z M352.7,3329.7v166.7h166.7v-166.7H352.7z M177.7,3329.7v166.7h166.7v-166.7H177.7z
	 M5252.7,3154.7v166.7h166.7v-166.7H5252.7z M5077.7,3154.7v166.7h166.7v-166.7H5077.7z M4902.7,3154.7v166.7h166.7v-166.7H4902.7z
	 M4727.7,3154.7v166.7h166.7v-166.7H4727.7z M4552.7,3154.7v166.7h166.7v-166.7H4552.7z M4377.7,3154.7v166.7h166.7v-166.7H4377.7z
	 M4202.7,3154.7v166.7h166.7v-166.7H4202.7z M4027.7,3154.7v166.7h166.7v-166.7H4027.7z M3852.7,3154.7v166.7h166.7v-166.7H3852.7z
	 M3677.7,3154.7v166.7h166.7v-166.7H3677.7z M3502.7,3154.7v166.7h166.7v-166.7H3502.7z M3327.7,3154.7v166.7h166.7v-166.7H3327.7z
	 M3152.7,3154.7v166.7h166.7v-166.7H3152.7z M2977.7,3154.7v166.7h166.7v-166.7H2977.7z M2802.7,3154.7v166.7h166.7v-166.7H2802.7z
	 M2627.7,3154.7v166.7h166.7v-166.7H2627.7z M2452.7,3154.7v166.7h166.7v-166.7H2452.7z M2277.7,3154.7v166.7h166.7v-166.7H2277.7z
	 M2102.7,3154.7v166.7h166.7v-166.7H2102.7z M1927.7,3154.7v166.7h166.7v-166.7H1927.7z M1752.7,3154.7v166.7h166.7v-166.7H1752.7z
	 M1577.7,3154.7v166.7h166.7v-166.7H1577.7z M1402.7,3154.7v166.7h166.7v-166.7H1402.7z M1227.7,3154.7v166.7h166.7v-166.7H1227.7z
	 M1052.7,3154.7v166.7h166.7v-166.7H1052.7z M877.7,3154.7v166.7h166.7v-166.7H877.7z M702.7,3154.7v166.7h166.7v-166.7H702.7z
	 M527.7,3154.7v166.7h166.7v-166.7H527.7z M352.7,3154.7v166.7h166.7v-166.7H352.7z M177.7,3154.7v166.7h166.7v-166.7H177.7z
	 M5252.7,2979.7v166.7h166.7v-166.7H5252.7z M5077.7,2979.7v166.7h166.7v-166.7H5077.7z M4902.7,2979.7v166.7h166.7v-166.7H4902.7z
	 M4727.7,2979.7v166.7h166.7v-166.7H4727.7z M4552.7,2979.7v166.7h166.7v-166.7H4552.7z M4377.7,2979.7v166.7h166.7v-166.7H4377.7z
	 M4202.7,2979.7v166.7h166.7v-166.7H4202.7z M4027.7,2979.7v166.7h166.7v-166.7H4027.7z M3852.7,2979.7v166.7h166.7v-166.7H3852.7z
	 M3677.7,2979.7v166.7h166.7v-166.7H3677.7z M3502.7,2979.7v166.7h166.7v-166.7H3502.7z M3327.7,2979.7v166.7h166.7v-166.7H3327.7z
	 M3152.7,2979.7v166.7h166.7v-166.7H3152.7z M2977.7,2979.7v166.7h166.7v-166.7H2977.7z M2802.7,2979.7v166.7h166.7v-166.7H2802.7z
	 M2627.7,2979.7v166.7h166.7v-166.7H2627.7z M2452.7,2979.7v166.7h166.7v-166.7H2452.7z M2277.7,2979.7v166.7h166.7v-166.7H2277.7z
	 M2102.7,2979.7v166.7h166.7v-166.7H2102.7z M1927.7,2979.7v166.7h166.7v-166.7H1927.7z M1752.7,2979.7v166.7h166.7v-166.7H1752.7z
	 M1577.7,2979.7v166.7h166.7v-166.7H1577.7z M1402.7,2979.7v166.7h166.7v-166.7H1402.7z M1227.7,2979.7v166.7h166.7v-166.7H1227.7z
	 M1052.7,2979.7v166.7h166.7v-166.7H1052.7z M877.7,2979.7v166.7h166.7v-166.7H877.7z M702.7,2979.7v166.7h166.7v-166.7H702.7z
	 M527.7,2979.7v166.7h166.7v-166.7H527.7z M352.7,2979.7v166.7h166.7v-166.7H352.7z M177.7,2979.7v166.7h166.7v-166.7H177.7z
	 M5252.7,2804.7v166.7h166.7v-166.7H5252.7z M5077.7,2804.7v166.7h166.7v-166.7H5077.7z M4902.7,2804.7v166.7h166.7v-166.7H4902.7z
	 M4727.7,2804.7v166.7h166.7v-166.7H4727.7z M4552.7,2804.7v166.7h166.7v-166.7H4552.7z M4377.7,2804.7v166.7h166.7v-166.7H4377.7z
	 M4202.7,2804.7v166.7h166.7v-166.7H4202.7z M4027.7,2804.7v166.7h166.7v-166.7H4027.7z M3852.7,2804.7v166.7h166.7v-166.7H3852.7z
	 M3677.7,2804.7v166.7h166.7v-166.7H3677.7z M3502.7,2804.7v166.7h166.7v-166.7H3502.7z M3327.7,2804.7v166.7h166.7v-166.7H3327.7z
	 M3152.7,2804.7v166.7h166.7v-166.7H3152.7z M2977.7,2804.7v166.7h166.7v-166.7H2977.7z M2802.7,2804.7v166.7h166.7v-166.7H2802.7z
	 M2627.7,2804.7v166.7h166.7v-166.7H2627.7z M2452.7,2804.7v166.7h166.7v-166.7H2452.7z M2277.7,2804.7v166.7h166.7v-166.7H2277.7z
	 M2102.7,2804.7v166.7h166.7v-166.7H2102.7z M1927.7,2804.7v166.7h166.7v-166.7H1927.7z M1752.7,2804.7v166.7h166.7v-166.7H1752.7z
	 M1577.7,2804.7v166.7h166.7v-166.7H1577.7z M1402.7,2804.7v166.7h166.7v-166.7H1402.7z M1227.7,2804.7v166.7h166.7v-166.7H1227.7z
	 M1052.7,2804.7v166.7h166.7v-166.7H1052.7z M877.7,2804.7v166.7h166.7v-166.7H877.7z M702.7,2804.7v166.7h166.7v-166.7H702.7z
	 M527.7,2804.7v166.7h166.7v-166.7H527.7z M352.7,2804.7v166.7h166.7v-166.7H352.7z M177.7,2804.7v166.7h166.7v-166.7H177.7z
	 M5252.7,2629.7v166.7h166.7v-166.7H5252.7z M5077.7,2629.7v166.7h166.7v-166.7H5077.7z M4902.7,2629.7v166.7h166.7v-166.7H4902.7z
	 M4727.7,2629.7v166.7h166.7v-166.7H4727.7z M4552.7,2629.7v166.7h166.7v-166.7H4552.7z M4377.7,2629.7v166.7h166.7v-166.7H4377.7z
	 M4202.7,2629.7v166.7h166.7v-166.7H4202.7z M4027.7,2629.7v166.7h166.7v-166.7H4027.7z M3852.7,2629.7v166.7h166.7v-166.7H3852.7z
	 M3677.7,2629.7v166.7h166.7v-166.7H3677.7z M3502.7,2629.7v166.7h166.7v-166.7H3502.7z M3327.7,2629.7v166.7h166.7v-166.7H3327.7z
	 M3152.7,2629.7v166.7h166.7v-166.7H3152.7z M2977.7,2629.7v166.7h166.7v-166.7H2977.7z M2802.7,2629.7v166.7h166.7v-166.7H2802.7z
	 M2627.7,2629.7v166.7h166.7v-166.7H2627.7z M2452.7,2629.7v166.7h166.7v-166.7H2452.7z M2277.7,2629.7v166.7h166.7v-166.7H2277.7z
	 M2102.7,2629.7v166.7h166.7v-166.7H2102.7z M1927.7,2629.7v166.7h166.7v-166.7H1927.7z M1752.7,2629.7v166.7h166.7v-166.7H1752.7z
	 M1577.7,2629.7v166.7h166.7v-166.7H1577.7z M1402.7,2629.7v166.7h166.7v-166.7H1402.7z M1227.7,2629.7v166.7h166.7v-166.7H1227.7z
	 M1052.7,2629.7v166.7h166.7v-166.7H1052.7z M877.7,2629.7v166.7h166.7v-166.7H877.7z M702.7,2629.7v166.7h166.7v-166.7H702.7z
	 M527.7,2629.7v166.7h166.7v-166.7H527.7z M352.7,2629.7v166.7h166.7v-166.7H352.7z M177.7,2629.7v166.7h166.7v-166.7H177.7z
	 M5252.7,2454.7v166.7h166.7v-166.7H5252.7z M5077.7,2454.7v166.7h166.7v-166.7H5077.7z M4902.7,2454.7v166.7h166.7v-166.7H4902.7z
	 M4727.7,2454.7v166.7h166.7v-166.7H4727.7z M4552.7,2454.7v166.7h166.7v-166.7H4552.7z M4377.7,2454.7v166.7h166.7v-166.7H4377.7z
	 M4202.7,2454.7v166.7h166.7v-166.7H4202.7z M4027.7,2454.7v166.7h166.7v-166.7H4027.7z M3852.7,2454.7v166.7h166.7v-166.7H3852.7z
	 M3677.7,2454.7v166.7h166.7v-166.7H3677.7z M3502.7,2454.7v166.7h166.7v-166.7H3502.7z M3327.7,2454.7v166.7h166.7v-166.7H3327.7z
	 M3152.7,2454.7v166.7h166.7v-166.7H3152.7z M2977.7,2454.7v166.7h166.7v-166.7H2977.7z M2802.7,2454.7v166.7h166.7v-166.7H2802.7z
	 M2627.7,2454.7v166.7h166.7v-166.7H2627.7z M2452.7,2454.7v166.7h166.7v-166.7H2452.7z M2277.7,2454.7v166.7h166.7v-166.7H2277.7z
	 M2102.7,2454.7v166.7h166.7v-166.7H2102.7z M1927.7,2454.7v166.7h166.7v-166.7H1927.7z M1752.7,2454.7v166.7h166.7v-166.7H1752.7z
	 M1577.7,2454.7v166.7h166.7v-166.7H1577.7z M1402.7,2454.7v166.7h166.7v-166.7H1402.7z M1227.7,2454.7v166.7h166.7v-166.7H1227.7z
	 M1052.7,2454.7v166.7h166.7v-166.7H1052.7z M877.7,2454.7v166.7h166.7v-166.7H877.7z M702.7,2454.7v166.7h166.7v-166.7H702.7z
	 M527.7,2454.7v166.7h166.7v-166.7H527.7z M352.7,2454.7v166.7h166.7v-166.7H352.7z M177.7,2454.7v166.7h166.7v-166.7H177.7z
	 M5252.7,2279.7v166.7h166.7v-166.7H5252.7z M5077.7,2279.7v166.7h166.7v-166.7H5077.7z M4902.7,2279.7v166.7h166.7v-166.7H4902.7z
	 M4727.7,2279.7v166.7h166.7v-166.7H4727.7z M4552.7,2279.7v166.7h166.7v-166.7H4552.7z M4377.7,2279.7v166.7h166.7v-166.7H4377.7z
	 M4202.7,2279.7v166.7h166.7v-166.7H4202.7z M4027.7,2279.7v166.7h166.7v-166.7H4027.7z M3852.7,2279.7v166.7h166.7v-166.7H3852.7z
	 M3677.7,2279.7v166.7h166.7v-166.7H3677.7z M3502.7,2279.7v166.7h166.7v-166.7H3502.7z M3327.7,2279.7v166.7h166.7v-166.7H3327.7z
	 M3152.7,2279.7v166.7h166.7v-166.7H3152.7z M2977.7,2279.7v166.7h166.7v-166.7H2977.7z M2802.7,2279.7v166.7h166.7v-166.7H2802.7z
	 M2627.7,2279.7v166.7h166.7v-166.7H2627.7z M2452.7,2279.7v166.7h166.7v-166.7H2452.7z M2277.7,2279.7v166.7h166.7v-166.7H2277.7z
	 M2102.7,2279.7v166.7h166.7v-166.7H2102.7z M1927.7,2279.7v166.7h166.7v-166.7H1927.7z M1752.7,2279.7v166.7h166.7v-166.7H1752.7z
	 M1577.7,2279.7v166.7h166.7v-166.7H1577.7z M1402.7,2279.7v166.7h166.7v-166.7H1402.7z M1227.7,2279.7v166.7h166.7v-166.7H1227.7z
	 M1052.7,2279.7v166.7h166.7v-166.7H1052.7z M877.7,2279.7v166.7h166.7v-166.7H877.7z M702.7,2279.7v166.7h166.7v-166.7H702.7z
	 M527.7,2279.7v166.7h166.7v-166.7H527.7z M352.7,2279.7v166.7h166.7v-166.7H352.7z M177.7,2279.7v166.7h166.7v-166.7H177.7z
	 M5252.7,2104.7v166.7h166.7v-166.7H5252.7z M5077.7,2104.7v166.7h166.7v-166.7H5077.7z M4902.7,2104.7v166.7h166.7v-166.7H4902.7z
	 M4727.7,2104.7v166.7h166.7v-166.7H4727.7z M4552.7,2104.7v166.7h166.7v-166.7H4552.7z M4377.7,2104.7v166.7h166.7v-166.7H4377.7z
	 M4202.7,2104.7v166.7h166.7v-166.7H4202.7z M4027.7,2104.7v166.7h166.7v-166.7H4027.7z M3852.7,2104.7v166.7h166.7v-166.7H3852.7z
	 M3677.7,2104.7v166.7h166.7v-166.7H3677.7z M3502.7,2104.7v166.7h166.7v-166.7H3502.7z M3327.7,2104.7v166.7h166.7v-166.7H3327.7z
	 M3152.7,2104.7v166.7h166.7v-166.7H3152.7z M2977.7,2104.7v166.7h166.7v-166.7H2977.7z M2802.7,2104.7v166.7h166.7v-166.7H2802.7z
	 M2627.7,2104.7v166.7h166.7v-166.7H2627.7z M2452.7,2104.7v166.7h166.7v-166.7H2452.7z M2277.7,2104.7v166.7h166.7v-166.7H2277.7z
	 M2102.7,2104.7v166.7h166.7v-166.7H2102.7z M1927.7,2104.7v166.7h166.7v-166.7H1927.7z M1752.7,2104.7v166.7h166.7v-166.7H1752.7z
	 M1577.7,2104.7v166.7h166.7v-166.7H1577.7z M1402.7,2104.7v166.7h166.7v-166.7H1402.7z M1227.7,2104.7v166.7h166.7v-166.7H1227.7z
	 M1052.7,2104.7v166.7h166.7v-166.7H1052.7z M877.7,2104.7v166.7h166.7v-166.7H877.7z M702.7,2104.7v166.7h166.7v-166.7H702.7z
	 M527.7,2104.7v166.7h166.7v-166.7H527.7z M352.7,2104.7v166.7h166.7v-166.7H352.7z M177.7,2104.7v166.7h166.7v-166.7H177.7z
	 M5252.7,1929.7v166.7h166.7v-166.7H5252.7z M5077.7,1929.7v166.7h166.7v-166.7H5077.7z M4902.7,1929.7v166.7h166.7v-166.7H4902.7z
	 M4727.7,1929.7v166.7h166.7v-166.7H4727.7z M4552.7,1929.7v166.7h166.7v-166.7H4552.7z M4377.7,1929.7v166.7h166.7v-166.7H4377.7z
	 M4202.7,1929.7v166.7h166.7v-166.7H4202.7z M4027.7,1929.7v166.7h166.7v-166.7H4027.7z M3852.7,1929.7v166.7h166.7v-166.7H3852.7z
	 M3677.7,1929.7v166.7h166.7v-166.7H3677.7z M3502.7,1929.7v166.7h166.7v-166.7H3502.7z M3327.7,1929.7v166.7h166.7v-166.7H3327.7z
	 M3152.7,1929.7v166.7h166.7v-166.7H3152.7z M2977.7,1929.7v166.7h166.7v-166.7H2977.7z M2802.7,1929.7v166.7h166.7v-166.7H2802.7z
	 M2627.7,1929.7v166.7h166.7v-166.7H2627.7z M2452.7,1929.7v166.7h166.7v-166.7H2452.7z M2277.7,1929.7v166.7h166.7v-166.7H2277.7z
	 M2102.7,1929.7v166.7h166.7v-166.7H2102.7z M1927.7,1929.7v166.7h166.7v-166.7H1927.7z M1752.7,1929.7v166.7h166.7v-166.7H1752.7z
	 M1577.7,1929.7v166.7h166.7v-166.7H1577.7z M1402.7,1929.7v166.7h166.7v-166.7H1402.7z M1227.7,1929.7v166.7h166.7v-166.7H1227.7z
	 M1052.7,1929.7v166.7h166.7v-166.7H1052.7z M877.7,1929.7v166.7h166.7v-166.7H877.7z M702.7,1929.7v166.7h166.7v-166.7H702.7z
	 M527.7,1929.7v166.7h166.7v-166.7H527.7z M352.7,1929.7v166.7h166.7v-166.7H352.7z M177.7,1929.7v166.7h166.7v-166.7H177.7z
	 M5252.7,1754.7v166.7h166.7v-166.7H5252.7z M5077.7,1754.7v166.7h166.7v-166.7H5077.7z M4902.7,1754.7v166.7h166.7v-166.7H4902.7z
	 M4727.7,1754.7v166.7h166.7v-166.7H4727.7z M4552.7,1754.7v166.7h166.7v-166.7H4552.7z M4377.7,1754.7v166.7h166.7v-166.7H4377.7z
	 M4202.7,1754.7v166.7h166.7v-166.7H4202.7z M4027.7,1754.7v166.7h166.7v-166.7H4027.7z M3852.7,1754.7v166.7h166.7v-166.7H3852.7z
	 M3677.7,1754.7v166.7h166.7v-166.7H3677.7z M3502.7,1754.7v166.7h166.7v-166.7H3502.7z M3327.7,1754.7v166.7h166.7v-166.7H3327.7z
	 M3152.7,1754.7v166.7h166.7v-166.7H3152.7z M2977.7,1754.7v166.7h166.7v-166.7H2977.7z M2802.7,1754.7v166.7h166.7v-166.7H2802.7z
	 M2627.7,1754.7v166.7h166.7v-166.7H2627.7z M2452.7,1754.7v166.7h166.7v-166.7H2452.7z M2277.7,1754.7v166.7h166.7v-166.7H2277.7z
	 M2102.7,1754.7v166.7h166.7v-166.7H2102.7z M1927.7,1754.7v166.7h166.7v-166.7H1927.7z M1752.7,1754.7v166.7h166.7v-166.7H1752.7z
	 M1577.7,1754.7v166.7h166.7v-166.7H1577.7z M1402.7,1754.7v166.7h166.7v-166.7H1402.7z M1227.7,1754.7v166.7h166.7v-166.7H1227.7z
	 M1052.7,1754.7v166.7h166.7v-166.7H1052.7z M877.7,1754.7v166.7h166.7v-166.7H877.7z M702.7,1754.7v166.7h166.7v-166.7H702.7z
	 M527.7,1754.7v166.7h166.7v-166.7H527.7z M352.7,1754.7v166.7h166.7v-166.7H352.7z M177.7,1754.7v166.7h166.7v-166.7H177.7z
	 M5252.7,1579.7v166.7h166.7v-166.7H5252.7z M5077.7,1579.7v166.7h166.7v-166.7H5077.7z M4902.7,1579.7v166.7h166.7v-166.7H4902.7z
	 M4727.7,1579.7v166.7h166.7v-166.7H4727.7z M4552.7,1579.7v166.7h166.7v-166.7H4552.7z M4377.7,1579.7v166.7h166.7v-166.7H4377.7z
	 M4202.7,1579.7v166.7h166.7v-166.7H4202.7z M4027.7,1579.7v166.7h166.7v-166.7H4027.7z M3852.7,1579.7v166.7h166.7v-166.7H3852.7z
	 M3677.7,1579.7v166.7h166.7v-166.7H3677.7z M3502.7,1579.7v166.7h166.7v-166.7H3502.7z M3327.7,1579.7v166.7h166.7v-166.7H3327.7z
	 M3152.7,1579.7v166.7h166.7v-166.7H3152.7z M2977.7,1579.7v166.7h166.7v-166.7H2977.7z M2802.7,1579.7v166.7h166.7v-166.7H2802.7z
	 M2627.7,1579.7v166.7h166.7v-166.7H2627.7z M2452.7,1579.7v166.7h166.7v-166.7H2452.7z M2277.7,1579.7v166.7h166.7v-166.7H2277.7z
	 M2102.7,1579.7v166.7h166.7v-166.7H2102.7z M1927.7,1579.7v166.7h166.7v-166.7H1927.7z M1752.7,1579.7v166.7h166.7v-166.7H1752.7z
	 M1577.7,1579.7v166.7h166.7v-166.7H1577.7z M1402.7,1579.7v166.7h166.7v-166.7H1402.7z M1227.7,1579.7v166.7h166.7v-166.7H1227.7z
	 M1052.7,1579.7v166.7h166.7v-166.7H1052.7z M877.7,1579.7v166.7h166.7v-166.7H877.7z M702.7,1579.7v166.7h166.7v-166.7H702.7z
	 M527.7,1579.7v166.7h166.7v-166.7H527.7z M352.7,1579.7v166.7h166.7v-166.7H352.7z M177.7,1579.7v166.7h166.7v-166.7H177.7z
	 M5252.7,1404.7v166.7h166.7v-166.7H5252.7z M5077.7,1404.7v166.7h166.7v-166.7H5077.7z M4902.7,1404.7v166.7h166.7v-166.7H4902.7z
	 M4727.7,1404.7v166.7h166.7v-166.7H4727.7z M4552.7,1404.7v166.7h166.7v-166.7H4552.7z M4377.7,1404.7v166.7h166.7v-166.7H4377.7z
	 M4202.7,1404.7v166.7h166.7v-166.7H4202.7z M4027.7,1404.7v166.7h166.7v-166.7H4027.7z M3852.7,1404.7v166.7h166.7v-166.7H3852.7z
	 M3677.7,1404.7v166.7h166.7v-166.7H3677.7z M3502.7,1404.7v166.7h166.7v-166.7H3502.7z M3327.7,1404.7v166.7h166.7v-166.7H3327.7z
	 M3152.7,1404.7v166.7h166.7v-166.7H3152.7z M2977.7,1404.7v166.7h166.7v-166.7H2977.7z M2802.7,1404.7v166.7h166.7v-166.7H2802.7z
	 M2627.7,1404.7v166.7h166.7v-166.7H2627.7z M2452.7,1404.7v166.7h166.7v-166.7H2452.7z M2277.7,1404.7v166.7h166.7v-166.7H2277.7z
	 M2102.7,1404.7v166.7h166.7v-166.7H2102.7z M1927.7,1404.7v166.7h166.7v-166.7H1927.7z M1752.7,1404.7v166.7h166.7v-166.7H1752.7z
	 M1577.7,1404.7v166.7h166.7v-166.7H1577.7z M1402.7,1404.7v166.7h166.7v-166.7H1402.7z M1227.7,1404.7v166.7h166.7v-166.7H1227.7z
	 M1052.7,1404.7v166.7h166.7v-166.7H1052.7z M877.7,1404.7v166.7h166.7v-166.7H877.7z M702.7,1404.7v166.7h166.7v-166.7H702.7z
	 M527.7,1404.7v166.7h166.7v-166.7H527.7z M352.7,1404.7v166.7h166.7v-166.7H352.7z M177.7,1404.7v166.7h166.7v-166.7H177.7z
	 M5252.7,1229.7v166.7h166.7v-166.7H5252.7z M5077.7,1229.7v166.7h166.7v-166.7H5077.7z M4902.7,1229.7v166.7h166.7v-166.7H4902.7z
	 M4727.7,1229.7v166.7h166.7v-166.7H4727.7z M4552.7,1229.7v166.7h166.7v-166.7H4552.7z M4377.7,1229.7v166.7h166.7v-166.7H4377.7z
	 M4202.7,1229.7v166.7h166.7v-166.7H4202.7z M4027.7,1229.7v166.7h166.7v-166.7H4027.7z M3852.7,1229.7v166.7h166.7v-166.7H3852.7z
	 M3677.7,1229.7v166.7h166.7v-166.7H3677.7z M3502.7,1229.7v166.7h166.7v-166.7H3502.7z M3327.7,1229.7v166.7h166.7v-166.7H3327.7z
	 M3152.7,1229.7v166.7h166.7v-166.7H3152.7z M2977.7,1229.7v166.7h166.7v-166.7H2977.7z M2802.7,1229.7v166.7h166.7v-166.7H2802.7z
	 M2627.7,1229.7v166.7h166.7v-166.7H2627.7z M2452.7,1229.7v166.7h166.7v-166.7H2452.7z M2277.7,1229.7v166.7h166.7v-166.7H2277.7z
	 M2102.7,1229.7v166.7h166.7v-166.7H2102.7z M1927.7,1229.7v166.7h166.7v-166.7H1927.7z M1752.7,1229.7v166.7h166.7v-166.7H1752.7z
	 M1577.7,1229.7v166.7h166.7v-166.7H1577.7z M1402.7,1229.7v166.7h166.7v-166.7H1402.7z M1227.7,1229.7v166.7h166.7v-166.7H1227.7z
	 M1052.7,1229.7v166.7h166.7v-166.7H1052.7z M877.7,1229.7v166.7h166.7v-166.7H877.7z M702.7,1229.7v166.7h166.7v-166.7H702.7z
	 M527.7,1229.7v166.7h166.7v-166.7H527.7z M352.7,1229.7v166.7h166.7v-166.7H352.7z M177.7,1229.7v166.7h166.7v-166.7H177.7z
	 M5252.7,1054.7v166.7h166.7v-166.7H5252.7z M5077.7,1054.7v166.7h166.7v-166.7H5077.7z M4902.7,1054.7v166.7h166.7v-166.7H4902.7z
	 M4727.7,1054.7v166.7h166.7v-166.7H4727.7z M4552.7,1054.7v166.7h166.7v-166.7H4552.7z M4377.7,1054.7v166.7h166.7v-166.7H4377.7z
	 M4202.7,1054.7v166.7h166.7v-166.7H4202.7z M4027.7,1054.7v166.7h166.7v-166.7H4027.7z M3852.7,1054.7v166.7h166.7v-166.7H3852.7z
	 M3677.7,1054.7v166.7h166.7v-166.7H3677.7z M3502.7,1054.7v166.7h166.7v-166.7H3502.7z M3327.7,1054.7v166.7h166.7v-166.7H3327.7z
	 M3152.7,1054.7v166.7h166.7v-166.7H3152.7z M2977.7,1054.7v166.7h166.7v-166.7H2977.7z M2802.7,1054.7v166.7h166.7v-166.7H2802.7z
	 M2627.7,1054.7v166.7h166.7v-166.7H2627.7z M2452.7,1054.7v166.7h166.7v-166.7H2452.7z M2277.7,1054.7v166.7h166.7v-166.7H2277.7z
	 M2102.7,1054.7v166.7h166.7v-166.7H2102.7z M1927.7,1054.7v166.7h166.7v-166.7H1927.7z M1752.7,1054.7v166.7h166.7v-166.7H1752.7z
	 M1577.7,1054.7v166.7h166.7v-166.7H1577.7z M1402.7,1054.7v166.7h166.7v-166.7H1402.7z M1227.7,1054.7v166.7h166.7v-166.7H1227.7z
	 M1052.7,1054.7v166.7h166.7v-166.7H1052.7z M877.7,1054.7v166.7h166.7v-166.7H877.7z M702.7,1054.7v166.7h166.7v-166.7H702.7z
	 M527.7,1054.7v166.7h166.7v-166.7H527.7z M352.7,1054.7v166.7h166.7v-166.7H352.7z M177.7,1054.7v166.7h166.7v-166.7H177.7z
	 M5252.7,879.7v166.7h166.7V879.7H5252.7z M5077.7,879.7v166.7h166.7V879.7H5077.7z M4902.7,879.7v166.7h166.7V879.7H4902.7z
	 M4727.7,879.7v166.7h166.7V879.7H4727.7z M4552.7,879.7v166.7h166.7V879.7H4552.7z M4377.7,879.7v166.7h166.7V879.7H4377.7z
	 M4202.7,879.7v166.7h166.7V879.7H4202.7z M4027.7,879.7v166.7h166.7V879.7H4027.7z M3852.7,879.7v166.7h166.7V879.7H3852.7z
	 M3677.7,879.7v166.7h166.7V879.7H3677.7z M3502.7,879.7v166.7h166.7V879.7H3502.7z M3327.7,879.7v166.7h166.7V879.7H3327.7z
	 M3152.7,879.7v166.7h166.7V879.7H3152.7z M2977.7,879.7v166.7h166.7V879.7H2977.7z M2802.7,879.7v166.7h166.7V879.7H2802.7z
	 M2627.7,879.7v166.7h166.7V879.7H2627.7z M2452.7,879.7v166.7h166.7V879.7H2452.7z M2277.7,879.7v166.7h166.7V879.7H2277.7z
	 M2102.7,879.7v166.7h166.7V879.7H2102.7z M1927.7,879.7v166.7h166.7V879.7H1927.7z M1752.7,879.7v166.7h166.7V879.7H1752.7z
	 M1577.7,879.7v166.7h166.7V879.7H1577.7z M1402.7,879.7v166.7h166.7V879.7H1402.7z M1227.7,879.7v166.7h166.7V879.7H1227.7z
	 M1052.7,879.7v166.7h166.7V879.7H1052.7z M877.7,879.7v166.7h166.7V879.7H877.7z M702.7,879.7v166.7h166.7V879.7H702.7z
	 M527.7,879.7v166.7h166.7V879.7H527.7z M352.7,879.7v166.7h166.7V879.7H352.7z M177.7,879.7v166.7h166.7V879.7H177.7z
	 M5252.7,704.7v166.7h166.7V704.7H5252.7z M5077.7,704.7v166.7h166.7V704.7H5077.7z M4902.7,704.7v166.7h166.7V704.7H4902.7z
	 M4727.7,704.7v166.7h166.7V704.7H4727.7z M4552.7,704.7v166.7h166.7V704.7H4552.7z M4377.7,704.7v166.7h166.7V704.7H4377.7z
	 M4202.7,704.7v166.7h166.7V704.7H4202.7z M4027.7,704.7v166.7h166.7V704.7H4027.7z M3852.7,704.7v166.7h166.7V704.7H3852.7z
	 M3677.7,704.7v166.7h166.7V704.7H3677.7z M3502.7,704.7v166.7h166.7V704.7H3502.7z M3327.7,704.7v166.7h166.7V704.7H3327.7z
	 M3152.7,704.7v166.7h166.7V704.7H3152.7z M2977.7,704.7v166.7h166.7V704.7H2977.7z M2802.7,704.7v166.7h166.7V704.7H2802.7z
	 M2627.7,704.7v166.7h166.7V704.7H2627.7z M2452.7,704.7v166.7h166.7V704.7H2452.7z M2277.7,704.7v166.7h166.7V704.7H2277.7z
	 M2102.7,704.7v166.7h166.7V704.7H2102.7z M1927.7,704.7v166.7h166.7V704.7H1927.7z M1752.7,704.7v166.7h166.7V704.7H1752.7z
	 M1577.7,704.7v166.7h166.7V704.7H1577.7z M1402.7,704.7v166.7h166.7V704.7H1402.7z M1227.7,704.7v166.7h166.7V704.7H1227.7z
	 M1052.7,704.7v166.7h166.7V704.7H1052.7z M877.7,704.7v166.7h166.7V704.7H877.7z M702.7,704.7v166.7h166.7V704.7H702.7z
	 M527.7,704.7v166.7h166.7V704.7H527.7z M352.7,704.7v166.7h166.7V704.7H352.7z M177.7,704.7v166.7h166.7V704.7H177.7z
	 M5252.7,529.7v166.7h166.7V529.7H5252.7z M5077.7,529.7v166.7h166.7V529.7H5077.7z M4902.7,529.7v166.7h166.7V529.7H4902.7z
	 M4727.7,529.7v166.7h166.7V529.7H4727.7z M4552.7,529.7v166.7h166.7V529.7H4552.7z M4377.7,529.7v166.7h166.7V529.7H4377.7z
	 M4202.7,529.7v166.7h166.7V529.7H4202.7z M4027.7,529.7v166.7h166.7V529.7H4027.7z M3852.7,529.7v166.7h166.7V529.7H3852.7z
	 M3677.7,529.7v166.7h166.7V529.7H3677.7z M3502.7,529.7v166.7h166.7V529.7H3502.7z M3327.7,529.7v166.7h166.7V529.7H3327.7z
	 M3152.7,529.7v166.7h166.7V529.7H3152.7z M2977.7,529.7v166.7h166.7V529.7H2977.7z M2802.7,529.7v166.7h166.7V529.7H2802.7z
	 M2627.7,529.7v166.7h166.7V529.7H2627.7z M2452.7,529.7v166.7h166.7V529.7H2452.7z M2277.7,529.7v166.7h166.7V529.7H2277.7z
	 M2102.7,529.7v166.7h166.7V529.7H2102.7z M1927.7,529.7v166.7h166.7V529.7H1927.7z M1752.7,529.7v166.7h166.7V529.7H1752.7z
	 M1577.7,529.7v166.7h166.7V529.7H1577.7z M1402.7,529.7v166.7h166.7V529.7H1402.7z M1227.7,529.7v166.7h166.7V529.7H1227.7z
	 M1052.7,529.7v166.7h166.7V529.7H1052.7z M877.7,529.7v166.7h166.7V529.7H877.7z M702.7,529.7v166.7h166.7V529.7H702.7z
	 M527.7,529.7v166.7h166.7V529.7H527.7z M352.7,529.7v166.7h166.7V529.7H352.7z M177.7,529.7v166.7h166.7V529.7H177.7z
	 M5252.7,354.7v166.7h166.7V354.7H5252.7z M5077.7,354.7v166.7h166.7V354.7H5077.7z M4902.7,354.7v166.7h166.7V354.7H4902.7z
	 M4727.7,354.7v166.7h166.7V354.7H4727.7z M4552.7,354.7v166.7h166.7V354.7H4552.7z M4377.7,354.7v166.7h166.7V354.7H4377.7z
	 M4202.7,354.7v166.7h166.7V354.7H4202.7z M4027.7,354.7v166.7h166.7V354.7H4027.7z M3852.7,354.7v166.7h166.7V354.7H3852.7z
	 M3677.7,354.7v166.7h166.7V354.7H3677.7z M3502.7,354.7v166.7h166.7V354.7H3502.7z M3327.7,354.7v166.7h166.7V354.7H3327.7z
	 M3152.7,354.7v166.7h166.7V354.7H3152.7z M2977.7,354.7v166.7h166.7V354.7H2977.7z M2802.7,354.7v166.7h166.7V354.7H2802.7z
	 M2627.7,354.7v166.7h166.7V354.7H2627.7z M2452.7,354.7v166.7h166.7V354.7H2452.7z M2277.7,354.7v166.7h166.7V354.7H2277.7z
	 M2102.7,354.7v166.7h166.7V354.7H2102.7z M1927.7,354.7v166.7h166.7V354.7H1927.7z M1752.7,354.7v166.7h166.7V354.7H1752.7z
	 M1577.7,354.7v166.7h166.7V354.7H1577.7z M1402.7,354.7v166.7h166.7V354.7H1402.7z M1227.7,354.7v166.7h166.7V354.7H1227.7z
	 M1052.7,354.7v166.7h166.7V354.7H1052.7z M877.7,354.7v166.7h166.7V354.7H877.7z M702.7,354.7v166.7h166.7V354.7H702.7z
	 M527.7,354.7v166.7h166.7V354.7H527.7z M352.7,354.7v166.7h166.7V354.7H352.7z M177.7,354.7v166.7h166.7V354.7H177.7z
	 M5252.7,179.7v166.7h166.7V179.7H5252.7z M5077.7,179.7v166.7h166.7V179.7H5077.7z M4902.7,179.7v166.7h166.7V179.7H4902.7z
	 M4727.7,179.7v166.7h166.7V179.7H4727.7z M4552.7,179.7v166.7h166.7V179.7H4552.7z M4377.7,179.7v166.7h166.7V179.7H4377.7z
	 M4202.7,179.7v166.7h166.7V179.7H4202.7z M4027.7,179.7v166.7h166.7V179.7H4027.7z M3852.7,179.7v166.7h166.7V179.7H3852.7z
	 M3677.7,179.7v166.7h166.7V179.7H3677.7z M3502.7,179.7v166.7h166.7V179.7H3502.7z M3327.7,179.7v166.7h166.7V179.7H3327.7z
	 M3152.7,179.7v166.7h166.7V179.7H3152.7z M2977.7,179.7v166.7h166.7V179.7H2977.7z M2802.7,179.7v166.7h166.7V179.7H2802.7z
	 M2627.7,179.7v166.7h166.7V179.7H2627.7z M2452.7,179.7v166.7h166.7V179.7H2452.7z M2277.7,179.7v166.7h166.7V179.7H2277.7z
	 M2102.7,179.7v166.7h166.7V179.7H2102.7z M1927.7,179.7v166.7h166.7V179.7H1927.7z M1752.7,179.7v166.7h166.7V179.7H1752.7z
	 M1577.7,179.7v166.7h166.7V179.7H1577.7z M1402.7,179.7v166.7h166.7V179.7H1402.7z M1227.7,179.7v166.7h166.7V179.7H1227.7z
	 M1052.7,179.7v166.7h166.7V179.7H1052.7z M877.7,179.7v166.7h166.7V179.7H877.7z M702.7,179.7v166.7h166.7V179.7H702.7z
	 M527.7,179.7v166.7h166.7V179.7H527.7z M352.7,179.7v166.7h166.7V179.7H352.7z M177.7,179.7v166.7h166.7V179.7H177.7z M7.3,171.3
	h162V9.3H7.3V171.3z M7.3,346.3h162V179.7H7.3V346.3z M7.3,521.3h162V354.7H7.3V521.3z M7.3,696.3h162V529.7H7.3V696.3z M7.3,871.3
	h162V704.7H7.3V871.3z M7.3,1046.3h162V879.7H7.3V1046.3z M7.3,1221.3h162v-166.7H7.3V1221.3z M7.3,1396.3h162v-166.7H7.3V1396.3z
	 M7.3,1571.3h162v-166.7H7.3V1571.3z M7.3,1746.3h162v-166.7H7.3V1746.3z M7.3,1921.3h162v-166.7H7.3V1921.3z M7.3,2096.3h162
	v-166.7H7.3V2096.3z M7.3,2271.3h162v-166.7H7.3V2271.3z M7.3,2446.3h162v-166.7H7.3V2446.3z M7.3,2621.3h162v-166.7H7.3V2621.3z
	 M7.3,2796.3h162v-166.7H7.3V2796.3z M7.3,2971.3h162v-166.7H7.3V2971.3z M7.3,3146.3h162v-166.7H7.3V3146.3z M7.3,3321.3h162
	v-166.7H7.3V3321.3z M7.3,3496.3h162v-166.7H7.3V3496.3z M7.3,3671.3h162v-166.7H7.3V3671.3z M7.3,3846.3h162v-166.7H7.3V3846.3z
	 M7.3,4021.3h162v-166.7H7.3V4021.3z M169.3,4192.7v-163H7.3v163H169.3z M344.3,4192.7v-163H177.7v163H344.3z M519.3,4192.7v-163
	H352.7v163H519.3z M694.3,4192.7v-163H527.7v163H694.3z M869.3,4192.7v-163H702.7v163H869.3z M1044.3,4192.7v-163H877.7v163H1044.3z
	 M1219.4,4192.7v-163h-166.7v163H1219.4z M1394.4,4192.7v-163h-166.7v163H1394.4z M1569.4,4192.7v-163h-166.7v163H1569.4z
	 M1744.4,4192.7v-163h-166.7v163H1744.4z M1919.4,4192.7v-163h-166.7v163H1919.4z M2094.4,4192.7v-163h-166.7v163H2094.4z
	 M2269.4,4192.7v-163h-166.7v163H2269.4z M2444.4,4192.7v-163h-166.7v163H2444.4z M2619.4,4192.7v-163h-166.7v163H2619.4z
	 M2794.4,4192.7v-163h-166.7v163H2794.4z M2969.4,4192.7v-163h-166.7v163H2969.4z M3144.4,4192.7v-163h-166.7v163H3144.4z
	 M3319.4,4192.7v-163h-166.7v163H3319.4z M3494.4,4192.7v-163h-166.7v163H3494.4z M3669.4,4192.7v-163h-166.7v163H3669.4z
	 M3844.4,4192.7v-163h-166.7v163H3844.4z M4019.4,4192.7v-163h-166.7v163H4019.4z M4194.4,4192.7v-163h-166.7v163H4194.4z
	 M4369.4,4192.7v-163h-166.7v163H4369.4z M4544.4,4192.7v-163h-166.7v163H4544.4z M4719.4,4192.7v-163h-166.7v163H4719.4z
	 M4894.4,4192.7v-163h-166.7v163H4894.4z M5069.4,4192.7v-163h-166.7v163H5069.4z M5244.4,4192.7v-163h-166.7v163H5244.4z
	 M5419.4,4192.7v-163h-166.7v163H5419.4z M5590.7,4029.7h-163v163h163V4029.7z M5590.7,3854.7h-163v166.7h163V3854.7z
	 M5590.7,3679.7h-163v166.7h163V3679.7z M5590.7,3504.7h-163v166.7h163V3504.7z M5590.7,3329.7h-163v166.7h163V3329.7z
	 M5590.7,3154.7h-163v166.7h163V3154.7z M5590.7,2979.7h-163v166.7h163V2979.7z M5590.7,2804.7h-163v166.7h163V2804.7z
	 M5590.7,2629.7h-163v166.7h163V2629.7z M5590.7,2454.7h-163v166.7h163V2454.7z M5590.7,2279.7h-163v166.7h163V2279.7z
	 M5590.7,2104.7h-163v166.7h163V2104.7z M5590.7,1929.7h-163v166.7h163V1929.7z M5590.7,1754.7h-163v166.7h163V1754.7z
	 M5590.7,1579.7h-163v166.7h163V1579.7z M5590.7,1404.7h-163v166.7h163V1404.7z M5590.7,1229.7h-163v166.7h163V1229.7z
	 M5590.7,1054.7h-163v166.7h163V1054.7z M5590.7,879.7h-163v166.7h163V879.7z M5590.7,704.7h-163v166.7h163V704.7z M5590.7,529.7
	h-163v166.7h163V529.7z M5590.7,354.7h-163v166.7h163V354.7z M5590.7,179.7h-163v166.7h163V179.7z M5427.7,9.3v162h163V9.3H5427.7z
	 M5252.7,9.3v162h166.7V9.3H5252.7z M5077.7,9.3v162h166.7V9.3H5077.7z M4902.7,9.3v162h166.7V9.3H4902.7z M4727.7,9.3v162h166.7
	V9.3H4727.7z M4552.7,9.3v162h166.7V9.3H4552.7z M4377.7,9.3v162h166.7V9.3H4377.7z M4202.7,9.3v162h166.7V9.3H4202.7z M4027.7,9.3
	v162h166.7V9.3H4027.7z M3852.7,9.3v162h166.7V9.3H3852.7z M3677.7,9.3v162h166.7V9.3H3677.7z M3502.7,9.3v162h166.7V9.3H3502.7z
	 M3327.7,9.3v162h166.7V9.3H3327.7z M3152.7,9.3v162h166.7V9.3H3152.7z M2977.7,9.3v162h166.7V9.3H2977.7z M2802.7,9.3v162h166.7
	V9.3H2802.7z M2627.7,9.3v162h166.7V9.3H2627.7z M2452.7,9.3v162h166.7V9.3H2452.7z M2277.7,9.3v162h166.7V9.3H2277.7z M2102.7,9.3
	v162h166.7V9.3H2102.7z M1927.7,9.3v162h166.7V9.3H1927.7z M1752.7,9.3v162h166.7V9.3H1752.7z M1577.7,9.3v162h166.7V9.3H1577.7z
	 M1402.7,9.3v162h166.7V9.3H1402.7z M1227.7,9.3v162h166.7V9.3H1227.7z M1052.7,9.3v162h166.7V9.3H1052.7z M877.7,9.3v162h166.7V9.3
	H877.7z M702.7,9.3v162h166.7V9.3H702.7z M527.7,9.3v162h166.7V9.3H527.7z M352.7,9.3v162h166.7V9.3H352.7z M344.3,1h8.3h166.7h8.3
	h166.7h8.3h166.7h8.3h166.7h8.3h166.7h8.3h166.7h8.3h166.7h8.3h166.7h8.3h166.7h8.3h166.7h8.3h166.7h8.3h166.7h8.3h166.7h8.3h166.7
	h8.3h166.7h8.3h166.7h8.3h166.7h8.3h166.7h8.3h166.7h8.3h166.7h8.3h166.7h8.3h166.7h8.3h166.7h8.3h166.7h8.3h166.7h8.3h166.7h8.3
	h166.7h8.3h166.7h8.3h166.7h8.3h163h8.3h0v170.3v8.3v166.7v8.3v166.7v8.3v166.7v8.3v166.7v8.3v166.7v8.3v166.7v8.3v166.7v8.3v166.7
	v8.3v166.7v8.3v166.7v8.3v166.7v8.3v166.7v8.3v166.7v8.3v166.7v8.3v166.7v8.3v166.7v8.3v166.7v8.3v166.7v8.3v166.7v8.3v166.7v8.3
	v166.7v8.3v166.7v8.3V4201h0h-8.3h-163h-8.3h-166.7h-8.3h-166.7h-8.3h-166.7h-8.3h-166.7h-8.3h-166.7h-8.3h-166.7h-8.3h-166.7h-8.3
	h-166.7h-8.3h-166.7h-8.3h-166.7h-8.3h-166.7h-8.3h-166.7h-8.3h-166.7h-8.3h-166.7h-8.3h-166.7h-8.3h-166.7h-8.3h-166.7h-8.3h-166.7
	h-8.3h-166.7h-8.3h-166.7h-8.3h-166.7h-8.3h-166.7h-8.3h-166.7h-8.3h-166.7h-8.3h-166.7h-8.3H877.7h-8.3H702.7h-8.3H527.7h-8.3
	H352.7h-8.3H177.7h-8.3H7.3H-1v-8.3v-163v-8.3v-166.7v-8.3v-166.7v-8.3v-166.7v-8.3v-166.7v-8.3v-166.7v-8.3v-166.7v-8.3v-166.7
	v-8.3v-166.7v-8.3v-166.7v-8.3v-166.7v-8.3v-166.7v-8.3v-166.7v-8.3v-166.7v-8.3v-166.7v-8.3v-166.7v-8.3v-166.7v-8.3v-166.7v-8.3
	V879.7v-8.3V704.7v-8.3V529.7v-8.3V354.7v-8.3V179.7v-8.3V9.3V1h8.3h162h8.3H344.3z M177.7,9.3v162h166.7V9.3H177.7z"
/>




<rect filter="url(#displacementFilter2)" x="181" y="182.5" class="st1" width="5236" height="3836"/>
</svg>
