<?xml version="1.0" encoding="utf-8"?>
<!-- Generator: Adobe Illustrator 27.9.0, SVG Export Plug-In . SVG Version: 6.00 Build 0)  -->
<svg version="1.1" id="Layer_1" xmlns="http://www.w3.org/2000/svg" xmlns:xlink="http://www.w3.org/1999/xlink" x="0px" y="0px"
	 viewBox="0 0 5600 4200" style="enable-background:new 0 0 5600 4200;" xml:space="preserve">
<style type="text/css">
	.st0{fill:rgba(0, 0, 0, 0.3);}
	.st1{fill:rgba(255, 255, 255, 0.0);}
</style>
	<defs>
    <filter id="displacementFilter">
      <feTurbulence baseFrequency="0.0005" numOctaves="1" />
      <feDisplacementMap in="SourceGraphic" scale="50" />
    </filter>
  </defs>
<path filter="url(#displacementFilter)" class="st0" d="M5252.7,3854.7v166.7h166.7v-166.7H5252.7z M5077.7,3854.7v166.7h166.7v-166.7H5077.7z M4902.7,3854.7v166.7
	h166.7v-166.7H4902.7z M4727.7,3854.7v166.7h166.7v-166.7H4727.7z M4552.7,3854.7v166.7h166.7v-166.7H4552.7z M4377.7,3854.7v166.7
	h166.7v-166.7H4377.7z M4202.7,3854.7v166.7h166.7v-166.7H4202.7z M4027.7,3854.7v166.7h166.7v-166.7H4027.7z M3852.7,3854.7v166.7
	h166.7v-166.7H3852.7z M3677.7,3854.7v166.7h166.7v-166.7H3677.7z M3502.7,3854.7v166.7h166.7v-166.7H3502.7z M3327.7,3854.7v166.7
	h166.7v-166.7H3327.7z M3152.7,3854.7v166.7h166.7v-166.7H3152.7z M2977.7,3854.7v166.7h166.7v-166.7H2977.7z M2802.7,3854.7v166.7
	h166.7v-166.7H2802.7z M2627.7,3854.7v166.7h166.7v-166.7H2627.7z M2452.7,3854.7v166.7h166.7v-166.7H2452.7z M2277.7,3854.7v166.7
	h166.7v-166.7H2277.7z M2102.7,3854.7v166.7h166.7v-166.7H2102.7z M1927.7,3854.7v166.7h166.7v-166.7H1927.7z M1752.7,3854.7v166.7
	h166.7v-166.7H1752.7z M1577.7,3854.7v166.7h166.7v-166.7H1577.7z M1402.7,3854.7v166.7h166.7v-166.7H1402.7z M1227.7,3854.7v166.7
	h166.7v-166.7H1227.7z M1052.7,3854.7v166.7h166.7v-166.7H1052.7z M877.7,3854.7v166.7h166.7v-166.7H877.7z M702.7,3854.7v166.7
	h166.7v-166.7H702.7z M527.7,3854.7v166.7h166.7v-166.7H527.7z M352.7,3854.7v166.7h166.7v-166.7H352.7z M177.7,3854.7v166.7h166.7
	v-166.7H177.7z M5252.7,3679.7v166.7h166.7v-166.7H5252.7z M5077.7,3679.7v166.7h166.7v-166.7H5077.7z M4902.7,3679.7v166.7h166.7
	v-166.7H4902.7z M4727.7,3679.7v166.7h166.7v-166.7H4727.7z M4552.7,3679.7v166.7h166.7v-166.7H4552.7z M4377.7,3679.7v166.7h166.7
	v-166.7H4377.7z M4202.7,3679.7v166.7h166.7v-166.7H4202.7z M4027.7,3679.7v166.7h166.7v-166.7H4027.7z M3852.7,3679.7v166.7h166.7
	v-166.7H3852.7z M3677.7,3679.7v166.7h166.7v-166.7H3677.7z M3502.7,3679.7v166.7h166.7v-166.7H3502.7z M3327.7,3679.7v166.7h166.7
	v-166.7H3327.7z M3152.7,3679.7v166.7h166.7v-166.7H3152.7z M2977.7,3679.7v166.7h166.7v-166.7H2977.7z M2802.7,3679.7v166.7h166.7
	v-166.7H2802.7z M2627.7,3679.7v166.7h166.7v-166.7H2627.7z M2452.7,3679.7v166.7h166.7v-166.7H2452.7z M2277.7,3679.7v166.7h166.7
	v-166.7H2277.7z M2102.7,3679.7v166.7h166.7v-166.7H2102.7z M1927.7,3679.7v166.7h166.7v-166.7H1927.7z M1752.7,3679.7v166.7h166.7
	v-166.7H1752.7z M1577.7,3679.7v166.7h166.7v-166.7H1577.7z M1402.7,3679.7v166.7h166.7v-166.7H1402.7z M1227.7,3679.7v166.7h166.7
	v-166.7H1227.7z M1052.7,3679.7v166.7h166.7v-166.7H1052.7z M877.7,3679.7v166.7h166.7v-166.7H877.7z M702.7,3679.7v166.7h166.7
	v-166.7H702.7z M527.7,3679.7v166.7h166.7v-166.7H527.7z M352.7,3679.7v166.7h166.7v-166.7H352.7z M177.7,3679.7v166.7h166.7v-166.7
	H177.7z M5252.7,3504.7v166.7h166.7v-166.7H5252.7z M5077.7,3504.7v166.7h166.7v-166.7H5077.7z M4902.7,3504.7v166.7h166.7v-166.7
	H4902.7z M4727.7,3504.7v166.7h166.7v-166.7H4727.7z M4552.7,3504.7v166.7h166.7v-166.7H4552.7z M4377.7,3504.7v166.7h166.7v-166.7
	H4377.7z M4202.7,3504.7v166.7h166.7v-166.7H4202.7z M4027.7,3504.7v166.7h166.7v-166.7H4027.7z M3852.7,3504.7v166.7h166.7v-166.7
	H3852.7z M3677.7,3504.7v166.7h166.7v-166.7H3677.7z M3502.7,3504.7v166.7h166.7v-166.7H3502.7z M3327.7,3504.7v166.7h166.7v-166.7
	H3327.7z M3152.7,3504.7v166.7h166.7v-166.7H3152.7z M2977.7,3504.7v166.7h166.7v-166.7H2977.7z M2802.7,3504.7v166.7h166.7v-166.7
	H2802.7z M2627.7,3504.7v166.7h166.7v-166.7H2627.7z M2452.7,3504.7v166.7h166.7v-166.7H2452.7z M2277.7,3504.7v166.7h166.7v-166.7
	H2277.7z M2102.7,3504.7v166.7h166.7v-166.7H2102.7z M1927.7,3504.7v166.7h166.7v-166.7H1927.7z M1752.7,3504.7v166.7h166.7v-166.7
	H1752.7z M1577.7,3504.7v166.7h166.7v-166.7H1577.7z M1402.7,3504.7v166.7h166.7v-166.7H1402.7z M1227.7,3504.7v166.7h166.7v-166.7
	H1227.7z M1052.7,3504.7v166.7h166.7v-166.7H1052.7z M877.7,3504.7v166.7h166.7v-166.7H877.7z M702.7,3504.7v166.7h166.7v-166.7
	H702.7z M527.7,3504.7v166.7h166.7v-166.7H527.7z M352.7,3504.7v166.7h166.7v-166.7H352.7z M177.7,3504.7v166.7h166.7v-166.7H177.7z
	 M5252.7,3329.7v166.7h166.7v-166.7H5252.7z M5077.7,3329.7v166.7h166.7v-166.7H5077.7z M4902.7,3329.7v166.7h166.7v-166.7H4902.7z
	 M4727.7,3329.7v166.7h166.7v-166.7H4727.7z M4552.7,3329.7v166.7h166.7v-166.7H4552.7z M4377.7,3329.7v166.7h166.7v-166.7H4377.7z
	 M4202.7,3329.7v166.7h166.7v-166.7H4202.7z M4027.7,3329.7v166.7h166.7v-166.7H4027.7z M3852.7,3329.7v166.7h166.7v-166.7H3852.7z
	 M3677.7,3329.7v166.7h166.7v-166.7H3677.7z M3502.7,3329.7v166.7h166.7v-166.7H3502.7z M3327.7,3329.7v166.7h166.7v-166.7H3327.7z
	 M3152.7,3329.7v166.7h166.7v-166.7H3152.7z M2977.7,3329.7v166.7h166.7v-166.7H2977.7z M2802.7,3329.7v166.7h166.7v-166.7H2802.7z
	 M2627.7,3329.7v166.7h166.7v-166.7H2627.7z M2452.7,3329.7v166.7h166.7v-166.7H2452.7z M2277.7,3329.7v166.7h166.7v-166.7H2277.7z
	 M2102.7,3329.7v166.7h166.7v-166.7H2102.7z M1927.7,3329.7v166.7h166.7v-166.7H1927.7z M1752.7,3329.7v166.7h166.7v-166.7H1752.7z
	 M1577.7,3329.7v166.7h166.7v-166.7H1577.7z M1402.7,3329.7v166.7h166.7v-166.7H1402.7z M1227.7,3329.7v166.7h166.7v-166.7H1227.7z
	 M1052.7,3329.7v166.7h166.7v-166.7H1052.7z M877.7,3329.7v166.7h166.7v-166.7H877.7z M702.7,3329.7v166.7h166.7v-166.7H702.7z
	 M527.7,3329.7v166.7h166.7v-166.7H527.7z M352.7,3329.7v166.7h166.7v-166.7H352.7z M177.7,3329.7v166.7h166.7v-166.7H177.7z
	 M5252.7,3154.7v166.7h166.7v-166.7H5252.7z M5077.7,3154.7v166.7h166.7v-166.7H5077.7z M4902.7,3154.7v166.7h166.7v-166.7H4902.7z
	 M4727.7,3154.7v166.7h166.7v-166.7H4727.7z M4552.7,3154.7v166.7h166.7v-166.7H4552.7z M4377.7,3154.7v166.7h166.7v-166.7H4377.7z
	 M4202.7,3154.7v166.7h166.7v-166.7H4202.7z M4027.7,3154.7v166.7h166.7v-166.7H4027.7z M3852.7,3154.7v166.7h166.7v-166.7H3852.7z
	 M3677.7,3154.7v166.7h166.7v-166.7H3677.7z M3502.7,3154.7v166.7h166.7v-166.7H3502.7z M3327.7,3154.7v166.7h166.7v-166.7H3327.7z
	 M3152.7,3154.7v166.7h166.7v-166.7H3152.7z M2977.7,3154.7v166.7h166.7v-166.7H2977.7z M2802.7,3154.7v166.7h166.7v-166.7H2802.7z
	 M2627.7,3154.7v166.7h166.7v-166.7H2627.7z M2452.7,3154.7v166.7h166.7v-166.7H2452.7z M2277.7,3154.7v166.7h166.7v-166.7H2277.7z
	 M2102.7,3154.7v166.7h166.7v-166.7H2102.7z M1927.7,3154.7v166.7h166.7v-166.7H1927.7z M1752.7,3154.7v166.7h166.7v-166.7H1752.7z
	 M1577.7,3154.7v166.7h166.7v-166.7H1577.7z M1402.7,3154.7v166.7h166.7v-166.7H1402.7z M1227.7,3154.7v166.7h166.7v-166.7H1227.7z
	 M1052.7,3154.7v166.7h166.7v-166.7H1052.7z M877.7,3154.7v166.7h166.7v-166.7H877.7z M702.7,3154.7v166.7h166.7v-166.7H702.7z
	 M527.7,3154.7v166.7h166.7v-166.7H527.7z M352.7,3154.7v166.7h166.7v-166.7H352.7z M177.7,3154.7v166.7h166.7v-166.7H177.7z
	 M5252.7,2979.7v166.7h166.7v-166.7H5252.7z M5077.7,2979.7v166.7h166.7v-166.7H5077.7z M4902.7,2979.7v166.7h166.7v-166.7H4902.7z
	 M4727.7,2979.7v166.7h166.7v-166.7H4727.7z M4552.7,2979.7v166.7h166.7v-166.7H4552.7z M4377.7,2979.7v166.7h166.7v-166.7H4377.7z
	 M4202.7,2979.7v166.7h166.7v-166.7H4202.7z M4027.7,2979.7v166.7h166.7v-166.7H4027.7z M3852.7,2979.7v166.7h166.7v-166.7H3852.7z
	 M3677.7,2979.7v166.7h166.7v-166.7H3677.7z M3502.7,2979.7v166.7h166.7v-166.7H3502.7z M3327.7,2979.7v166.7h166.7v-166.7H3327.7z
	 M3152.7,2979.7v166.7h166.7v-166.7H3152.7z M2977.7,2979.7v166.7h166.7v-166.7H2977.7z M2802.7,2979.7v166.7h166.7v-166.7H2802.7z
	 M2627.7,2979.7v166.7h166.7v-166.7H2627.7z M2452.7,2979.7v166.7h166.7v-166.7H2452.7z M2277.7,2979.7v166.7h166.7v-166.7H2277.7z
	 M2102.7,2979.7v166.7h166.7v-166.7H2102.7z M1927.7,2979.7v166.7h166.7v-166.7H1927.7z M1752.7,2979.7v166.7h166.7v-166.7H1752.7z
	 M1577.7,2979.7v166.7h166.7v-166.7H1577.7z M1402.7,2979.7v166.7h166.7v-166.7H1402.7z M1227.7,2979.7v166.7h166.7v-166.7H1227.7z
	 M1052.7,2979.7v166.7h166.7v-166.7H1052.7z M877.7,2979.7v166.7h166.7v-166.7H877.7z M702.7,2979.7v166.7h166.7v-166.7H702.7z
	 M527.7,2979.7v166.7h166.7v-166.7H527.7z M352.7,2979.7v166.7h166.7v-166.7H352.7z M177.7,2979.7v166.7h166.7v-166.7H177.7z
	 M5252.7,2804.7v166.7h166.7v-166.7H5252.7z M5077.7,2804.7v166.7h166.7v-166.7H5077.7z M4902.7,2804.7v166.7h166.7v-166.7H4902.7z
	 M4727.7,2804.7v166.7h166.7v-166.7H4727.7z M4552.7,2804.7v166.7h166.7v-166.7H4552.7z M4377.7,2804.7v166.7h166.7v-166.7H4377.7z
	 M4202.7,2804.7v166.7h166.7v-166.7H4202.7z M4027.7,2804.7v166.7h166.7v-166.7H4027.7z M3852.7,2804.7v166.7h166.7v-166.7H3852.7z
	 M3677.7,2804.7v166.7h166.7v-166.7H3677.7z M3502.7,2804.7v166.7h166.7v-166.7H3502.7z M3327.7,2804.7v166.7h166.7v-166.7H3327.7z
	 M3152.7,2804.7v166.7h166.7v-166.7H3152.7z M2977.7,2804.7v166.7h166.7v-166.7H2977.7z M2802.7,2804.7v166.7h166.7v-166.7H2802.7z
	 M2627.7,2804.7v166.7h166.7v-166.7H2627.7z M2452.7,2804.7v166.7h166.7v-166.7H2452.7z M2277.7,2804.7v166.7h166.7v-166.7H2277.7z
	 M2102.7,2804.7v166.7h166.7v-166.7H2102.7z M1927.7,2804.7v166.7h166.7v-166.7H1927.7z M1752.7,2804.7v166.7h166.7v-166.7H1752.7z
	 M1577.7,2804.7v166.7h166.7v-166.7H1577.7z M1402.7,2804.7v166.7h166.7v-166.7H1402.7z M1227.7,2804.7v166.7h166.7v-166.7H1227.7z
	 M1052.7,2804.7v166.7h166.7v-166.7H1052.7z M877.7,2804.7v166.7h166.7v-166.7H877.7z M702.7,2804.7v166.7h166.7v-166.7H702.7z
	 M527.7,2804.7v166.7h166.7v-166.7H527.7z M352.7,2804.7v166.7h166.7v-166.7H352.7z M177.7,2804.7v166.7h166.7v-166.7H177.7z
	 M5252.7,2629.7v166.7h166.7v-166.7H5252.7z M5077.7,2629.7v166.7h166.7v-166.7H5077.7z M4902.7,2629.7v166.7h166.7v-166.7H4902.7z
	 M4727.7,2629.7v166.7h166.7v-166.7H4727.7z M4552.7,2629.7v166.7h166.7v-166.7H4552.7z M4377.7,2629.7v166.7h166.7v-166.7H4377.7z
	 M4202.7,2629.7v166.7h166.7v-166.7H4202.7z M4027.7,2629.7v166.7h166.7v-166.7H4027.7z M3852.7,2629.7v166.7h166.7v-166.7H3852.7z
	 M3677.7,2629.7v166.7h166.7v-166.7H3677.7z M3502.7,2629.7v166.7h166.7v-166.7H3502.7z M3327.7,2629.7v166.7h166.7v-166.7H3327.7z
	 M3152.7,2629.7v166.7h166.7v-166.7H3152.7z M2977.7,2629.7v166.7h166.7v-166.7H2977.7z M2802.7,2629.7v166.7h166.7v-166.7H2802.7z
	 M2627.7,2629.7v166.7h166.7v-166.7H2627.7z M2452.7,2629.7v166.7h166.7v-166.7H2452.7z M2277.7,2629.7v166.7h166.7v-166.7H2277.7z
	 M2102.7,2629.7v166.7h166.7v-166.7H2102.7z M1927.7,2629.7v166.7h166.7v-166.7H1927.7z M1752.7,2629.7v166.7h166.7v-166.7H1752.7z
	 M1577.7,2629.7v166.7h166.7v-166.7H1577.7z M1402.7,2629.7v166.7h166.7v-166.7H1402.7z M1227.7,2629.7v166.7h166.7v-166.7H1227.7z
	 M1052.7,2629.7v166.7h166.7v-166.7H1052.7z M877.7,2629.7v166.7h166.7v-166.7H877.7z M702.7,2629.7v166.7h166.7v-166.7H702.7z
	 M527.7,2629.7v166.7h166.7v-166.7H527.7z M352.7,2629.7v166.7h166.7v-166.7H352.7z M177.7,2629.7v166.7h166.7v-166.7H177.7z
	 M5252.7,2454.7v166.7h166.7v-166.7H5252.7z M5077.7,2454.7v166.7h166.7v-166.7H5077.7z M4902.7,2454.7v166.7h166.7v-166.7H4902.7z
	 M4727.7,2454.7v166.7h166.7v-166.7H4727.7z M4552.7,2454.7v166.7h166.7v-166.7H4552.7z M4377.7,2454.7v166.7h166.7v-166.7H4377.7z
	 M4202.7,2454.7v166.7h166.7v-166.7H4202.7z M4027.7,2454.7v166.7h166.7v-166.7H4027.7z M3852.7,2454.7v166.7h166.7v-166.7H3852.7z
	 M3677.7,2454.7v166.7h166.7v-166.7H3677.7z M3502.7,2454.7v166.7h166.7v-166.7H3502.7z M3327.7,2454.7v166.7h166.7v-166.7H3327.7z
	 M3152.7,2454.7v166.7h166.7v-166.7H3152.7z M2977.7,2454.7v166.7h166.7v-166.7H2977.7z M2802.7,2454.7v166.7h166.7v-166.7H2802.7z
	 M2627.7,2454.7v166.7h166.7v-166.7H2627.7z M2452.7,2454.7v166.7h166.7v-166.7H2452.7z M2277.7,2454.7v166.7h166.7v-166.7H2277.7z
	 M2102.7,2454.7v166.7h166.7v-166.7H2102.7z M1927.7,2454.7v166.7h166.7v-166.7H1927.7z M1752.7,2454.7v166.7h166.7v-166.7H1752.7z
	 M1577.7,2454.7v166.7h166.7v-166.7H1577.7z M1402.7,2454.7v166.7h166.7v-166.7H1402.7z M1227.7,2454.7v166.7h166.7v-166.7H1227.7z
	 M1052.7,2454.7v166.7h166.7v-166.7H1052.7z M877.7,2454.7v166.7h166.7v-166.7H877.7z M702.7,2454.7v166.7h166.7v-166.7H702.7z
	 M527.7,2454.7v166.7h166.7v-166.7H527.7z M352.7,2454.7v166.7h166.7v-166.7H352.7z M177.7,2454.7v166.7h166.7v-166.7H177.7z
	 M5252.7,2279.7v166.7h166.7v-166.7H5252.7z M5077.7,2279.7v166.7h166.7v-166.7H5077.7z M4902.7,2279.7v166.7h166.7v-166.7H4902.7z
	 M4727.7,2279.7v166.7h166.7v-166.7H4727.7z M4552.7,2279.7v166.7h166.7v-166.7H4552.7z M4377.7,2279.7v166.7h166.7v-166.7H4377.7z
	 M4202.7,2279.7v166.7h166.7v-166.7H4202.7z M4027.7,2279.7v166.7h166.7v-166.7H4027.7z M3852.7,2279.7v166.7h166.7v-166.7H3852.7z
	 M3677.7,2279.7v166.7h166.7v-166.7H3677.7z M3502.7,2279.7v166.7h166.7v-166.7H3502.7z M3327.7,2279.7v166.7h166.7v-166.7H3327.7z
	 M3152.7,2279.7v166.7h166.7v-166.7H3152.7z M2977.7,2279.7v166.7h166.7v-166.7H2977.7z M2802.7,2279.7v166.7h166.7v-166.7H2802.7z
	 M2627.7,2279.7v166.7h166.7v-166.7H2627.7z M2452.7,2279.7v166.7h166.7v-166.7H2452.7z M2277.7,2279.7v166.7h166.7v-166.7H2277.7z
	 M2102.7,2279.7v166.7h166.7v-166.7H2102.7z M1927.7,2279.7v166.7h166.7v-166.7H1927.7z M1752.7,2279.7v166.7h166.7v-166.7H1752.7z
	 M1577.7,2279.7v166.7h166.7v-166.7H1577.7z M1402.7,2279.7v166.7h166.7v-166.7H1402.7z M1227.7,2279.7v166.7h166.7v-166.7H1227.7z
	 M1052.7,2279.7v166.7h166.7v-166.7H1052.7z M877.7,2279.7v166.7h166.7v-166.7H877.7z M702.7,2279.7v166.7h166.7v-166.7H702.7z
	 M527.7,2279.7v166.7h166.7v-166.7H527.7z M352.7,2279.7v166.7h166.7v-166.7H352.7z M177.7,2279.7v166.7h166.7v-166.7H177.7z
	 M5252.7,2104.7v166.7h166.7v-166.7H5252.7z M5077.7,2104.7v166.7h166.7v-166.7H5077.7z M4902.7,2104.7v166.7h166.7v-166.7H4902.7z
	 M4727.7,2104.7v166.7h166.7v-166.7H4727.7z M4552.7,2104.7v166.7h166.7v-166.7H4552.7z M4377.7,2104.7v166.7h166.7v-166.7H4377.7z
	 M4202.7,2104.7v166.7h166.7v-166.7H4202.7z M4027.7,2104.7v166.7h166.7v-166.7H4027.7z M3852.7,2104.7v166.7h166.7v-166.7H3852.7z
	 M3677.7,2104.7v166.7h166.7v-166.7H3677.7z M3502.7,2104.7v166.7h166.7v-166.7H3502.7z M3327.7,2104.7v166.7h166.7v-166.7H3327.7z
	 M3152.7,2104.7v166.7h166.7v-166.7H3152.7z M2977.7,2104.7v166.7h166.7v-166.7H2977.7z M2802.7,2104.7v166.7h166.7v-166.7H2802.7z
	 M2627.7,2104.7v166.7h166.7v-166.7H2627.7z M2452.7,2104.7v166.7h166.7v-166.7H2452.7z M2277.7,2104.7v166.7h166.7v-166.7H2277.7z
	 M2102.7,2104.7v166.7h166.7v-166.7H2102.7z M1927.7,2104.7v166.7h166.7v-166.7H1927.7z M1752.7,2104.7v166.7h166.7v-166.7H1752.7z
	 M1577.7,2104.7v166.7h166.7v-166.7H1577.7z M1402.7,2104.7v166.7h166.7v-166.7H1402.7z M1227.7,2104.7v166.7h166.7v-166.7H1227.7z
	 M1052.7,2104.7v166.7h166.7v-166.7H1052.7z M877.7,2104.7v166.7h166.7v-166.7H877.7z M702.7,2104.7v166.7h166.7v-166.7H702.7z
	 M527.7,2104.7v166.7h166.7v-166.7H527.7z M352.7,2104.7v166.7h166.7v-166.7H352.7z M177.7,2104.7v166.7h166.7v-166.7H177.7z
	 M5252.7,1929.7v166.7h166.7v-166.7H5252.7z M5077.7,1929.7v166.7h166.7v-166.7H5077.7z M4902.7,1929.7v166.7h166.7v-166.7H4902.7z
	 M4727.7,1929.7v166.7h166.7v-166.7H4727.7z M4552.7,1929.7v166.7h166.7v-166.7H4552.7z M4377.7,1929.7v166.7h166.7v-166.7H4377.7z
	 M4202.7,1929.7v166.7h166.7v-166.7H4202.7z M4027.7,1929.7v166.7h166.7v-166.7H4027.7z M3852.7,1929.7v166.7h166.7v-166.7H3852.7z
	 M3677.7,1929.7v166.7h166.7v-166.7H3677.7z M3502.7,1929.7v166.7h166.7v-166.7H3502.7z M3327.7,1929.7v166.7h166.7v-166.7H3327.7z
	 M3152.7,1929.7v166.7h166.7v-166.7H3152.7z M2977.7,1929.7v166.7h166.7v-166.7H2977.7z M2802.7,1929.7v166.7h166.7v-166.7H2802.7z
	 M2627.7,1929.7v166.7h166.7v-166.7H2627.7z M2452.7,1929.7v166.7h166.7v-166.7H2452.7z M2277.7,1929.7v166.7h166.7v-166.7H2277.7z
	 M2102.7,1929.7v166.7h166.7v-166.7H2102.7z M1927.7,1929.7v166.7h166.7v-166.7H1927.7z M1752.7,1929.7v166.7h166.7v-166.7H1752.7z
	 M1577.7,1929.7v166.7h166.7v-166.7H1577.7z M1402.7,1929.7v166.7h166.7v-166.7H1402.7z M1227.7,1929.7v166.7h166.7v-166.7H1227.7z
	 M1052.7,1929.7v166.7h166.7v-166.7H1052.7z M877.7,1929.7v166.7h166.7v-166.7H877.7z M702.7,1929.7v166.7h166.7v-166.7H702.7z
	 M527.7,1929.7v166.7h166.7v-166.7H527.7z M352.7,1929.7v166.7h166.7v-166.7H352.7z M177.7,1929.7v166.7h166.7v-166.7H177.7z
	 M5252.7,1754.7v166.7h166.7v-166.7H5252.7z M5077.7,1754.7v166.7h166.7v-166.7H5077.7z M4902.7,1754.7v166.7h166.7v-166.7H4902.7z
	 M4727.7,1754.7v166.7h166.7v-166.7H4727.7z M4552.7,1754.7v166.7h166.7v-166.7H4552.7z M4377.7,1754.7v166.7h166.7v-166.7H4377.7z
	 M4202.7,1754.7v166.7h166.7v-166.7H4202.7z M4027.7,1754.7v166.7h166.7v-166.7H4027.7z M3852.7,1754.7v166.7h166.7v-166.7H3852.7z
	 M3677.7,1754.7v166.7h166.7v-166.7H3677.7z M3502.7,1754.7v166.7h166.7v-166.7H3502.7z M3327.7,1754.7v166.7h166.7v-166.7H3327.7z
	 M3152.7,1754.7v166.7h166.7v-166.7H3152.7z M2977.7,1754.7v166.7h166.7v-166.7H2977.7z M2802.7,1754.7v166.7h166.7v-166.7H2802.7z
	 M2627.7,1754.7v166.7h166.7v-166.7H2627.7z M2452.7,1754.7v166.7h166.7v-166.7H2452.7z M2277.7,1754.7v166.7h166.7v-166.7H2277.7z
	 M2102.7,1754.7v166.7h166.7v-166.7H2102.7z M1927.7,1754.7v166.7h166.7v-166.7H1927.7z M1752.7,1754.7v166.7h166.7v-166.7H1752.7z
	 M1577.7,1754.7v166.7h166.7v-166.7H1577.7z M1402.7,1754.7v166.7h166.7v-166.7H1402.7z M1227.7,1754.7v166.7h166.7v-166.7H1227.7z
	 M1052.7,1754.7v166.7h166.7v-166.7H1052.7z M877.7,1754.7v166.7h166.7v-166.7H877.7z M702.7,1754.7v166.7h166.7v-166.7H702.7z
	 M527.7,1754.7v166.7h166.7v-166.7H527.7z M352.7,1754.7v166.7h166.7v-166.7H352.7z M177.7,1754.7v166.7h166.7v-166.7H177.7z
	 M5252.7,1579.7v166.7h166.7v-166.7H5252.7z M5077.7,1579.7v166.7h166.7v-166.7H5077.7z M4902.7,1579.7v166.7h166.7v-166.7H4902.7z
	 M4727.7,1579.7v166.7h166.7v-166.7H4727.7z M4552.7,1579.7v166.7h166.7v-166.7H4552.7z M4377.7,1579.7v166.7h166.7v-166.7H4377.7z
	 M4202.7,1579.7v166.7h166.7v-166.7H4202.7z M4027.7,1579.7v166.7h166.7v-166.7H4027.7z M3852.7,1579.7v166.7h166.7v-166.7H3852.7z
	 M3677.7,1579.7v166.7h166.7v-166.7H3677.7z M3502.7,1579.7v166.7h166.7v-166.7H3502.7z M3327.7,1579.7v166.7h166.7v-166.7H3327.7z
	 M3152.7,1579.7v166.7h166.7v-166.7H3152.7z M2977.7,1579.7v166.7h166.7v-166.7H2977.7z M2802.7,1579.7v166.7h166.7v-166.7H2802.7z
	 M2627.7,1579.7v166.7h166.7v-166.7H2627.7z M2452.7,1579.7v166.7h166.7v-166.7H2452.7z M2277.7,1579.7v166.7h166.7v-166.7H2277.7z
	 M2102.7,1579.7v166.7h166.7v-166.7H2102.7z M1927.7,1579.7v166.7h166.7v-166.7H1927.7z M1752.7,1579.7v166.7h166.7v-166.7H1752.7z
	 M1577.7,1579.7v166.7h166.7v-166.7H1577.7z M1402.7,1579.7v166.7h166.7v-166.7H1402.7z M1227.7,1579.7v166.7h166.7v-166.7H1227.7z
	 M1052.7,1579.7v166.7h166.7v-166.7H1052.7z M877.7,1579.7v166.7h166.7v-166.7H877.7z M702.7,1579.7v166.7h166.7v-166.7H702.7z
	 M527.7,1579.7v166.7h166.7v-166.7H527.7z M352.7,1579.7v166.7h166.7v-166.7H352.7z M177.7,1579.7v166.7h166.7v-166.7H177.7z
	 M5252.7,1404.7v166.7h166.7v-166.7H5252.7z M5077.7,1404.7v166.7h166.7v-166.7H5077.7z M4902.7,1404.7v166.7h166.7v-166.7H4902.7z
	 M4727.7,1404.7v166.7h166.7v-166.7H4727.7z M4552.7,1404.7v166.7h166.7v-166.7H4552.7z M4377.7,1404.7v166.7h166.7v-166.7H4377.7z
	 M4202.7,1404.7v166.7h166.7v-166.7H4202.7z M4027.7,1404.7v166.7h166.7v-166.7H4027.7z M3852.7,1404.7v166.7h166.7v-166.7H3852.7z
	 M3677.7,1404.7v166.7h166.7v-166.7H3677.7z M3502.7,1404.7v166.7h166.7v-166.7H3502.7z M3327.7,1404.7v166.7h166.7v-166.7H3327.7z
	 M3152.7,1404.7v166.7h166.7v-166.7H3152.7z M2977.7,1404.7v166.7h166.7v-166.7H2977.7z M2802.7,1404.7v166.7h166.7v-166.7H2802.7z
	 M2627.7,1404.7v166.7h166.7v-166.7H2627.7z M2452.7,1404.7v166.7h166.7v-166.7H2452.7z M2277.7,1404.7v166.7h166.7v-166.7H2277.7z
	 M2102.7,1404.7v166.7h166.7v-166.7H2102.7z M1927.7,1404.7v166.7h166.7v-166.7H1927.7z M1752.7,1404.7v166.7h166.7v-166.7H1752.7z
	 M1577.7,1404.7v166.7h166.7v-166.7H1577.7z M1402.7,1404.7v166.7h166.7v-166.7H1402.7z M1227.7,1404.7v166.7h166.7v-166.7H1227.7z
	 M1052.7,1404.7v166.7h166.7v-166.7H1052.7z M877.7,1404.7v166.7h166.7v-166.7H877.7z M702.7,1404.7v166.7h166.7v-166.7H702.7z
	 M527.7,1404.7v166.7h166.7v-166.7H527.7z M352.7,1404.7v166.7h166.7v-166.7H352.7z M177.7,1404.7v166.7h166.7v-166.7H177.7z
	 M5252.7,1229.7v166.7h166.7v-166.7H5252.7z M5077.7,1229.7v166.7h166.7v-166.7H5077.7z M4902.7,1229.7v166.7h166.7v-166.7H4902.7z
	 M4727.7,1229.7v166.7h166.7v-166.7H4727.7z M4552.7,1229.7v166.7h166.7v-166.7H4552.7z M4377.7,1229.7v166.7h166.7v-166.7H4377.7z
	 M4202.7,1229.7v166.7h166.7v-166.7H4202.7z M4027.7,1229.7v166.7h166.7v-166.7H4027.7z M3852.7,1229.7v166.7h166.7v-166.7H3852.7z
	 M3677.7,1229.7v166.7h166.7v-166.7H3677.7z M3502.7,1229.7v166.7h166.7v-166.7H3502.7z M3327.7,1229.7v166.7h166.7v-166.7H3327.7z
	 M3152.7,1229.7v166.7h166.7v-166.7H3152.7z M2977.7,1229.7v166.7h166.7v-166.7H2977.7z M2802.7,1229.7v166.7h166.7v-166.7H2802.7z
	 M2627.7,1229.7v166.7h166.7v-166.7H2627.7z M2452.7,1229.7v166.7h166.7v-166.7H2452.7z M2277.7,1229.7v166.7h166.7v-166.7H2277.7z
	 M2102.7,1229.7v166.7h166.7v-166.7H2102.7z M1927.7,1229.7v166.7h166.7v-166.7H1927.7z M1752.7,1229.7v166.7h166.7v-166.7H1752.7z
	 M1577.7,1229.7v166.7h166.7v-166.7H1577.7z M1402.7,1229.7v166.7h166.7v-166.7H1402.7z M1227.7,1229.7v166.7h166.7v-166.7H1227.7z
	 M1052.7,1229.7v166.7h166.7v-166.7H1052.7z M877.7,1229.7v166.7h166.7v-166.7H877.7z M702.7,1229.7v166.7h166.7v-166.7H702.7z
	 M527.7,1229.7v166.7h166.7v-166.7H527.7z M352.7,1229.7v166.7h166.7v-166.7H352.7z M177.7,1229.7v166.7h166.7v-166.7H177.7z
	 M5252.7,1054.7v166.7h166.7v-166.7H5252.7z M5077.7,1054.7v166.7h166.7v-166.7H5077.7z M4902.7,1054.7v166.7h166.7v-166.7H4902.7z
	 M4727.7,1054.7v166.7h166.7v-166.7H4727.7z M4552.7,1054.7v166.7h166.7v-166.7H4552.7z M4377.7,1054.7v166.7h166.7v-166.7H4377.7z
	 M4202.7,1054.7v166.7h166.7v-166.7H4202.7z M4027.7,1054.7v166.7h166.7v-166.7H4027.7z M3852.7,1054.7v166.7h166.7v-166.7H3852.7z
	 M3677.7,1054.7v166.7h166.7v-166.7H3677.7z M3502.7,1054.7v166.7h166.7v-166.7H3502.7z M3327.7,1054.7v166.7h166.7v-166.7H3327.7z
	 M3152.7,1054.7v166.7h166.7v-166.7H3152.7z M2977.7,1054.7v166.7h166.7v-166.7H2977.7z M2802.7,1054.7v166.7h166.7v-166.7H2802.7z
	 M2627.7,1054.7v166.7h166.7v-166.7H2627.7z M2452.7,1054.7v166.7h166.7v-166.7H2452.7z M2277.7,1054.7v166.7h166.7v-166.7H2277.7z
	 M2102.7,1054.7v166.7h166.7v-166.7H2102.7z M1927.7,1054.7v166.7h166.7v-166.7H1927.7z M1752.7,1054.7v166.7h166.7v-166.7H1752.7z
	 M1577.7,1054.7v166.7h166.7v-166.7H1577.7z M1402.7,1054.7v166.7h166.7v-166.7H1402.7z M1227.7,1054.7v166.7h166.7v-166.7H1227.7z
	 M1052.7,1054.7v166.7h166.7v-166.7H1052.7z M877.7,1054.7v166.7h166.7v-166.7H877.7z M702.7,1054.7v166.7h166.7v-166.7H702.7z
	 M527.7,1054.7v166.7h166.7v-166.7H527.7z M352.7,1054.7v166.7h166.7v-166.7H352.7z M177.7,1054.7v166.7h166.7v-166.7H177.7z
	 M5252.7,879.7v166.7h166.7V879.7H5252.7z M5077.7,879.7v166.7h166.7V879.7H5077.7z M4902.7,879.7v166.7h166.7V879.7H4902.7z
	 M4727.7,879.7v166.7h166.7V879.7H4727.7z M4552.7,879.7v166.7h166.7V879.7H4552.7z M4377.7,879.7v166.7h166.7V879.7H4377.7z
	 M4202.7,879.7v166.7h166.7V879.7H4202.7z M4027.7,879.7v166.7h166.7V879.7H4027.7z M3852.7,879.7v166.7h166.7V879.7H3852.7z
	 M3677.7,879.7v166.7h166.7V879.7H3677.7z M3502.7,879.7v166.7h166.7V879.7H3502.7z M3327.7,879.7v166.7h166.7V879.7H3327.7z
	 M3152.7,879.7v166.7h166.7V879.7H3152.7z M2977.7,879.7v166.7h166.7V879.7H2977.7z M2802.7,879.7v166.7h166.7V879.7H2802.7z
	 M2627.7,879.7v166.7h166.7V879.7H2627.7z M2452.7,879.7v166.7h166.7V879.7H2452.7z M2277.7,879.7v166.7h166.7V879.7H2277.7z
	 M2102.7,879.7v166.7h166.7V879.7H2102.7z M1927.7,879.7v166.7h166.7V879.7H1927.7z M1752.7,879.7v166.7h166.7V879.7H1752.7z
	 M1577.7,879.7v166.7h166.7V879.7H1577.7z M1402.7,879.7v166.7h166.7V879.7H1402.7z M1227.7,879.7v166.7h166.7V879.7H1227.7z
	 M1052.7,879.7v166.7h166.7V879.7H1052.7z M877.7,879.7v166.7h166.7V879.7H877.7z M702.7,879.7v166.7h166.7V879.7H702.7z
	 M527.7,879.7v166.7h166.7V879.7H527.7z M352.7,879.7v166.7h166.7V879.7H352.7z M177.7,879.7v166.7h166.7V879.7H177.7z
	 M5252.7,704.7v166.7h166.7V704.7H5252.7z M5077.7,704.7v166.7h166.7V704.7H5077.7z M4902.7,704.7v166.7h166.7V704.7H4902.7z
	 M4727.7,704.7v166.7h166.7V704.7H4727.7z M4552.7,704.7v166.7h166.7V704.7H4552.7z M4377.7,704.7v166.7h166.7V704.7H4377.7z
	 M4202.7,704.7v166.7h166.7V704.7H4202.7z M4027.7,704.7v166.7h166.7V704.7H4027.7z M3852.7,704.7v166.7h166.7V704.7H3852.7z
	 M3677.7,704.7v166.7h166.7V704.7H3677.7z M3502.7,704.7v166.7h166.7V704.7H3502.7z M3327.7,704.7v166.7h166.7V704.7H3327.7z
	 M3152.7,704.7v166.7h166.7V704.7H3152.7z M2977.7,704.7v166.7h166.7V704.7H2977.7z M2802.7,704.7v166.7h166.7V704.7H2802.7z
	 M2627.7,704.7v166.7h166.7V704.7H2627.7z M2452.7,704.7v166.7h166.7V704.7H2452.7z M2277.7,704.7v166.7h166.7V704.7H2277.7z
	 M2102.7,704.7v166.7h166.7V704.7H2102.7z M1927.7,704.7v166.7h166.7V704.7H1927.7z M1752.7,704.7v166.7h166.7V704.7H1752.7z
	 M1577.7,704.7v166.7h166.7V704.7H1577.7z M1402.7,704.7v166.7h166.7V704.7H1402.7z M1227.7,704.7v166.7h166.7V704.7H1227.7z
	 M1052.7,704.7v166.7h166.7V704.7H1052.7z M877.7,704.7v166.7h166.7V704.7H877.7z M702.7,704.7v166.7h166.7V704.7H702.7z
	 M527.7,704.7v166.7h166.7V704.7H527.7z M352.7,704.7v166.7h166.7V704.7H352.7z M177.7,704.7v166.7h166.7V704.7H177.7z
	 M5252.7,529.7v166.7h166.7V529.7H5252.7z M5077.7,529.7v166.7h166.7V529.7H5077.7z M4902.7,529.7v166.7h166.7V529.7H4902.7z
	 M4727.7,529.7v166.7h166.7V529.7H4727.7z M4552.7,529.7v166.7h166.7V529.7H4552.7z M4377.7,529.7v166.7h166.7V529.7H4377.7z
	 M4202.7,529.7v166.7h166.7V529.7H4202.7z M4027.7,529.7v166.7h166.7V529.7H4027.7z M3852.7,529.7v166.7h166.7V529.7H3852.7z
	 M3677.7,529.7v166.7h166.7V529.7H3677.7z M3502.7,529.7v166.7h166.7V529.7H3502.7z M3327.7,529.7v166.7h166.7V529.7H3327.7z
	 M3152.7,529.7v166.7h166.7V529.7H3152.7z M2977.7,529.7v166.7h166.7V529.7H2977.7z M2802.7,529.7v166.7h166.7V529.7H2802.7z
	 M2627.7,529.7v166.7h166.7V529.7H2627.7z M2452.7,529.7v166.7h166.7V529.7H2452.7z M2277.7,529.7v166.7h166.7V529.7H2277.7z
	 M2102.7,529.7v166.7h166.7V529.7H2102.7z M1927.7,529.7v166.7h166.7V529.7H1927.7z M1752.7,529.7v166.7h166.7V529.7H1752.7z
	 M1577.7,529.7v166.7h166.7V529.7H1577.7z M1402.7,529.7v166.7h166.7V529.7H1402.7z M1227.7,529.7v166.7h166.7V529.7H1227.7z
	 M1052.7,529.7v166.7h166.7V529.7H1052.7z M877.7,529.7v166.7h166.7V529.7H877.7z M702.7,529.7v166.7h166.7V529.7H702.7z
	 M527.7,529.7v166.7h166.7V529.7H527.7z M352.7,529.7v166.7h166.7V529.7H352.7z M177.7,529.7v166.7h166.7V529.7H177.7z
	 M5252.7,354.7v166.7h166.7V354.7H5252.7z M5077.7,354.7v166.7h166.7V354.7H5077.7z M4902.7,354.7v166.7h166.7V354.7H4902.7z
	 M4727.7,354.7v166.7h166.7V354.7H4727.7z M4552.7,354.7v166.7h166.7V354.7H4552.7z M4377.7,354.7v166.7h166.7V354.7H4377.7z
	 M4202.7,354.7v166.7h166.7V354.7H4202.7z M4027.7,354.7v166.7h166.7V354.7H4027.7z M3852.7,354.7v166.7h166.7V354.7H3852.7z
	 M3677.7,354.7v166.7h166.7V354.7H3677.7z M3502.7,354.7v166.7h166.7V354.7H3502.7z M3327.7,354.7v166.7h166.7V354.7H3327.7z
	 M3152.7,354.7v166.7h166.7V354.7H3152.7z M2977.7,354.7v166.7h166.7V354.7H2977.7z M2802.7,354.7v166.7h166.7V354.7H2802.7z
	 M2627.7,354.7v166.7h166.7V354.7H2627.7z M2452.7,354.7v166.7h166.7V354.7H2452.7z M2277.7,354.7v166.7h166.7V354.7H2277.7z
	 M2102.7,354.7v166.7h166.7V354.7H2102.7z M1927.7,354.7v166.7h166.7V354.7H1927.7z M1752.7,354.7v166.7h166.7V354.7H1752.7z
	 M1577.7,354.7v166.7h166.7V354.7H1577.7z M1402.7,354.7v166.7h166.7V354.7H1402.7z M1227.7,354.7v166.7h166.7V354.7H1227.7z
	 M1052.7,354.7v166.7h166.7V354.7H1052.7z M877.7,354.7v166.7h166.7V354.7H877.7z M702.7,354.7v166.7h166.7V354.7H702.7z
	 M527.7,354.7v166.7h166.7V354.7H527.7z M352.7,354.7v166.7h166.7V354.7H352.7z M177.7,354.7v166.7h166.7V354.7H177.7z
	 M5252.7,179.7v166.7h166.7V179.7H5252.7z M5077.7,179.7v166.7h166.7V179.7H5077.7z M4902.7,179.7v166.7h166.7V179.7H4902.7z
	 M4727.7,179.7v166.7h166.7V179.7H4727.7z M4552.7,179.7v166.7h166.7V179.7H4552.7z M4377.7,179.7v166.7h166.7V179.7H4377.7z
	 M4202.7,179.7v166.7h166.7V179.7H4202.7z M4027.7,179.7v166.7h166.7V179.7H4027.7z M3852.7,179.7v166.7h166.7V179.7H3852.7z
	 M3677.7,179.7v166.7h166.7V179.7H3677.7z M3502.7,179.7v166.7h166.7V179.7H3502.7z M3327.7,179.7v166.7h166.7V179.7H3327.7z
	 M3152.7,179.7v166.7h166.7V179.7H3152.7z M2977.7,179.7v166.7h166.7V179.7H2977.7z M2802.7,179.7v166.7h166.7V179.7H2802.7z
	 M2627.7,179.7v166.7h166.7V179.7H2627.7z M2452.7,179.7v166.7h166.7V179.7H2452.7z M2277.7,179.7v166.7h166.7V179.7H2277.7z
	 M2102.7,179.7v166.7h166.7V179.7H2102.7z M1927.7,179.7v166.7h166.7V179.7H1927.7z M1752.7,179.7v166.7h166.7V179.7H1752.7z
	 M1577.7,179.7v166.7h166.7V179.7H1577.7z M1402.7,179.7v166.7h166.7V179.7H1402.7z M1227.7,179.7v166.7h166.7V179.7H1227.7z
	 M1052.7,179.7v166.7h166.7V179.7H1052.7z M877.7,179.7v166.7h166.7V179.7H877.7z M702.7,179.7v166.7h166.7V179.7H702.7z
	 M527.7,179.7v166.7h166.7V179.7H527.7z M352.7,179.7v166.7h166.7V179.7H352.7z M177.7,179.7v166.7h166.7V179.7H177.7z M177.7,1
	v170.3h166.7V1h8.3v170.3h166.7V1h8.3v170.3h166.7V1h8.3v170.3h166.7V1h8.3v170.3h166.7V1h8.3v170.3h166.7V1h8.3v170.3h166.7V1h8.3
	v170.3h166.7V1h8.3v170.3h166.7V1h8.3v170.3h166.7V1h8.3v170.3h166.7V1h8.3v170.3h166.7V1h8.3v170.3h166.7V1h8.3v170.3h166.7V1h8.3
	v170.3h166.7V1h8.3v170.3h166.7V1h8.3v170.3h166.7V1h8.3v170.3h166.7V1h8.3v170.3h166.7V1h8.3v170.3h166.7V1h8.3v170.3h166.7V1h8.3
	v170.3h166.7V1h8.3v170.3h166.7V1h8.3v170.3h166.7V1h8.3v170.3h166.7V1h8.3v170.3h166.7V1h8.3v170.3h166.7V1h8.3v170.3h166.7V1h8.3
	v170.3h166.7V1h8.3v170.3h166.7V1h8.3v170.3H5599v8.3h-171.3v166.7H5599v8.3h-171.3v166.7H5599v8.3h-171.3v166.7H5599v8.3h-171.3
	v166.7H5599v8.3h-171.3v166.7H5599v8.3h-171.3v166.7H5599v8.3h-171.3v166.7H5599v8.3h-171.3v166.7H5599v8.3h-171.3v166.7H5599v8.3
	h-171.3v166.7H5599v8.3h-171.3v166.7H5599v8.3h-171.3v166.7H5599v8.3h-171.3v166.7H5599v8.3h-171.3v166.7H5599v8.3h-171.3v166.7
	H5599v8.3h-171.3v166.7H5599v8.3h-171.3v166.7H5599v8.3h-171.3v166.7H5599v8.3h-171.3v166.7H5599v8.3h-171.3v166.7H5599v8.3h-171.3
	v166.7H5599v8.3h-171.3v166.7H5599v8.3h-171.3V4201h-8.3v-171.3h-166.7V4201h-8.3v-171.3h-166.7V4201h-8.3v-171.3h-166.7V4201h-8.3
	v-171.3h-166.7V4201h-8.3v-171.3h-166.7V4201h-8.3v-171.3h-166.7V4201h-8.3v-171.3h-166.7V4201h-8.3v-171.3h-166.7V4201h-8.3v-171.3
	h-166.7V4201h-8.3v-171.3h-166.7V4201h-8.3v-171.3h-166.7V4201h-8.3v-171.3h-166.7V4201h-8.3v-171.3h-166.7V4201h-8.3v-171.3h-166.7
	V4201h-8.3v-171.3h-166.7V4201h-8.3v-171.3h-166.7V4201h-8.3v-171.3h-166.7V4201h-8.3v-171.3h-166.7V4201h-8.3v-171.3h-166.7V4201
	h-8.3v-171.3h-166.7V4201h-8.3v-171.3h-166.7V4201h-8.3v-171.3h-166.7V4201h-8.3v-171.3h-166.7V4201h-8.3v-171.3h-166.7V4201h-8.3
	v-171.3h-166.7V4201h-8.3v-171.3H877.7V4201h-8.3v-171.3H702.7V4201h-8.3v-171.3H527.7V4201h-8.3v-171.3H352.7V4201h-8.3v-171.3
	H177.7V4201h-8.3v-171.3H-1v-8.3h170.3v-166.7H-1v-8.3h170.3v-166.7H-1v-8.3h170.3v-166.7H-1v-8.3h170.3v-166.7H-1v-8.3h170.3
	v-166.7H-1v-8.3h170.3v-166.7H-1v-8.3h170.3v-166.7H-1v-8.3h170.3v-166.7H-1v-8.3h170.3v-166.7H-1v-8.3h170.3v-166.7H-1v-8.3h170.3
	v-166.7H-1v-8.3h170.3v-166.7H-1v-8.3h170.3v-166.7H-1v-8.3h170.3v-166.7H-1v-8.3h170.3v-166.7H-1v-8.3h170.3v-166.7H-1v-8.3h170.3
	v-166.7H-1v-8.3h170.3V879.7H-1v-8.3h170.3V704.7H-1v-8.3h170.3V529.7H-1v-8.3h170.3V354.7H-1v-8.3h170.3V179.7H-1v-8.3h170.3V1
	H177.7z"/>
<rect filter="url(#displacementFilter)" x="181" y="182.5" class="st1" width="5236" height="3836"/>
</svg>
