<?xml version="1.0" encoding="utf-8"?>
<!-- Generator: Adobe Illustrator 27.9.0, SVG Export Plug-In . SVG Version: 6.00 Build 0)  -->
<svg version="1.1" id="Layer_1" xmlns="http://www.w3.org/2000/svg" xmlns:xlink="http://www.w3.org/1999/xlink" x="0px" y="0px"
	 viewBox="0 0 122 170" style="enable-background:new 0 0 122 170;" xml:space="preserve">
<style type="text/css">
	.st0{clip-path:url(#SVGID_00000035528830426036569660000004679518278424992688_);}
</style>
<g>
	<defs>
		<path id="SVGID_1_" d="M8.4,158.2h-4v5.6h4V158.2z M8.4,152.2h-4v5.6h4V152.2z M8.4,146.2h-4v5.6h4V146.2z M8.4,140.2h-4v5.6h4
			V140.2z M8.4,134.2h-4v5.5h4V134.2z M8.4,128.2h-4v5.6h4V128.2z M8.4,122.2h-4v5.5h4V122.2z M8.4,116.2h-4v5.5h4V116.2z
			 M8.4,110.2h-4v5.5h4V110.2z M8.4,104.2h-4v5.6h4V104.2z M8.4,98.2h-4v5.5h4V98.2z M8.4,92.2h-4v5.5h4V92.2z M8.4,86.2h-4v5.5h4
			V86.2z M8.4,80.2h-4v5.6h4V80.2z M8.4,74.2h-4v5.6h4V74.2z M8.4,68.2h-4v5.5h4V68.2z M8.4,62.2h-4v5.5h4V62.2z M8.4,56.2h-4v5.5h4
			V56.2z M8.4,50.2h-4v5.6h4V50.2z M8.4,44.2h-4v5.5h4V44.2z M8.4,38.2h-4v5.5h4V38.2z M8.4,32.2h-4v5.5h4V32.2z M8.4,26.2h-4v5.6h4
			V26.2z M8.4,20.2h-4v5.5h4V20.2z M8.4,14.2h-4v5.5h4V14.2z M8.4,8.2h-4v5.5h4V8.2z M12.7,158.2h-4v5.6h4V158.2z M12.7,152.2h-4
			v5.6h4V152.2z M12.7,146.2h-4v5.6h4V146.2z M12.7,140.2h-4v5.6h4V140.2z M12.7,134.2h-4v5.5h4V134.2z M12.7,128.2h-4v5.6h4V128.2z
			 M12.7,122.2h-4v5.5h4V122.2z M12.7,116.2h-4v5.5h4V116.2z M12.7,110.2h-4v5.5h4V110.2z M12.7,104.2h-4v5.6h4V104.2z M12.7,98.2
			h-4v5.5h4V98.2z M12.7,92.2h-4v5.5h4V92.2z M12.7,86.2h-4v5.5h4V86.2z M12.7,80.2h-4v5.6h4V80.2z M12.7,74.2h-4v5.6h4V74.2z
			 M12.7,68.2h-4v5.5h4V68.2z M12.7,62.2h-4v5.5h4V62.2z M12.7,56.2h-4v5.5h4V56.2z M12.7,50.2h-4v5.6h4V50.2z M12.7,44.2h-4v5.5h4
			V44.2z M12.7,38.2h-4v5.5h4V38.2z M12.7,32.2h-4v5.5h4V32.2z M12.7,26.2h-4v5.6h4V26.2z M12.7,20.2h-4v5.5h4V20.2z M12.7,14.2h-4
			v5.5h4V14.2z M12.7,8.2h-4v5.5h4V8.2z M17,158.2h-4v5.6h4V158.2z M17,152.2h-4v5.6h4V152.2z M17,146.2h-4v5.6h4V146.2z M17,140.2
			h-4v5.6h4V140.2z M17,134.2h-4v5.5h4V134.2z M17,128.2h-4v5.6h4V128.2z M17,122.2h-4v5.5h4V122.2z M17,116.2h-4v5.5h4V116.2z
			 M17,110.2h-4v5.5h4V110.2z M17,104.2h-4v5.6h4V104.2z M17,98.2h-4v5.5h4V98.2z M17,92.2h-4v5.5h4V92.2z M17,86.2h-4v5.5h4V86.2z
			 M17,80.2h-4v5.6h4V80.2z M17,74.2h-4v5.6h4V74.2z M17,68.2h-4v5.5h4V68.2z M17,62.2h-4v5.5h4V62.2z M17,56.2h-4v5.5h4V56.2z
			 M17,50.2h-4v5.6h4V50.2z M17,44.2h-4v5.5h4V44.2z M17,38.2h-4v5.5h4V38.2z M17,32.2h-4v5.5h4V32.2z M17,26.2h-4v5.6h4V26.2z
			 M17,20.2h-4v5.5h4V20.2z M17,14.2h-4v5.5h4V14.2z M17,8.2h-4v5.5h4V8.2z M21.3,158.2h-4v5.6h4V158.2z M21.3,152.2h-4v5.6h4V152.2
			z M21.3,146.2h-4v5.6h4V146.2z M21.3,140.2h-4v5.6h4V140.2z M21.3,134.2h-4v5.5h4V134.2z M21.3,128.2h-4v5.6h4V128.2z M21.3,122.2
			h-4v5.5h4V122.2z M21.3,116.2h-4v5.5h4V116.2z M21.3,110.2h-4v5.5h4V110.2z M21.3,104.2h-4v5.6h4V104.2z M21.3,98.2h-4v5.5h4V98.2
			z M21.3,92.2h-4v5.5h4V92.2z M21.3,86.2h-4v5.5h4V86.2z M21.3,80.2h-4v5.6h4V80.2z M21.3,74.2h-4v5.6h4V74.2z M21.3,68.2h-4v5.5h4
			V68.2z M21.3,62.2h-4v5.5h4V62.2z M21.3,56.2h-4v5.5h4V56.2z M21.3,50.2h-4v5.6h4V50.2z M21.3,44.2h-4v5.5h4V44.2z M21.3,38.2h-4
			v5.5h4V38.2z M21.3,32.2h-4v5.5h4V32.2z M21.3,26.2h-4v5.6h4V26.2z M21.3,20.2h-4v5.5h4V20.2z M21.3,14.2h-4v5.5h4V14.2z
			 M21.3,8.2h-4v5.5h4V8.2z M25.6,158.2h-4v5.6h4V158.2z M25.6,152.2h-4v5.6h4V152.2z M25.6,146.2h-4v5.6h4V146.2z M25.6,140.2h-4
			v5.6h4V140.2z M25.6,134.2h-4v5.5h4V134.2z M25.6,128.2h-4v5.6h4V128.2z M25.6,122.2h-4v5.5h4V122.2z M25.6,116.2h-4v5.5h4V116.2z
			 M25.6,110.2h-4v5.5h4V110.2z M25.6,104.2h-4v5.6h4V104.2z M25.6,98.2h-4v5.5h4V98.2z M25.6,92.2h-4v5.5h4V92.2z M25.6,86.2h-4
			v5.5h4V86.2z M25.6,80.2h-4v5.6h4V80.2z M25.6,74.2h-4v5.6h4V74.2z M25.6,68.2h-4v5.5h4V68.2z M25.6,62.2h-4v5.5h4V62.2z
			 M25.6,56.2h-4v5.5h4V56.2z M25.6,50.2h-4v5.6h4V50.2z M25.6,44.2h-4v5.5h4V44.2z M25.6,38.2h-4v5.5h4V38.2z M25.6,32.2h-4v5.5h4
			V32.2z M25.6,26.2h-4v5.6h4V26.2z M25.6,20.2h-4v5.5h4V20.2z M25.6,14.2h-4v5.5h4V14.2z M25.6,8.2h-4v5.5h4V8.2z M29.8,158.2h-4
			v5.6h4V158.2z M29.8,152.2h-4v5.6h4V152.2z M29.8,146.2h-4v5.6h4V146.2z M29.8,140.2h-4v5.6h4V140.2z M29.8,134.2h-4v5.5h4V134.2z
			 M29.8,128.2h-4v5.6h4V128.2z M29.8,122.2h-4v5.5h4V122.2z M29.8,116.2h-4v5.5h4V116.2z M29.8,110.2h-4v5.5h4V110.2z M29.8,104.2
			h-4v5.6h4V104.2z M29.8,98.2h-4v5.5h4V98.2z M29.8,92.2h-4v5.5h4V92.2z M29.8,86.2h-4v5.5h4V86.2z M29.8,80.2h-4v5.6h4V80.2z
			 M29.8,74.2h-4v5.6h4V74.2z M29.8,68.2h-4v5.5h4V68.2z M29.8,62.2h-4v5.5h4V62.2z M29.8,56.2h-4v5.5h4V56.2z M29.8,50.2h-4v5.6h4
			V50.2z M29.8,44.2h-4v5.5h4V44.2z M29.8,38.2h-4v5.5h4V38.2z M29.8,32.2h-4v5.5h4V32.2z M29.8,26.2h-4v5.6h4V26.2z M29.8,20.2h-4
			v5.5h4V20.2z M29.8,14.2h-4v5.5h4V14.2z M29.8,8.2h-4v5.5h4V8.2z M34.1,158.2h-4v5.6h4V158.2z M34.1,152.2h-4v5.6h4V152.2z
			 M34.1,146.2h-4v5.6h4V146.2z M34.1,140.2h-4v5.6h4V140.2z M34.1,134.2h-4v5.5h4V134.2z M34.1,128.2h-4v5.6h4V128.2z M34.1,122.2
			h-4v5.5h4V122.2z M34.1,116.2h-4v5.5h4V116.2z M34.1,110.2h-4v5.5h4V110.2z M34.1,104.2h-4v5.6h4V104.2z M34.1,98.2h-4v5.5h4V98.2
			z M34.1,92.2h-4v5.5h4V92.2z M34.1,86.2h-4v5.5h4V86.2z M34.1,80.2h-4v5.6h4V80.2z M34.1,74.2h-4v5.6h4V74.2z M34.1,68.2h-4v5.5h4
			V68.2z M34.1,62.2h-4v5.5h4V62.2z M34.1,56.2h-4v5.5h4V56.2z M34.1,50.2h-4v5.6h4V50.2z M34.1,44.2h-4v5.5h4V44.2z M34.1,38.2h-4
			v5.5h4V38.2z M34.1,32.2h-4v5.5h4V32.2z M34.1,26.2h-4v5.6h4V26.2z M34.1,20.2h-4v5.5h4V20.2z M34.1,14.2h-4v5.5h4V14.2z
			 M34.1,8.2h-4v5.5h4V8.2z M38.4,158.2h-4v5.6h4V158.2z M38.4,152.2h-4v5.6h4V152.2z M38.4,146.2h-4v5.6h4V146.2z M38.4,140.2h-4
			v5.6h4V140.2z M38.4,134.2h-4v5.5h4V134.2z M38.4,128.2h-4v5.6h4V128.2z M38.4,122.2h-4v5.5h4V122.2z M38.4,116.2h-4v5.5h4V116.2z
			 M38.4,110.2h-4v5.5h4V110.2z M38.4,104.2h-4v5.6h4V104.2z M38.4,98.2h-4v5.5h4V98.2z M38.4,92.2h-4v5.5h4V92.2z M38.4,86.2h-4
			v5.5h4V86.2z M38.4,80.2h-4v5.6h4V80.2z M38.4,74.2h-4v5.6h4V74.2z M38.4,68.2h-4v5.5h4V68.2z M38.4,62.2h-4v5.5h4V62.2z
			 M38.4,56.2h-4v5.5h4V56.2z M38.4,50.2h-4v5.6h4V50.2z M38.4,44.2h-4v5.5h4V44.2z M38.4,38.2h-4v5.5h4V38.2z M38.4,32.2h-4v5.5h4
			V32.2z M38.4,26.2h-4v5.6h4V26.2z M38.4,20.2h-4v5.5h4V20.2z M38.4,14.2h-4v5.5h4V14.2z M38.4,8.2h-4v5.5h4V8.2z M42.7,158.2h-4
			v5.6h4V158.2z M42.7,152.2h-4v5.6h4V152.2z M42.7,146.2h-4v5.6h4V146.2z M42.7,140.2h-4v5.6h4V140.2z M42.7,134.2h-4v5.5h4V134.2z
			 M42.7,128.2h-4v5.6h4V128.2z M42.7,122.2h-4v5.5h4V122.2z M42.7,116.2h-4v5.5h4V116.2z M42.7,110.2h-4v5.5h4V110.2z M42.7,104.2
			h-4v5.6h4V104.2z M42.7,98.2h-4v5.5h4V98.2z M42.7,92.2h-4v5.5h4V92.2z M42.7,86.2h-4v5.5h4V86.2z M42.7,80.2h-4v5.6h4V80.2z
			 M42.7,74.2h-4v5.6h4V74.2z M42.7,68.2h-4v5.5h4V68.2z M42.7,62.2h-4v5.5h4V62.2z M42.7,56.2h-4v5.5h4V56.2z M42.7,50.2h-4v5.6h4
			V50.2z M42.7,44.2h-4v5.5h4V44.2z M42.7,38.2h-4v5.5h4V38.2z M42.7,32.2h-4v5.5h4V32.2z M42.7,26.2h-4v5.6h4V26.2z M42.7,20.2h-4
			v5.5h4V20.2z M42.7,14.2h-4v5.5h4V14.2z M42.7,8.2h-4v5.5h4V8.2z M47,158.2h-4v5.6h4V158.2z M47,152.2h-4v5.6h4V152.2z M47,146.2
			h-4v5.6h4V146.2z M47,140.2h-4v5.6h4V140.2z M47,134.2h-4v5.5h4V134.2z M47,128.2h-4v5.6h4V128.2z M47,122.2h-4v5.5h4V122.2z
			 M47,116.2h-4v5.5h4V116.2z M47,110.2h-4v5.5h4V110.2z M47,104.2h-4v5.6h4V104.2z M47,98.2h-4v5.5h4V98.2z M47,92.2h-4v5.5h4V92.2
			z M47,86.2h-4v5.5h4V86.2z M47,80.2h-4v5.6h4V80.2z M47,74.2h-4v5.6h4V74.2z M47,68.2h-4v5.5h4V68.2z M47,62.2h-4v5.5h4V62.2z
			 M47,56.2h-4v5.5h4V56.2z M47,50.2h-4v5.6h4V50.2z M47,44.2h-4v5.5h4V44.2z M47,38.2h-4v5.5h4V38.2z M47,32.2h-4v5.5h4V32.2z
			 M47,26.2h-4v5.6h4V26.2z M47,20.2h-4v5.5h4V20.2z M47,14.2h-4v5.5h4V14.2z M47,8.2h-4v5.5h4V8.2z M51.3,158.2h-4v5.6h4V158.2z
			 M51.3,152.2h-4v5.6h4V152.2z M51.3,146.2h-4v5.6h4V146.2z M51.3,140.2h-4v5.6h4V140.2z M51.3,134.2h-4v5.5h4V134.2z M51.3,128.2
			h-4v5.6h4V128.2z M51.3,122.2h-4v5.5h4V122.2z M51.3,116.2h-4v5.5h4V116.2z M51.3,110.2h-4v5.5h4V110.2z M51.3,104.2h-4v5.6h4
			V104.2z M51.3,98.2h-4v5.5h4V98.2z M51.3,92.2h-4v5.5h4V92.2z M51.3,86.2h-4v5.5h4V86.2z M51.3,80.2h-4v5.6h4V80.2z M51.3,74.2h-4
			v5.6h4V74.2z M51.3,68.2h-4v5.5h4V68.2z M51.3,62.2h-4v5.5h4V62.2z M51.3,56.2h-4v5.5h4V56.2z M51.3,50.2h-4v5.6h4V50.2z
			 M51.3,44.2h-4v5.5h4V44.2z M51.3,38.2h-4v5.5h4V38.2z M51.3,32.2h-4v5.5h4V32.2z M51.3,26.2h-4v5.6h4V26.2z M51.3,20.2h-4v5.5h4
			V20.2z M51.3,14.2h-4v5.5h4V14.2z M51.3,8.2h-4v5.5h4V8.2z M55.6,158.2h-4v5.6h4V158.2z M55.6,152.2h-4v5.6h4V152.2z M55.6,146.2
			h-4v5.6h4V146.2z M55.6,140.2h-4v5.6h4V140.2z M55.6,134.2h-4v5.5h4V134.2z M55.6,128.2h-4v5.6h4V128.2z M55.6,122.2h-4v5.5h4
			V122.2z M55.6,116.2h-4v5.5h4V116.2z M55.6,110.2h-4v5.5h4V110.2z M55.6,104.2h-4v5.6h4V104.2z M55.6,98.2h-4v5.5h4V98.2z
			 M55.6,92.2h-4v5.5h4V92.2z M55.6,86.2h-4v5.5h4V86.2z M55.6,80.2h-4v5.6h4V80.2z M55.6,74.2h-4v5.6h4V74.2z M55.6,68.2h-4v5.5h4
			V68.2z M55.6,62.2h-4v5.5h4V62.2z M55.6,56.2h-4v5.5h4V56.2z M55.6,50.2h-4v5.6h4V50.2z M55.6,44.2h-4v5.5h4V44.2z M55.6,38.2h-4
			v5.5h4V38.2z M55.6,32.2h-4v5.5h4V32.2z M55.6,26.2h-4v5.6h4V26.2z M55.6,20.2h-4v5.5h4V20.2z M55.6,14.2h-4v5.5h4V14.2z
			 M55.6,8.2h-4v5.5h4V8.2z M59.8,158.2h-4v5.6h4V158.2z M59.8,152.2h-4v5.6h4V152.2z M59.8,146.2h-4v5.6h4V146.2z M59.8,140.2h-4
			v5.6h4V140.2z M59.8,134.2h-4v5.5h4V134.2z M59.8,128.2h-4v5.6h4V128.2z M59.8,122.2h-4v5.5h4V122.2z M59.8,116.2h-4v5.5h4V116.2z
			 M59.8,110.2h-4v5.5h4V110.2z M59.8,104.2h-4v5.6h4V104.2z M59.8,98.2h-4v5.5h4V98.2z M59.8,92.2h-4v5.5h4V92.2z M59.8,86.2h-4
			v5.5h4V86.2z M59.8,80.2h-4v5.6h4V80.2z M59.8,74.2h-4v5.6h4V74.2z M59.8,68.2h-4v5.5h4V68.2z M59.8,62.2h-4v5.5h4V62.2z
			 M59.8,56.2h-4v5.5h4V56.2z M59.8,50.2h-4v5.6h4V50.2z M59.8,44.2h-4v5.5h4V44.2z M59.8,38.2h-4v5.5h4V38.2z M59.8,32.2h-4v5.5h4
			V32.2z M59.8,26.2h-4v5.6h4V26.2z M59.8,20.2h-4v5.5h4V20.2z M59.8,14.2h-4v5.5h4V14.2z M59.8,8.2h-4v5.5h4V8.2z M64.1,158.2h-4
			v5.6h4V158.2z M64.1,152.2h-4v5.6h4V152.2z M64.1,146.2h-4v5.6h4V146.2z M64.1,140.2h-4v5.6h4V140.2z M64.1,134.2h-4v5.5h4V134.2z
			 M64.1,128.2h-4v5.6h4V128.2z M64.1,122.2h-4v5.5h4V122.2z M64.1,116.2h-4v5.5h4V116.2z M64.1,110.2h-4v5.5h4V110.2z M64.1,104.2
			h-4v5.6h4V104.2z M64.1,98.2h-4v5.5h4V98.2z M64.1,92.2h-4v5.5h4V92.2z M64.1,86.2h-4v5.5h4V86.2z M64.1,80.2h-4v5.6h4V80.2z
			 M64.1,74.2h-4v5.6h4V74.2z M64.1,68.2h-4v5.5h4V68.2z M64.1,62.2h-4v5.5h4V62.2z M64.1,56.2h-4v5.5h4V56.2z M64.1,50.2h-4v5.6h4
			V50.2z M64.1,44.2h-4v5.5h4V44.2z M64.1,38.2h-4v5.5h4V38.2z M64.1,32.2h-4v5.5h4V32.2z M64.1,26.2h-4v5.6h4V26.2z M64.1,20.2h-4
			v5.5h4V20.2z M64.1,14.2h-4v5.5h4V14.2z M64.1,8.2h-4v5.5h4V8.2z M68.4,158.2h-4v5.6h4V158.2z M68.4,152.2h-4v5.6h4V152.2z
			 M68.4,146.2h-4v5.6h4V146.2z M68.4,140.2h-4v5.6h4V140.2z M68.4,134.2h-4v5.5h4V134.2z M68.4,128.2h-4v5.6h4V128.2z M68.4,122.2
			h-4v5.5h4V122.2z M68.4,116.2h-4v5.5h4V116.2z M68.4,110.2h-4v5.5h4V110.2z M68.4,104.2h-4v5.6h4V104.2z M68.4,98.2h-4v5.5h4V98.2
			z M68.4,92.2h-4v5.5h4V92.2z M68.4,86.2h-4v5.5h4V86.2z M68.4,80.2h-4v5.6h4V80.2z M68.4,74.2h-4v5.6h4V74.2z M68.4,68.2h-4v5.5h4
			V68.2z M68.4,62.2h-4v5.5h4V62.2z M68.4,56.2h-4v5.5h4V56.2z M68.4,50.2h-4v5.6h4V50.2z M68.4,44.2h-4v5.5h4V44.2z M68.4,38.2h-4
			v5.5h4V38.2z M68.4,32.2h-4v5.5h4V32.2z M68.4,26.2h-4v5.6h4V26.2z M68.4,20.2h-4v5.5h4V20.2z M68.4,14.2h-4v5.5h4V14.2z
			 M68.4,8.2h-4v5.5h4V8.2z M72.7,158.2h-4v5.6h4V158.2z M72.7,152.2h-4v5.6h4V152.2z M72.7,146.2h-4v5.6h4V146.2z M72.7,140.2h-4
			v5.6h4V140.2z M72.7,134.2h-4v5.5h4V134.2z M72.7,128.2h-4v5.6h4V128.2z M72.7,122.2h-4v5.5h4V122.2z M72.7,116.2h-4v5.5h4V116.2z
			 M72.7,110.2h-4v5.5h4V110.2z M72.7,104.2h-4v5.6h4V104.2z M72.7,98.2h-4v5.5h4V98.2z M72.7,92.2h-4v5.5h4V92.2z M72.7,86.2h-4
			v5.5h4V86.2z M72.7,80.2h-4v5.6h4V80.2z M72.7,74.2h-4v5.6h4V74.2z M72.7,68.2h-4v5.5h4V68.2z M72.7,62.2h-4v5.5h4V62.2z
			 M72.7,56.2h-4v5.5h4V56.2z M72.7,50.2h-4v5.6h4V50.2z M72.7,44.2h-4v5.5h4V44.2z M72.7,38.2h-4v5.5h4V38.2z M72.7,32.2h-4v5.5h4
			V32.2z M72.7,26.2h-4v5.6h4V26.2z M72.7,20.2h-4v5.5h4V20.2z M72.7,14.2h-4v5.5h4V14.2z M72.7,8.2h-4v5.5h4V8.2z M77,158.2h-4v5.6
			h4V158.2z M77,152.2h-4v5.6h4V152.2z M77,146.2h-4v5.6h4V146.2z M77,140.2h-4v5.6h4V140.2z M77,134.2h-4v5.5h4V134.2z M77,128.2
			h-4v5.6h4V128.2z M77,122.2h-4v5.5h4V122.2z M77,116.2h-4v5.5h4V116.2z M77,110.2h-4v5.5h4V110.2z M77,104.2h-4v5.6h4V104.2z
			 M77,98.2h-4v5.5h4V98.2z M77,92.2h-4v5.5h4V92.2z M77,86.2h-4v5.5h4V86.2z M77,80.2h-4v5.6h4V80.2z M77,74.2h-4v5.6h4V74.2z
			 M77,68.2h-4v5.5h4V68.2z M77,62.2h-4v5.5h4V62.2z M77,56.2h-4v5.5h4V56.2z M77,50.2h-4v5.6h4V50.2z M77,44.2h-4v5.5h4V44.2z
			 M77,38.2h-4v5.5h4V38.2z M77,32.2h-4v5.5h4V32.2z M77,26.2h-4v5.6h4V26.2z M77,20.2h-4v5.5h4V20.2z M77,14.2h-4v5.5h4V14.2z
			 M77,8.2h-4v5.5h4V8.2z M81.3,158.2h-4v5.6h4V158.2z M81.3,152.2h-4v5.6h4V152.2z M81.3,146.2h-4v5.6h4V146.2z M81.3,140.2h-4v5.6
			h4V140.2z M81.3,134.2h-4v5.5h4V134.2z M81.3,128.2h-4v5.6h4V128.2z M81.3,122.2h-4v5.5h4V122.2z M81.3,116.2h-4v5.5h4V116.2z
			 M81.3,110.2h-4v5.5h4V110.2z M81.3,104.2h-4v5.6h4V104.2z M81.3,98.2h-4v5.5h4V98.2z M81.3,92.2h-4v5.5h4V92.2z M81.3,86.2h-4
			v5.5h4V86.2z M81.3,80.2h-4v5.6h4V80.2z M81.3,74.2h-4v5.6h4V74.2z M81.3,68.2h-4v5.5h4V68.2z M81.3,62.2h-4v5.5h4V62.2z
			 M81.3,56.2h-4v5.5h4V56.2z M81.3,50.2h-4v5.6h4V50.2z M81.3,44.2h-4v5.5h4V44.2z M81.3,38.2h-4v5.5h4V38.2z M81.3,32.2h-4v5.5h4
			V32.2z M81.3,26.2h-4v5.6h4V26.2z M81.3,20.2h-4v5.5h4V20.2z M81.3,14.2h-4v5.5h4V14.2z M81.3,8.2h-4v5.5h4V8.2z M85.6,158.2h-4
			v5.6h4V158.2z M85.6,152.2h-4v5.6h4V152.2z M85.6,146.2h-4v5.6h4V146.2z M85.6,140.2h-4v5.6h4V140.2z M85.6,134.2h-4v5.5h4V134.2z
			 M85.6,128.2h-4v5.6h4V128.2z M85.6,122.2h-4v5.5h4V122.2z M85.6,116.2h-4v5.5h4V116.2z M85.6,110.2h-4v5.5h4V110.2z M85.6,104.2
			h-4v5.6h4V104.2z M85.6,98.2h-4v5.5h4V98.2z M85.6,92.2h-4v5.5h4V92.2z M85.6,86.2h-4v5.5h4V86.2z M85.6,80.2h-4v5.6h4V80.2z
			 M85.6,74.2h-4v5.6h4V74.2z M85.6,68.2h-4v5.5h4V68.2z M85.6,62.2h-4v5.5h4V62.2z M85.6,56.2h-4v5.5h4V56.2z M85.6,50.2h-4v5.6h4
			V50.2z M85.6,44.2h-4v5.5h4V44.2z M85.6,38.2h-4v5.5h4V38.2z M85.6,32.2h-4v5.5h4V32.2z M85.6,26.2h-4v5.6h4V26.2z M85.6,20.2h-4
			v5.5h4V20.2z M85.6,14.2h-4v5.5h4V14.2z M85.6,8.2h-4v5.5h4V8.2z M89.8,158.2h-4v5.6h4V158.2z M89.8,152.2h-4v5.6h4V152.2z
			 M89.8,146.2h-4v5.6h4V146.2z M89.8,140.2h-4v5.6h4V140.2z M89.8,134.2h-4v5.5h4V134.2z M89.8,128.2h-4v5.6h4V128.2z M89.8,122.2
			h-4v5.5h4V122.2z M89.8,116.2h-4v5.5h4V116.2z M89.8,110.2h-4v5.5h4V110.2z M89.8,104.2h-4v5.6h4V104.2z M89.8,98.2h-4v5.5h4V98.2
			z M89.8,92.2h-4v5.5h4V92.2z M89.8,86.2h-4v5.5h4V86.2z M89.8,80.2h-4v5.6h4V80.2z M89.8,74.2h-4v5.6h4V74.2z M89.8,68.2h-4v5.5h4
			V68.2z M89.8,62.2h-4v5.5h4V62.2z M89.8,56.2h-4v5.5h4V56.2z M89.8,50.2h-4v5.6h4V50.2z M89.8,44.2h-4v5.5h4V44.2z M89.8,38.2h-4
			v5.5h4V38.2z M89.8,32.2h-4v5.5h4V32.2z M89.8,26.2h-4v5.6h4V26.2z M89.8,20.2h-4v5.5h4V20.2z M89.8,14.2h-4v5.5h4V14.2z
			 M89.8,8.2h-4v5.5h4V8.2z M94.1,158.2h-4v5.6h4V158.2z M94.1,152.2h-4v5.6h4V152.2z M94.1,146.2h-4v5.6h4V146.2z M94.1,140.2h-4
			v5.6h4V140.2z M94.1,134.2h-4v5.5h4V134.2z M94.1,128.2h-4v5.6h4V128.2z M94.1,122.2h-4v5.5h4V122.2z M94.1,116.2h-4v5.5h4V116.2z
			 M94.1,110.2h-4v5.5h4V110.2z M94.1,104.2h-4v5.6h4V104.2z M94.1,98.2h-4v5.5h4V98.2z M94.1,92.2h-4v5.5h4V92.2z M94.1,86.2h-4
			v5.5h4V86.2z M94.1,80.2h-4v5.6h4V80.2z M94.1,74.2h-4v5.6h4V74.2z M94.1,68.2h-4v5.5h4V68.2z M94.1,62.2h-4v5.5h4V62.2z
			 M94.1,56.2h-4v5.5h4V56.2z M94.1,50.2h-4v5.6h4V50.2z M94.1,44.2h-4v5.5h4V44.2z M94.1,38.2h-4v5.5h4V38.2z M94.1,32.2h-4v5.5h4
			V32.2z M94.1,26.2h-4v5.6h4V26.2z M94.1,20.2h-4v5.5h4V20.2z M94.1,14.2h-4v5.5h4V14.2z M94.1,8.2h-4v5.5h4V8.2z M98.4,158.2h-4
			v5.6h4V158.2z M98.4,152.2h-4v5.6h4V152.2z M98.4,146.2h-4v5.6h4V146.2z M98.4,140.2h-4v5.6h4V140.2z M98.4,134.2h-4v5.5h4V134.2z
			 M98.4,128.2h-4v5.6h4V128.2z M98.4,122.2h-4v5.5h4V122.2z M98.4,116.2h-4v5.5h4V116.2z M98.4,110.2h-4v5.5h4V110.2z M98.4,104.2
			h-4v5.6h4V104.2z M98.4,98.2h-4v5.5h4V98.2z M98.4,92.2h-4v5.5h4V92.2z M98.4,86.2h-4v5.5h4V86.2z M98.4,80.2h-4v5.6h4V80.2z
			 M98.4,74.2h-4v5.6h4V74.2z M98.4,68.2h-4v5.5h4V68.2z M98.4,62.2h-4v5.5h4V62.2z M98.4,56.2h-4v5.5h4V56.2z M98.4,50.2h-4v5.6h4
			V50.2z M98.4,44.2h-4v5.5h4V44.2z M98.4,38.2h-4v5.5h4V38.2z M98.4,32.2h-4v5.5h4V32.2z M98.4,26.2h-4v5.6h4V26.2z M98.4,20.2h-4
			v5.5h4V20.2z M98.4,14.2h-4v5.5h4V14.2z M98.4,8.2h-4v5.5h4V8.2z M102.7,158.2h-4v5.6h4V158.2z M102.7,152.2h-4v5.6h4V152.2z
			 M102.7,146.2h-4v5.6h4V146.2z M102.7,140.2h-4v5.6h4V140.2z M102.7,134.2h-4v5.5h4V134.2z M102.7,128.2h-4v5.6h4V128.2z
			 M102.7,122.2h-4v5.5h4V122.2z M102.7,116.2h-4v5.5h4V116.2z M102.7,110.2h-4v5.5h4V110.2z M102.7,104.2h-4v5.6h4V104.2z
			 M102.7,98.2h-4v5.5h4V98.2z M102.7,92.2h-4v5.5h4V92.2z M102.7,86.2h-4v5.5h4V86.2z M102.7,80.2h-4v5.6h4V80.2z M102.7,74.2h-4
			v5.6h4V74.2z M102.7,68.2h-4v5.5h4V68.2z M102.7,62.2h-4v5.5h4V62.2z M102.7,56.2h-4v5.5h4V56.2z M102.7,50.2h-4v5.6h4V50.2z
			 M102.7,44.2h-4v5.5h4V44.2z M102.7,38.2h-4v5.5h4V38.2z M102.7,32.2h-4v5.5h4V32.2z M102.7,26.2h-4v5.6h4V26.2z M102.7,20.2h-4
			v5.5h4V20.2z M102.7,14.2h-4v5.5h4V14.2z M102.7,8.2h-4v5.5h4V8.2z M107,158.2h-4v5.6h4V158.2z M107,152.2h-4v5.6h4V152.2z
			 M107,146.2h-4v5.6h4V146.2z M107,140.2h-4v5.6h4V140.2z M107,134.2h-4v5.5h4V134.2z M107,128.2h-4v5.6h4V128.2z M107,122.2h-4
			v5.5h4V122.2z M107,116.2h-4v5.5h4V116.2z M107,110.2h-4v5.5h4V110.2z M107,104.2h-4v5.6h4V104.2z M107,98.2h-4v5.5h4V98.2z
			 M107,92.2h-4v5.5h4V92.2z M107,86.2h-4v5.5h4V86.2z M107,80.2h-4v5.6h4V80.2z M107,74.2h-4v5.6h4V74.2z M107,68.2h-4v5.5h4V68.2z
			 M107,62.2h-4v5.5h4V62.2z M107,56.2h-4v5.5h4V56.2z M107,50.2h-4v5.6h4V50.2z M107,44.2h-4v5.5h4V44.2z M107,38.2h-4v5.5h4V38.2z
			 M107,32.2h-4v5.5h4V32.2z M107,26.2h-4v5.6h4V26.2z M107,20.2h-4v5.5h4V20.2z M107,14.2h-4v5.5h4V14.2z M107,8.2h-4v5.5h4V8.2z
			 M111.3,158.2h-4v5.6h4V158.2z M111.3,152.2h-4v5.6h4V152.2z M111.3,146.2h-4v5.6h4V146.2z M111.3,140.2h-4v5.6h4V140.2z
			 M111.3,134.2h-4v5.5h4V134.2z M111.3,128.2h-4v5.6h4V128.2z M111.3,122.2h-4v5.5h4V122.2z M111.3,116.2h-4v5.5h4V116.2z
			 M111.3,110.2h-4v5.5h4V110.2z M111.3,104.2h-4v5.6h4V104.2z M111.3,98.2h-4v5.5h4V98.2z M111.3,92.2h-4v5.5h4V92.2z M111.3,86.2
			h-4v5.5h4V86.2z M111.3,80.2h-4v5.6h4V80.2z M111.3,74.2h-4v5.6h4V74.2z M111.3,68.2h-4v5.5h4V68.2z M111.3,62.2h-4v5.5h4V62.2z
			 M111.3,56.2h-4v5.5h4V56.2z M111.3,50.2h-4v5.6h4V50.2z M111.3,44.2h-4v5.5h4V44.2z M111.3,38.2h-4v5.5h4V38.2z M111.3,32.2h-4
			v5.5h4V32.2z M111.3,26.2h-4v5.6h4V26.2z M111.3,20.2h-4v5.5h4V20.2z M111.3,14.2h-4v5.5h4V14.2z M111.3,8.2h-4v5.5h4V8.2z
			 M115.6,158.2h-4v5.6h4V158.2z M115.6,152.2h-4v5.6h4V152.2z M115.6,146.2h-4v5.6h4V146.2z M115.6,140.2h-4v5.6h4V140.2z
			 M115.6,134.2h-4v5.5h4V134.2z M115.6,128.2h-4v5.6h4V128.2z M115.6,122.2h-4v5.5h4V122.2z M115.6,116.2h-4v5.5h4V116.2z
			 M115.6,110.2h-4v5.5h4V110.2z M115.6,104.2h-4v5.6h4V104.2z M115.6,98.2h-4v5.5h4V98.2z M115.6,92.2h-4v5.5h4V92.2z M115.6,86.2
			h-4v5.5h4V86.2z M115.6,80.2h-4v5.6h4V80.2z M115.6,74.2h-4v5.6h4V74.2z M115.6,68.2h-4v5.5h4V68.2z M115.6,62.2h-4v5.5h4V62.2z
			 M115.6,56.2h-4v5.5h4V56.2z M115.6,50.2h-4v5.6h4V50.2z M115.6,44.2h-4v5.5h4V44.2z M115.6,38.2h-4v5.5h4V38.2z M115.6,32.2h-4
			v5.5h4V32.2z M115.6,26.2h-4v5.6h4V26.2z M115.6,20.2h-4v5.5h4V20.2z M115.6,14.2h-4v5.5h4V14.2z M115.6,8.2h-4v5.5h4V8.2z M0,7.8
			h4.1V2h0.3v5.8h4V2h0.3v5.8h4V2H13v5.8h4V2h0.3v5.8h4V2h0.3v5.8h4V2h0.3v5.8h4V2h0.3v5.8h4V2h0.3v5.8h4V2h0.3v5.8h4V2H43v5.8h4V2
			h0.3v5.8h4V2h0.3v5.8h4V2h0.3v5.8h4V2h0.3v5.8h4V2h0.3v5.8h4V2h0.3v5.8h4V2H73v5.8h4V2h0.3v5.8h4V2h0.3v5.8h4V2h0.3v5.8h4V2h0.3
			v5.8h4V2h0.3v5.8h4V2h0.3v5.8h4V2h0.3v5.8h4V2h0.3v5.8h4V2h0.3v5.8h4V2h0.3v5.8h4.1v0.5h-4.1v5.5h4.1v0.5h-4.1v5.5h4.1v0.5h-4.1
			v5.5h4.1v0.4h-4.1v5.6h4.1v0.4h-4.1v5.5h4.1v0.5h-4.1v5.5h4.1v0.5h-4.1v5.5h4.1v0.4h-4.1v5.6h4.1v0.4h-4.1v5.5h4.1v0.5h-4.1v5.5
			h4.1v0.5h-4.1v5.5h4.1v0.4h-4.1v5.6h4.1v0.4h-4.1v5.6h4.1v0.4h-4.1v5.5h4.1v0.5h-4.1v5.5h4.1v0.5h-4.1v5.5h4.1v0.4h-4.1v5.6h4.1
			v0.4h-4.1v5.5h4.1v0.5h-4.1v5.5h4.1v0.5h-4.1v5.5h4.1v0.4h-4.1v5.6h4.1v0.4h-4.1v5.5h4.1v0.5h-4.1v5.6h4.1v0.5h-4.1v5.6h4.1v0.4
			h-4.1v5.6h4.1v0.4h-4.1v5.6h4.1v0.4h-4.1v5.8h-0.3v-5.8h-4v5.8h-0.3v-5.8h-4v5.8H107v-5.8h-4v5.8h-0.3v-5.8h-4v5.8h-0.3v-5.8h-4
			v5.8h-0.3v-5.8h-4v5.8h-0.3v-5.8h-4v5.8h-0.3v-5.8h-4v5.8h-0.3v-5.8h-4v5.8H77v-5.8h-4v5.8h-0.3v-5.8h-4v5.8h-0.3v-5.8h-4v5.8
			h-0.3v-5.8h-4v5.8h-0.3v-5.8h-4v5.8h-0.3v-5.8h-4v5.8h-0.3v-5.8h-4v5.8H47v-5.8h-4v5.8h-0.3v-5.8h-4v5.8h-0.3v-5.8h-4v5.8h-0.3
			v-5.8h-4v5.8h-0.3v-5.8h-4v5.8h-0.3v-5.8h-4v5.8h-0.3v-5.8h-4v5.8H17v-5.8h-4v5.8h-0.3v-5.8h-4v5.8H8.4v-5.8h-4v5.8H4.1v-5.8H0
			v-0.4h4.1v-5.6H0v-0.4h4.1v-5.6H0v-0.4h4.1v-5.6H0v-0.5h4.1v-5.6H0v-0.5h4.1v-5.5H0v-0.4h4.1v-5.6H0v-0.4h4.1v-5.5H0v-0.5h4.1
			v-5.5H0v-0.5h4.1v-5.5H0v-0.4h4.1v-5.6H0v-0.4h4.1v-5.5H0v-0.5h4.1v-5.5H0v-0.5h4.1v-5.5H0v-0.4h4.1v-5.6H0v-0.4h4.1v-5.6H0v-0.4
			h4.1v-5.5H0v-0.5h4.1v-5.5H0v-0.5h4.1v-5.5H0v-0.4h4.1v-5.6H0v-0.4h4.1v-5.5H0v-0.5h4.1v-5.5H0v-0.5h4.1v-5.5H0v-0.4h4.1v-5.6H0
			v-0.4h4.1v-5.5H0v-0.5h4.1v-5.5H0v-0.5h4.1V8.2H0V7.8z"/>
	</defs>
	<clipPath id="SVGID_00000089566567508127482780000000539766528710748311_">
		<use xlink:href="#SVGID_1_"  style="overflow:visible;"/>
	</clipPath>
	<g style="clip-path:url(#SVGID_00000089566567508127482780000000539766528710748311_);">
		<defs>
			<path id="SVGID_00000051369748683289081750000015590142942504961688_" d="M60,2c33.1,0,60,37.6,60,84s-26.9,84-60,84
				S0,132.4,0,86S26.9,2,60,2"/>
		</defs>
		
			<radialGradient id="SVGID_00000129183551299477729130000014106688119265646260_" cx="59.9998" cy="86.0002" r="72.9933" gradientUnits="userSpaceOnUse">
			<stop  offset="0" style="stop-color:#CCCCCC"/>
			<stop  offset="1" style="stop-color:#CCCCCC;stop-opacity:0"/>
		</radialGradient>
		
			<use xlink:href="#SVGID_00000051369748683289081750000015590142942504961688_"  style="overflow:visible;fill-rule:evenodd;clip-rule:evenodd;fill:url(#SVGID_00000129183551299477729130000014106688119265646260_);"/>
		<clipPath id="SVGID_00000000932518778648140750000005785450108666533816_">
			<use xlink:href="#SVGID_00000051369748683289081750000015590142942504961688_"  style="overflow:visible;"/>
		</clipPath>
	</g>
</g>
</svg>
